%TF.GenerationSoftware,KiCad,Pcbnew,8.0.4*%
%TF.CreationDate,2024-11-04T03:11:28+01:00*%
%TF.ProjectId,Whiplaesh,57686970-6c61-4657-9368-2e6b69636164,0.1*%
%TF.SameCoordinates,Original*%
%TF.FileFunction,Soldermask,Bot*%
%TF.FilePolarity,Negative*%
%FSLAX46Y46*%
G04 Gerber Fmt 4.6, Leading zero omitted, Abs format (unit mm)*
G04 Created by KiCad (PCBNEW 8.0.4) date 2024-11-04 03:11:28*
%MOMM*%
%LPD*%
G01*
G04 APERTURE LIST*
G04 Aperture macros list*
%AMRoundRect*
0 Rectangle with rounded corners*
0 $1 Rounding radius*
0 $2 $3 $4 $5 $6 $7 $8 $9 X,Y pos of 4 corners*
0 Add a 4 corners polygon primitive as box body*
4,1,4,$2,$3,$4,$5,$6,$7,$8,$9,$2,$3,0*
0 Add four circle primitives for the rounded corners*
1,1,$1+$1,$2,$3*
1,1,$1+$1,$4,$5*
1,1,$1+$1,$6,$7*
1,1,$1+$1,$8,$9*
0 Add four rect primitives between the rounded corners*
20,1,$1+$1,$2,$3,$4,$5,0*
20,1,$1+$1,$4,$5,$6,$7,0*
20,1,$1+$1,$6,$7,$8,$9,0*
20,1,$1+$1,$8,$9,$2,$3,0*%
G04 Aperture macros list end*
%ADD10C,1.801800*%
%ADD11C,3.100000*%
%ADD12C,4.087800*%
%ADD13C,5.100000*%
%ADD14RoundRect,0.050000X-1.300000X-1.300000X1.300000X-1.300000X1.300000X1.300000X-1.300000X1.300000X0*%
%ADD15RoundRect,0.050000X1.275000X1.250000X-1.275000X1.250000X-1.275000X-1.250000X1.275000X-1.250000X0*%
%ADD16C,2.400000*%
%ADD17RoundRect,0.050000X-1.592168X-0.919239X0.919239X-1.592168X1.592168X0.919239X-0.919239X1.592168X0*%
%ADD18RoundRect,0.050000X1.555079X0.877413X-0.908032X1.537402X-1.555079X-0.877413X0.908032X-1.537402X0*%
%ADD19C,0.600000*%
%ADD20RoundRect,0.050000X-1.505993X-1.054507X1.054507X-1.505993X1.505993X1.054507X-1.054507X1.505993X0*%
%ADD21RoundRect,0.050000X1.472690X1.009608X-1.038570X1.452411X-1.472690X-1.009608X1.038570X-1.452411X0*%
%ADD22RoundRect,0.050000X-0.919239X-1.592168X1.592168X-0.919239X0.919239X1.592168X-1.592168X0.919239X0*%
%ADD23RoundRect,0.050000X0.908032X1.537402X-1.555079X0.877413X-0.908032X-1.537402X1.555079X-0.877413X0*%
%ADD24RoundRect,0.050000X-1.054507X-1.505993X1.505993X-1.054507X1.054507X1.505993X-1.505993X1.054507X0*%
%ADD25RoundRect,0.050000X1.038570X1.452411X-1.472690X1.009608X-1.038570X-1.452411X1.472690X-1.009608X0*%
%ADD26RoundRect,0.050000X0.876300X-0.876300X0.876300X0.876300X-0.876300X0.876300X-0.876300X-0.876300X0*%
%ADD27C,1.852600*%
%ADD28C,2.300000*%
%ADD29RoundRect,0.050000X-0.876300X0.876300X-0.876300X-0.876300X0.876300X-0.876300X0.876300X0.876300X0*%
%ADD30C,1.420800*%
%ADD31C,2.106600*%
%ADD32RoundRect,0.250000X-0.250000X-0.400000X0.250000X-0.400000X0.250000X0.400000X-0.250000X0.400000X0*%
%ADD33RoundRect,0.250000X-0.345009X-0.321666X0.137954X-0.451075X0.345009X0.321666X-0.137954X0.451075X0*%
%ADD34RoundRect,0.250000X-0.315661X-0.350511X0.176743X-0.437335X0.315661X0.350511X-0.176743X0.437335X0*%
%ADD35RoundRect,0.250000X-0.176743X-0.437335X0.315661X-0.350511X0.176743X0.437335X-0.315661X0.350511X0*%
%ADD36RoundRect,0.250000X-0.137954X-0.451075X0.345009X-0.321666X0.137954X0.451075X-0.345009X0.321666X0*%
%ADD37RoundRect,0.270833X0.654167X-0.379167X0.654167X0.379167X-0.654167X0.379167X-0.654167X-0.379167X0*%
%ADD38O,1.850000X1.300000*%
%ADD39RoundRect,0.270833X-0.654167X0.379167X-0.654167X-0.379167X0.654167X-0.379167X0.654167X0.379167X0*%
G04 APERTURE END LIST*
D10*
%TO.C,SW1*%
X51772918Y-54464871D03*
X52192918Y-54464871D03*
D11*
X52272918Y-58214871D03*
X52272918Y-58264871D03*
X52872918Y-59164871D03*
X54732918Y-59544871D03*
D12*
X57272918Y-54464871D03*
D13*
X57272918Y-54464871D03*
D11*
X57272918Y-60364871D03*
X59872918Y-60214871D03*
X61082918Y-57004871D03*
D10*
X62352918Y-54464871D03*
X62772918Y-54464871D03*
D14*
X48997918Y-58264871D03*
X49597918Y-59164871D03*
D15*
X50982918Y-59544871D03*
D16*
X59812918Y-49384871D03*
X61672918Y-49764871D03*
X62272918Y-50664871D03*
X53462918Y-51924871D03*
X54672918Y-48714871D03*
X57272918Y-48564871D03*
D14*
X60547918Y-60364871D03*
X63147918Y-60214871D03*
D15*
X64832918Y-57004871D03*
%TD*%
D10*
%TO.C,SW14*%
X180466651Y-73570702D03*
X180886651Y-73570702D03*
D11*
X180966651Y-77320702D03*
X180966651Y-77370702D03*
X181566651Y-78270702D03*
X183426651Y-78650702D03*
D12*
X185966651Y-73570702D03*
D13*
X185966651Y-73570702D03*
D11*
X185966651Y-79470702D03*
X188566651Y-79320702D03*
X189776651Y-76110702D03*
D10*
X191046651Y-73570702D03*
X191466651Y-73570702D03*
D14*
X177691651Y-77370702D03*
X178291651Y-78270702D03*
D15*
X179676651Y-78650702D03*
D16*
X188506651Y-68490702D03*
X190366651Y-68870702D03*
X190966651Y-69770702D03*
X182156651Y-71030702D03*
X183366651Y-67820702D03*
X185966651Y-67670702D03*
D14*
X189241651Y-79470702D03*
X191841651Y-79320702D03*
D15*
X193526651Y-76110702D03*
%TD*%
D10*
%TO.C,SW30*%
X122204444Y-123245367D03*
X122610133Y-123354071D03*
D11*
X121716835Y-126996999D03*
X121703894Y-127045295D03*
X122050513Y-128069920D03*
X123748784Y-128918375D03*
D12*
X127517036Y-124668872D03*
D13*
X127517036Y-124668872D03*
D11*
X125990004Y-130367834D03*
X128540234Y-130895875D03*
X130539813Y-128108424D03*
D10*
X132423939Y-125983673D03*
X132829628Y-126092377D03*
D17*
X118540487Y-126197664D03*
X118887106Y-127222287D03*
D18*
X120126562Y-127947803D03*
D16*
X131285288Y-120419369D03*
X132983559Y-121267824D03*
X133330178Y-122292449D03*
X124494259Y-121229320D03*
X126493838Y-118441869D03*
X129044068Y-118969910D03*
D17*
X129153411Y-131215467D03*
X131703641Y-131743507D03*
D18*
X134162035Y-129078996D03*
%TD*%
D19*
%TO.C,mouse-bite-5mm-slot*%
X152600000Y-59149444D03*
X147600000Y-59149444D03*
X152600000Y-59899443D03*
X152600000Y-59899443D03*
X147600000Y-59899443D03*
X147600000Y-59899443D03*
X152600000Y-60649443D03*
X147600000Y-60649443D03*
X152600000Y-61399443D03*
X147600000Y-61399443D03*
X152600000Y-62149443D03*
X147600000Y-62149443D03*
X152600000Y-62899443D03*
X147600000Y-62899443D03*
X152600000Y-63649443D03*
X147600000Y-63649443D03*
X152600000Y-64399443D03*
X147600000Y-64399443D03*
X152600000Y-65149443D03*
X147600000Y-65149443D03*
X152600000Y-65899443D03*
X147600000Y-65899443D03*
X152600000Y-66649442D03*
X147600000Y-66649442D03*
%TD*%
D10*
%TO.C,SW8*%
X237466651Y-54570702D03*
X237886651Y-54570702D03*
D11*
X237966651Y-58320702D03*
X237966651Y-58370702D03*
X238566651Y-59270702D03*
X240426651Y-59650702D03*
D12*
X242966651Y-54570702D03*
D13*
X242966651Y-54570702D03*
D11*
X242966651Y-60470702D03*
X245566651Y-60320702D03*
X246776651Y-57110702D03*
D10*
X248046651Y-54570702D03*
X248466651Y-54570702D03*
D14*
X234691651Y-58370702D03*
X235291651Y-59270702D03*
D15*
X236676651Y-59650702D03*
D16*
X245506651Y-49490702D03*
X247366651Y-49870702D03*
X247966651Y-50770702D03*
X239156651Y-52030702D03*
X240366651Y-48820702D03*
X242966651Y-48670702D03*
D14*
X246241651Y-60470702D03*
X248841651Y-60320702D03*
D15*
X250526651Y-57110702D03*
%TD*%
D10*
%TO.C,SW28*%
X256812964Y-102729423D03*
X257226584Y-102802355D03*
D11*
X256654188Y-106509276D03*
X256645505Y-106558517D03*
X257080104Y-107549032D03*
X258845863Y-108246245D03*
D12*
X262229407Y-103684488D03*
D13*
X262229407Y-103684488D03*
D11*
X261204883Y-109494854D03*
X263791430Y-109798618D03*
X265540458Y-106847499D03*
D10*
X267232230Y-104566621D03*
X267645850Y-104639553D03*
D20*
X253420260Y-105989819D03*
X253854861Y-106980335D03*
D21*
X255152833Y-107595064D03*
D16*
X265612951Y-99122731D03*
X267378710Y-99819944D03*
X267813309Y-100810459D03*
X258918356Y-100521477D03*
X260667384Y-97570358D03*
X263253931Y-97874122D03*
D20*
X264430128Y-110063552D03*
X267016677Y-110367316D03*
D21*
X269233487Y-107498680D03*
%TD*%
D10*
%TO.C,SW10*%
X51749569Y-73546129D03*
X52169569Y-73546129D03*
D11*
X52249569Y-77296129D03*
X52249569Y-77346129D03*
X52849569Y-78246129D03*
X54709569Y-78626129D03*
D12*
X57249569Y-73546129D03*
D13*
X57249569Y-73546129D03*
D11*
X57249569Y-79446129D03*
X59849569Y-79296129D03*
X61059569Y-76086129D03*
D10*
X62329569Y-73546129D03*
X62749569Y-73546129D03*
D14*
X48974569Y-77346129D03*
X49574569Y-78246129D03*
D15*
X50959569Y-78626129D03*
D16*
X59789569Y-68466129D03*
X61649569Y-68846129D03*
X62249569Y-69746129D03*
X53439569Y-71006129D03*
X54649569Y-67796129D03*
X57249569Y-67646129D03*
D14*
X60524569Y-79446129D03*
X63124569Y-79296129D03*
D15*
X64809569Y-76086129D03*
%TD*%
D10*
%TO.C,SW32*%
X185739183Y-121199389D03*
X186144872Y-121090685D03*
D11*
X187192717Y-124692201D03*
X187205658Y-124740497D03*
X188018151Y-125454539D03*
X189913124Y-125340188D03*
D12*
X191051775Y-119775884D03*
D13*
X191051775Y-119775884D03*
D11*
X192578807Y-125474846D03*
X195051392Y-124657028D03*
X195389353Y-121243235D03*
D10*
X195958678Y-118461083D03*
X196364367Y-118352379D03*
D22*
X184042251Y-125588130D03*
X184854744Y-126302172D03*
D23*
X186290902Y-126310759D03*
D16*
X192190426Y-114211580D03*
X194085399Y-114097229D03*
X194897892Y-114811271D03*
X186714197Y-118308533D03*
X187052158Y-114894740D03*
X189524743Y-114076922D03*
D22*
X195742214Y-124627214D03*
X198214799Y-123809396D03*
D23*
X199011575Y-120272664D03*
%TD*%
D10*
%TO.C,SW17*%
X237466651Y-73570702D03*
X237886651Y-73570702D03*
D11*
X237966651Y-77320702D03*
X237966651Y-77370702D03*
X238566651Y-78270702D03*
X240426651Y-78650702D03*
D12*
X242966651Y-73570702D03*
D13*
X242966651Y-73570702D03*
D11*
X242966651Y-79470702D03*
X245566651Y-79320702D03*
X246776651Y-76110702D03*
D10*
X248046651Y-73570702D03*
X248466651Y-73570702D03*
D14*
X234691651Y-77370702D03*
X235291651Y-78270702D03*
D15*
X236676651Y-78650702D03*
D16*
X245506651Y-68490702D03*
X247366651Y-68870702D03*
X247966651Y-69770702D03*
X239156651Y-71030702D03*
X240366651Y-67820702D03*
X242966651Y-67670702D03*
D14*
X246241651Y-79470702D03*
X248841651Y-79320702D03*
D15*
X250526651Y-76110702D03*
%TD*%
D10*
%TO.C,SW9*%
X29271055Y-85903633D03*
X29684675Y-85830701D03*
D11*
X30414640Y-89509838D03*
X30423322Y-89559078D03*
X31170490Y-90341216D03*
X33068219Y-90392458D03*
D12*
X34687498Y-84948568D03*
D13*
X34687498Y-84948568D03*
D11*
X35712022Y-90758934D03*
X38246475Y-90159727D03*
X38880682Y-86788380D03*
D10*
X39690321Y-84066435D03*
X40103941Y-83993503D03*
D24*
X27198077Y-90127776D03*
X27945245Y-90909914D03*
D25*
X29375190Y-91043638D03*
D16*
X36306777Y-79504678D03*
X38204506Y-79555920D03*
X38951674Y-80338058D03*
X30494314Y-83108756D03*
X31128521Y-79737409D03*
X33662974Y-79138202D03*
D24*
X38937268Y-90190236D03*
X41471721Y-89591032D03*
D25*
X42573711Y-86137199D03*
%TD*%
D26*
%TO.C,RST1*%
X145599569Y-86599445D03*
D27*
X145599569Y-80099444D03*
%TD*%
D28*
%TO.C,H5*%
X256266651Y-54570702D03*
%TD*%
D10*
%TO.C,SW5*%
X180466651Y-54570702D03*
X180886651Y-54570702D03*
D11*
X180966651Y-58320702D03*
X180966651Y-58370702D03*
X181566651Y-59270702D03*
X183426651Y-59650702D03*
D12*
X185966651Y-54570702D03*
D13*
X185966651Y-54570702D03*
D11*
X185966651Y-60470702D03*
X188566651Y-60320702D03*
X189776651Y-57110702D03*
D10*
X191046651Y-54570702D03*
X191466651Y-54570702D03*
D14*
X177691651Y-58370702D03*
X178291651Y-59270702D03*
D15*
X179676651Y-59650702D03*
D16*
X188506651Y-49490702D03*
X190366651Y-49870702D03*
X190966651Y-50770702D03*
X182156651Y-52030702D03*
X183366651Y-48820702D03*
X185966651Y-48670702D03*
D14*
X189241651Y-60470702D03*
X191841651Y-60320702D03*
D15*
X193526651Y-57110702D03*
%TD*%
D29*
%TO.C,RST2*%
X154600000Y-80099443D03*
D27*
X154600000Y-86599444D03*
%TD*%
D10*
%TO.C,SW4*%
X108749569Y-54546129D03*
X109169569Y-54546129D03*
D11*
X109249569Y-58296129D03*
X109249569Y-58346129D03*
X109849569Y-59246129D03*
X111709569Y-59626129D03*
D12*
X114249569Y-54546129D03*
D13*
X114249569Y-54546129D03*
D11*
X114249569Y-60446129D03*
X116849569Y-60296129D03*
X118059569Y-57086129D03*
D10*
X119329569Y-54546129D03*
X119749569Y-54546129D03*
D14*
X105974569Y-58346129D03*
X106574569Y-59246129D03*
D15*
X107959569Y-59626129D03*
D16*
X116789569Y-49466129D03*
X118649569Y-49846129D03*
X119249569Y-50746129D03*
X110439569Y-52006129D03*
X111649569Y-48796129D03*
X114249569Y-48646129D03*
D14*
X117524569Y-60446129D03*
X120124569Y-60296129D03*
D15*
X121809569Y-57086129D03*
%TD*%
D10*
%TO.C,SW24*%
X180466651Y-92570702D03*
X180886651Y-92570702D03*
D11*
X180966651Y-96320702D03*
X180966651Y-96370702D03*
X181566651Y-97270702D03*
X183426651Y-97650702D03*
D12*
X185966651Y-92570702D03*
D13*
X185966651Y-92570702D03*
D11*
X185966651Y-98470702D03*
X188566651Y-98320702D03*
X189776651Y-95110702D03*
D10*
X191046651Y-92570702D03*
X191466651Y-92570702D03*
D14*
X177691651Y-96370702D03*
X178291651Y-97270702D03*
D15*
X179676651Y-97650702D03*
D16*
X188506651Y-87490702D03*
X190366651Y-87870702D03*
X190966651Y-88770702D03*
X182156651Y-90030702D03*
X183366651Y-86820702D03*
X185966651Y-86670702D03*
D14*
X189241651Y-98470702D03*
X191841651Y-98320702D03*
D15*
X193526651Y-95110702D03*
%TD*%
D10*
%TO.C,SW16*%
X218466651Y-64070702D03*
X218886651Y-64070702D03*
D11*
X218966651Y-67820702D03*
X218966651Y-67870702D03*
X219566651Y-68770702D03*
X221426651Y-69150702D03*
D12*
X223966651Y-64070702D03*
D13*
X223966651Y-64070702D03*
D11*
X223966651Y-69970702D03*
X226566651Y-69820702D03*
X227776651Y-66610702D03*
D10*
X229046651Y-64070702D03*
X229466651Y-64070702D03*
D14*
X215691651Y-67870702D03*
X216291651Y-68770702D03*
D15*
X217676651Y-69150702D03*
D16*
X226506651Y-58990702D03*
X228366651Y-59370702D03*
X228966651Y-60270702D03*
X220156651Y-61530702D03*
X221366651Y-58320702D03*
X223966651Y-58170702D03*
D14*
X227241651Y-69970702D03*
X229841651Y-69820702D03*
D15*
X231526651Y-66610702D03*
%TD*%
D10*
%TO.C,SW25*%
X199466651Y-87820702D03*
X199886651Y-87820702D03*
D11*
X199966651Y-91570702D03*
X199966651Y-91620702D03*
X200566651Y-92520702D03*
X202426651Y-92900702D03*
D12*
X204966651Y-87820702D03*
D13*
X204966651Y-87820702D03*
D11*
X204966651Y-93720702D03*
X207566651Y-93570702D03*
X208776651Y-90360702D03*
D10*
X210046651Y-87820702D03*
X210466651Y-87820702D03*
D14*
X196691651Y-91620702D03*
X197291651Y-92520702D03*
D15*
X198676651Y-92900702D03*
D16*
X207506651Y-82740702D03*
X209366651Y-83120702D03*
X209966651Y-84020702D03*
X201156651Y-85280702D03*
X202366651Y-82070702D03*
X204966651Y-81920702D03*
D14*
X208241651Y-93720702D03*
X210841651Y-93570702D03*
D15*
X212526651Y-90360702D03*
%TD*%
D10*
%TO.C,SW2*%
X70749569Y-45046129D03*
X71169569Y-45046129D03*
D11*
X71249569Y-48796129D03*
X71249569Y-48846129D03*
X71849569Y-49746129D03*
X73709569Y-50126129D03*
D12*
X76249569Y-45046129D03*
D13*
X76249569Y-45046129D03*
D11*
X76249569Y-50946129D03*
X78849569Y-50796129D03*
X80059569Y-47586129D03*
D10*
X81329569Y-45046129D03*
X81749569Y-45046129D03*
D14*
X67974569Y-48846129D03*
X68574569Y-49746129D03*
D15*
X69959569Y-50126129D03*
D16*
X78789569Y-39966129D03*
X80649569Y-40346129D03*
X81249569Y-41246129D03*
X72439569Y-42506129D03*
X73649569Y-39296129D03*
X76249569Y-39146129D03*
D14*
X79524569Y-50946129D03*
X82124569Y-50796129D03*
D15*
X83809569Y-47586129D03*
%TD*%
D10*
%TO.C,SW7*%
X218466651Y-45070702D03*
X218886651Y-45070702D03*
D11*
X218966651Y-48820702D03*
X218966651Y-48870702D03*
X219566651Y-49770702D03*
X221426651Y-50150702D03*
D12*
X223966651Y-45070702D03*
D13*
X223966651Y-45070702D03*
D11*
X223966651Y-50970702D03*
X226566651Y-50820702D03*
X227776651Y-47610702D03*
D10*
X229046651Y-45070702D03*
X229466651Y-45070702D03*
D14*
X215691651Y-48870702D03*
X216291651Y-49770702D03*
D15*
X217676651Y-50150702D03*
D16*
X226506651Y-39990702D03*
X228366651Y-40370702D03*
X228966651Y-41270702D03*
X220156651Y-42530702D03*
X221366651Y-39320702D03*
X223966651Y-39170702D03*
D14*
X227241651Y-50970702D03*
X229841651Y-50820702D03*
D15*
X231526651Y-47610702D03*
%TD*%
D28*
%TO.C,H4*%
X52499569Y-116296129D03*
%TD*%
D29*
%TO.C,MCU2*%
X157430000Y-46980000D03*
D27*
X157430000Y-49520000D03*
X157430000Y-52060000D03*
X157430000Y-54600000D03*
X157430000Y-57140000D03*
X157430000Y-59680000D03*
X157430000Y-62220000D03*
X157430000Y-64760000D03*
X157430000Y-67300000D03*
X157430000Y-69840000D03*
X157430000Y-72380000D03*
X157430000Y-74920000D03*
X172670000Y-74920000D03*
X172670000Y-72380000D03*
X172670000Y-69840000D03*
X172670000Y-67300000D03*
X172670000Y-64760000D03*
X172670000Y-62220000D03*
X172670000Y-59680000D03*
X172670000Y-57140000D03*
X172670000Y-54600000D03*
X172670000Y-52060000D03*
X172670000Y-49520000D03*
X172670000Y-46980000D03*
%TD*%
D10*
%TO.C,SW19*%
X32570371Y-104614980D03*
X32983991Y-104542048D03*
D11*
X33713956Y-108221185D03*
X33722638Y-108270425D03*
X34469806Y-109052563D03*
X36367535Y-109103805D03*
D12*
X37986814Y-103659915D03*
D13*
X37986814Y-103659915D03*
D11*
X39011338Y-109470281D03*
X41545791Y-108871074D03*
X42179998Y-105499727D03*
D10*
X42989637Y-102777782D03*
X43403257Y-102704850D03*
D24*
X30497393Y-108839123D03*
X31244561Y-109621261D03*
D25*
X32674506Y-109754985D03*
D16*
X39606093Y-98216025D03*
X41503822Y-98267267D03*
X42250990Y-99049405D03*
X33793630Y-101820103D03*
X34427837Y-98448756D03*
X36962290Y-97849549D03*
D24*
X42236584Y-108901583D03*
X44771037Y-108302379D03*
D25*
X45873027Y-104848546D03*
%TD*%
D10*
%TO.C,SW3*%
X89749570Y-49796129D03*
X90169570Y-49796129D03*
D11*
X90249570Y-53546129D03*
X90249570Y-53596129D03*
X90849570Y-54496129D03*
X92709570Y-54876129D03*
D12*
X95249570Y-49796129D03*
D13*
X95249570Y-49796129D03*
D11*
X95249570Y-55696129D03*
X97849570Y-55546129D03*
X99059570Y-52336129D03*
D10*
X100329570Y-49796129D03*
X100749570Y-49796129D03*
D14*
X86974570Y-53596129D03*
X87574570Y-54496129D03*
D15*
X88959570Y-54876129D03*
D16*
X97789570Y-44716129D03*
X99649570Y-45096129D03*
X100249570Y-45996129D03*
X91439570Y-47256129D03*
X92649570Y-44046129D03*
X95249570Y-43896129D03*
D14*
X98524570Y-55696129D03*
X101124570Y-55546129D03*
D15*
X102809570Y-52336129D03*
%TD*%
D28*
%TO.C,H6*%
X194940000Y-43130000D03*
%TD*%
D10*
%TO.C,SW21*%
X70749569Y-83046129D03*
X71169569Y-83046129D03*
D11*
X71249569Y-86796129D03*
X71249569Y-86846129D03*
X71849569Y-87746129D03*
X73709569Y-88126129D03*
D12*
X76249569Y-83046129D03*
D13*
X76249569Y-83046129D03*
D11*
X76249569Y-88946129D03*
X78849569Y-88796129D03*
X80059569Y-85586129D03*
D10*
X81329569Y-83046129D03*
X81749569Y-83046129D03*
D14*
X67974569Y-86846129D03*
X68574569Y-87746129D03*
D15*
X69959569Y-88126129D03*
D16*
X78789569Y-77966129D03*
X80649569Y-78346129D03*
X81249569Y-79246129D03*
X72439569Y-80506129D03*
X73649569Y-77296129D03*
X76249569Y-77146129D03*
D14*
X79524569Y-88946129D03*
X82124569Y-88796129D03*
D15*
X83809569Y-85586129D03*
%TD*%
D10*
%TO.C,SW29*%
X103851854Y-118327806D03*
X104257543Y-118436510D03*
D11*
X103364245Y-122079438D03*
X103351304Y-122127734D03*
X103697923Y-123152359D03*
X105396194Y-124000814D03*
D12*
X109164446Y-119751311D03*
D13*
X109164446Y-119751311D03*
D11*
X107637414Y-125450273D03*
X110187644Y-125978314D03*
X112187223Y-123190863D03*
D10*
X114071349Y-121066112D03*
X114477038Y-121174816D03*
D17*
X100187897Y-121280103D03*
X100534516Y-122304726D03*
D18*
X101773972Y-123030242D03*
D16*
X112932698Y-115501808D03*
X114630969Y-116350263D03*
X114977588Y-117374888D03*
X106141669Y-116311759D03*
X108141248Y-113524308D03*
X110691478Y-114052349D03*
D17*
X110800821Y-126297906D03*
X113351051Y-126825946D03*
D18*
X115809445Y-124161435D03*
%TD*%
D28*
%TO.C,H1*%
X43949569Y-54546129D03*
%TD*%
D10*
%TO.C,SW26*%
X218466651Y-83070702D03*
X218886651Y-83070702D03*
D11*
X218966651Y-86820702D03*
X218966651Y-86870702D03*
X219566651Y-87770702D03*
X221426651Y-88150702D03*
D12*
X223966651Y-83070702D03*
D13*
X223966651Y-83070702D03*
D11*
X223966651Y-88970702D03*
X226566651Y-88820702D03*
X227776651Y-85610702D03*
D10*
X229046651Y-83070702D03*
X229466651Y-83070702D03*
D14*
X215691651Y-86870702D03*
X216291651Y-87770702D03*
D15*
X217676651Y-88150702D03*
D16*
X226506651Y-77990702D03*
X228366651Y-78370702D03*
X228966651Y-79270702D03*
X220156651Y-80530702D03*
X221366651Y-77320702D03*
X223966651Y-77170702D03*
D14*
X227241651Y-88970702D03*
X229841651Y-88820702D03*
D15*
X231526651Y-85610702D03*
%TD*%
D28*
%TO.C,H8*%
X247716651Y-116320702D03*
%TD*%
D10*
%TO.C,SW23*%
X108749569Y-92546129D03*
X109169569Y-92546129D03*
D11*
X109249569Y-96296129D03*
X109249569Y-96346129D03*
X109849569Y-97246129D03*
X111709569Y-97626129D03*
D12*
X114249569Y-92546129D03*
D13*
X114249569Y-92546129D03*
D11*
X114249569Y-98446129D03*
X116849569Y-98296129D03*
X118059569Y-95086129D03*
D10*
X119329569Y-92546129D03*
X119749569Y-92546129D03*
D14*
X105974569Y-96346129D03*
X106574569Y-97246129D03*
D15*
X107959569Y-97626129D03*
D16*
X116789569Y-87466129D03*
X118649569Y-87846129D03*
X119249569Y-88746129D03*
X110439569Y-90006129D03*
X111649569Y-86796129D03*
X114249569Y-86646129D03*
D14*
X117524569Y-98446129D03*
X120124569Y-98296129D03*
D15*
X121809569Y-95086129D03*
%TD*%
D10*
%TO.C,SW20*%
X51749569Y-92546129D03*
X52169569Y-92546129D03*
D11*
X52249569Y-96296129D03*
X52249569Y-96346129D03*
X52849569Y-97246129D03*
X54709569Y-97626129D03*
D12*
X57249569Y-92546129D03*
D13*
X57249569Y-92546129D03*
D11*
X57249569Y-98446129D03*
X59849569Y-98296129D03*
X61059569Y-95086129D03*
D10*
X62329569Y-92546129D03*
X62749569Y-92546129D03*
D14*
X48974569Y-96346129D03*
X49574569Y-97246129D03*
D15*
X50959569Y-97626129D03*
D16*
X59789569Y-87466129D03*
X61649569Y-87846129D03*
X62249569Y-88746129D03*
X53439569Y-90006129D03*
X54649569Y-86796129D03*
X57249569Y-86646129D03*
D14*
X60524569Y-98446129D03*
X63124569Y-98296129D03*
D15*
X64809569Y-95086129D03*
%TD*%
D10*
%TO.C,SW27*%
X237466651Y-92570702D03*
X237886651Y-92570702D03*
D11*
X237966651Y-96320702D03*
X237966651Y-96370702D03*
X238566651Y-97270702D03*
X240426651Y-97650702D03*
D12*
X242966651Y-92570702D03*
D13*
X242966651Y-92570702D03*
D11*
X242966651Y-98470702D03*
X245566651Y-98320702D03*
X246776651Y-95110702D03*
D10*
X248046651Y-92570702D03*
X248466651Y-92570702D03*
D14*
X234691651Y-96370702D03*
X235291651Y-97270702D03*
D15*
X236676651Y-97650702D03*
D16*
X245506651Y-87490702D03*
X247366651Y-87870702D03*
X247966651Y-88770702D03*
X239156651Y-90030702D03*
X240366651Y-86820702D03*
X242966651Y-86670702D03*
D14*
X246241651Y-98470702D03*
X248841651Y-98320702D03*
D15*
X250526651Y-95110702D03*
%TD*%
D10*
%TO.C,SW13*%
X108749569Y-73546129D03*
X109169569Y-73546129D03*
D11*
X109249569Y-77296129D03*
X109249569Y-77346129D03*
X109849569Y-78246129D03*
X111709569Y-78626129D03*
D12*
X114249569Y-73546129D03*
D13*
X114249569Y-73546129D03*
D11*
X114249569Y-79446129D03*
X116849569Y-79296129D03*
X118059569Y-76086129D03*
D10*
X119329569Y-73546129D03*
X119749569Y-73546129D03*
D14*
X105974569Y-77346129D03*
X106574569Y-78246129D03*
D15*
X107959569Y-78626129D03*
D16*
X116789569Y-68466129D03*
X118649569Y-68846129D03*
X119249569Y-69746129D03*
X110439569Y-71006129D03*
X111649569Y-67796129D03*
X114249569Y-67646129D03*
D14*
X117524569Y-79446129D03*
X120124569Y-79296129D03*
D15*
X121809569Y-76086129D03*
%TD*%
D28*
%TO.C,H7*%
X162450000Y-135750000D03*
%TD*%
D10*
%TO.C,SW22*%
X89749569Y-87796129D03*
X90169569Y-87796129D03*
D11*
X90249569Y-91546129D03*
X90249569Y-91596129D03*
X90849569Y-92496129D03*
X92709569Y-92876129D03*
D12*
X95249569Y-87796129D03*
D13*
X95249569Y-87796129D03*
D11*
X95249569Y-93696129D03*
X97849569Y-93546129D03*
X99059569Y-90336129D03*
D10*
X100329569Y-87796129D03*
X100749569Y-87796129D03*
D14*
X86974569Y-91596129D03*
X87574569Y-92496129D03*
D15*
X88959569Y-92876129D03*
D16*
X97789569Y-82716129D03*
X99649569Y-83096129D03*
X100249569Y-83996129D03*
X91439569Y-85256129D03*
X92649569Y-82046129D03*
X95249569Y-81896129D03*
D14*
X98524569Y-93696129D03*
X101124569Y-93546129D03*
D15*
X102809569Y-90336129D03*
%TD*%
D10*
%TO.C,SW11*%
X70749569Y-64046129D03*
X71169569Y-64046129D03*
D11*
X71249569Y-67796129D03*
X71249569Y-67846129D03*
X71849569Y-68746129D03*
X73709569Y-69126129D03*
D12*
X76249569Y-64046129D03*
D13*
X76249569Y-64046129D03*
D11*
X76249569Y-69946129D03*
X78849569Y-69796129D03*
X80059569Y-66586129D03*
D10*
X81329569Y-64046129D03*
X81749569Y-64046129D03*
D14*
X67974569Y-67846129D03*
X68574569Y-68746129D03*
D15*
X69959569Y-69126129D03*
D16*
X78789569Y-58966129D03*
X80649569Y-59346129D03*
X81249569Y-60246129D03*
X72439569Y-61506129D03*
X73649569Y-58296129D03*
X76249569Y-58146129D03*
D14*
X79524569Y-69946129D03*
X82124569Y-69796129D03*
D15*
X83809569Y-66586129D03*
%TD*%
D30*
%TO.C,PWR2*%
X156600000Y-123349444D03*
X157117638Y-125281296D03*
X157635276Y-127213148D03*
D31*
X156056480Y-121321001D03*
X158178796Y-129241591D03*
%TD*%
D28*
%TO.C,H2*%
X105280000Y-43120000D03*
%TD*%
D19*
%TO.C,mouse-bite-5mm-slot*%
X152601847Y-104053361D03*
X147601847Y-104053361D03*
X152601847Y-104803360D03*
X152601847Y-104803360D03*
X147601847Y-104803360D03*
X147601847Y-104803360D03*
X152601847Y-105553360D03*
X147601847Y-105553360D03*
X152601847Y-106303360D03*
X147601847Y-106303360D03*
X152601847Y-107053360D03*
X147601847Y-107053360D03*
X152601847Y-107803360D03*
X147601847Y-107803360D03*
X152601847Y-108553360D03*
X147601847Y-108553360D03*
X152601847Y-109303360D03*
X147601847Y-109303360D03*
X152601847Y-110053360D03*
X147601847Y-110053360D03*
X152601847Y-110803360D03*
X147601847Y-110803360D03*
X152601847Y-111553359D03*
X147601847Y-111553359D03*
%TD*%
D10*
%TO.C,SW12*%
X89749570Y-68796129D03*
X90169570Y-68796129D03*
D11*
X90249570Y-72546129D03*
X90249570Y-72596129D03*
X90849570Y-73496129D03*
X92709570Y-73876129D03*
D12*
X95249570Y-68796129D03*
D13*
X95249570Y-68796129D03*
D11*
X95249570Y-74696129D03*
X97849570Y-74546129D03*
X99059570Y-71336129D03*
D10*
X100329570Y-68796129D03*
X100749570Y-68796129D03*
D14*
X86974570Y-72596129D03*
X87574570Y-73496129D03*
D15*
X88959570Y-73876129D03*
D16*
X97789570Y-63716129D03*
X99649570Y-64096129D03*
X100249570Y-64996129D03*
X91439570Y-66256129D03*
X92649570Y-63046129D03*
X95249570Y-62896129D03*
D14*
X98524570Y-74696129D03*
X101124570Y-74546129D03*
D15*
X102809570Y-71336129D03*
%TD*%
D10*
%TO.C,SW18*%
X260112280Y-84018076D03*
X260525900Y-84091008D03*
D11*
X259953504Y-87797929D03*
X259944821Y-87847170D03*
X260379420Y-88837685D03*
X262145179Y-89534898D03*
D12*
X265528723Y-84973141D03*
D13*
X265528723Y-84973141D03*
D11*
X264504199Y-90783507D03*
X267090746Y-91087271D03*
X268839774Y-88136152D03*
D10*
X270531546Y-85855274D03*
X270945166Y-85928206D03*
D20*
X256719576Y-87278472D03*
X257154177Y-88268988D03*
D21*
X258452149Y-88883717D03*
D16*
X268912267Y-80411384D03*
X270678026Y-81108597D03*
X271112625Y-82099112D03*
X262217672Y-81810130D03*
X263966700Y-78859011D03*
X266553247Y-79162775D03*
D20*
X267729444Y-91352205D03*
X270315993Y-91655969D03*
D21*
X272532803Y-88787333D03*
%TD*%
D10*
%TO.C,SW31*%
X167386592Y-126116950D03*
X167792281Y-126008246D03*
D11*
X168840126Y-129609762D03*
X168853067Y-129658058D03*
X169665560Y-130372100D03*
X171560533Y-130257749D03*
D12*
X172699184Y-124693445D03*
D13*
X172699184Y-124693445D03*
D11*
X174226216Y-130392407D03*
X176698801Y-129574589D03*
X177036762Y-126160796D03*
D10*
X177606087Y-123378644D03*
X178011776Y-123269940D03*
D22*
X165689660Y-130505691D03*
X166502153Y-131219733D03*
D23*
X167938311Y-131228320D03*
D16*
X173837835Y-119129141D03*
X175732808Y-119014790D03*
X176545301Y-119728832D03*
X168361606Y-123226094D03*
X168699567Y-119812301D03*
X171172152Y-118994483D03*
D22*
X177389623Y-129544775D03*
X179862208Y-128726957D03*
D23*
X180658984Y-125190225D03*
%TD*%
D10*
%TO.C,SW6*%
X199466651Y-49820702D03*
X199886651Y-49820702D03*
D11*
X199966651Y-53570702D03*
X199966651Y-53620702D03*
X200566651Y-54520702D03*
X202426651Y-54900702D03*
D12*
X204966651Y-49820702D03*
D13*
X204966651Y-49820702D03*
D11*
X204966651Y-55720702D03*
X207566651Y-55570702D03*
X208776651Y-52360702D03*
D10*
X210046651Y-49820702D03*
X210466651Y-49820702D03*
D14*
X196691651Y-53620702D03*
X197291651Y-54520702D03*
D15*
X198676651Y-54900702D03*
D16*
X207506651Y-44740702D03*
X209366651Y-45120702D03*
X209966651Y-46020702D03*
X201156651Y-47280702D03*
X202366651Y-44070702D03*
X204966651Y-43920702D03*
D14*
X208241651Y-55720702D03*
X210841651Y-55570702D03*
D15*
X212526651Y-52360702D03*
%TD*%
D10*
%TO.C,SW15*%
X199466651Y-68820702D03*
X199886651Y-68820702D03*
D11*
X199966651Y-72570702D03*
X199966651Y-72620702D03*
X200566651Y-73520702D03*
X202426651Y-73900702D03*
D12*
X204966651Y-68820702D03*
D13*
X204966651Y-68820702D03*
D11*
X204966651Y-74720702D03*
X207566651Y-74570702D03*
X208776651Y-71360702D03*
D10*
X210046651Y-68820702D03*
X210466651Y-68820702D03*
D14*
X196691651Y-72620702D03*
X197291651Y-73520702D03*
D15*
X198676651Y-73900702D03*
D16*
X207506651Y-63740702D03*
X209366651Y-64120702D03*
X209966651Y-65020702D03*
X201156651Y-66280702D03*
X202366651Y-63070702D03*
X204966651Y-62920702D03*
D14*
X208241651Y-74720702D03*
X210841651Y-74570702D03*
D15*
X212526651Y-71360702D03*
%TD*%
D28*
%TO.C,H3*%
X137750000Y-135750000D03*
%TD*%
D29*
%TO.C,MCU1*%
X127480000Y-46930000D03*
D27*
X127480000Y-49470000D03*
X127480000Y-52010000D03*
X127480000Y-54550000D03*
X127480000Y-57090000D03*
X127480000Y-59630000D03*
X127480000Y-62170000D03*
X127480000Y-64710000D03*
X127480000Y-67250000D03*
X127480000Y-69790000D03*
X127480000Y-72330000D03*
X127480000Y-74870000D03*
X142720000Y-74870000D03*
X142720000Y-72330000D03*
X142720000Y-69790000D03*
X142720000Y-67250000D03*
X142720000Y-64710000D03*
X142720000Y-62170000D03*
X142720000Y-59630000D03*
X142720000Y-57090000D03*
X142720000Y-54550000D03*
X142720000Y-52010000D03*
X142720000Y-49470000D03*
X142720000Y-46930000D03*
%TD*%
D30*
%TO.C,PWR1*%
X142647642Y-127017018D03*
X143165280Y-125085166D03*
X143682918Y-123153314D03*
D31*
X142104122Y-129045461D03*
X144226438Y-121124871D03*
%TD*%
D32*
%TO.C,D20*%
X48800000Y-86750000D03*
X52100000Y-86750000D03*
%TD*%
%TO.C,D15*%
X196540000Y-63010000D03*
X199840000Y-63010000D03*
%TD*%
%TO.C,D5*%
X177540000Y-48760000D03*
X180840000Y-48760000D03*
%TD*%
D33*
%TO.C,D30*%
X120912444Y-116845899D03*
X124100000Y-117699999D03*
%TD*%
D34*
%TO.C,D18*%
X258265067Y-77793481D03*
X261514933Y-78366519D03*
%TD*%
D35*
%TO.C,D19*%
X28400000Y-99300000D03*
X31649866Y-98726962D03*
%TD*%
D33*
%TO.C,D29*%
X102559853Y-111928337D03*
X105747409Y-112782437D03*
%TD*%
D32*
%TO.C,D12*%
X86800001Y-63000000D03*
X90100001Y-63000000D03*
%TD*%
%TO.C,D26*%
X215540000Y-77260000D03*
X218840000Y-77260000D03*
%TD*%
%TO.C,D21*%
X67800000Y-77250000D03*
X71100000Y-77250000D03*
%TD*%
%TO.C,D14*%
X177540000Y-67760000D03*
X180840000Y-67760000D03*
%TD*%
D35*
%TO.C,D9*%
X25100685Y-80588652D03*
X28350551Y-80015614D03*
%TD*%
D32*
%TO.C,D23*%
X105800000Y-86750000D03*
X109100000Y-86750000D03*
%TD*%
%TO.C,D27*%
X234540000Y-86760000D03*
X237840000Y-86760000D03*
%TD*%
%TO.C,D10*%
X48800000Y-67750000D03*
X52100000Y-67750000D03*
%TD*%
%TO.C,D25*%
X196540000Y-82010000D03*
X199840000Y-82010000D03*
%TD*%
%TO.C,D17*%
X234540000Y-67760000D03*
X237840000Y-67760000D03*
%TD*%
%TO.C,D7*%
X215540000Y-39260000D03*
X218840000Y-39260000D03*
%TD*%
D36*
%TO.C,D31*%
X163046222Y-121227050D03*
X166233778Y-120372950D03*
%TD*%
D37*
%TO.C,JST1*%
X135100000Y-85349444D03*
D38*
X135100000Y-83349444D03*
%TD*%
D32*
%TO.C,D4*%
X105800000Y-48750000D03*
X109100000Y-48750000D03*
%TD*%
%TO.C,D11*%
X67800000Y-58250000D03*
X71100000Y-58250000D03*
%TD*%
%TO.C,D1*%
X48800000Y-48750000D03*
X52100000Y-48750000D03*
%TD*%
%TO.C,D3*%
X86800001Y-44000000D03*
X90100001Y-44000000D03*
%TD*%
%TO.C,D22*%
X86800000Y-82000000D03*
X90100000Y-82000000D03*
%TD*%
%TO.C,D8*%
X234540000Y-48760000D03*
X237840000Y-48760000D03*
%TD*%
%TO.C,D2*%
X67800000Y-39250000D03*
X71100000Y-39250000D03*
%TD*%
D34*
%TO.C,D28*%
X254965752Y-96504829D03*
X258215618Y-97077867D03*
%TD*%
D36*
%TO.C,D32*%
X181398813Y-116309488D03*
X184586369Y-115455388D03*
%TD*%
D32*
%TO.C,D16*%
X215540000Y-58260000D03*
X218840000Y-58260000D03*
%TD*%
%TO.C,D13*%
X105800000Y-67750000D03*
X109100000Y-67750000D03*
%TD*%
%TO.C,D24*%
X177540000Y-86760000D03*
X180840000Y-86760000D03*
%TD*%
%TO.C,D6*%
X195132500Y-47050000D03*
X198432500Y-47050000D03*
%TD*%
D39*
%TO.C,JST2*%
X164950000Y-81349444D03*
D38*
X164950000Y-83349444D03*
%TD*%
M02*
