M48
; DRILL file {KiCad 8.0.4} date 2024-11-04T03:11:28+0100
; FORMAT={-:-/ absolute / inch / decimal}
; #@! TF.CreationDate,2024-11-04T03:11:28+01:00
; #@! TF.GenerationSoftware,Kicad,Pcbnew,8.0.4
; #@! TF.FileFunction,Plated,1,2,PTH
FMAT,2
INCH
; #@! TA.AperFunction,Plated,PTH,ViaDrill
T1C0.0157
; #@! TA.AperFunction,Plated,PTH,ComponentDrill
T2C0.0295
; #@! TA.AperFunction,Plated,PTH,ComponentDrill
T3C0.0320
; #@! TA.AperFunction,Plated,PTH,ComponentDrill
T4C0.0430
; #@! TA.AperFunction,Plated,PTH,ComponentDrill
T5C0.0490
; #@! TA.AperFunction,Plated,PTH,ComponentDrill
T6C0.0590
; #@! TA.AperFunction,Plated,PTH,ComponentDrill
T7C0.0591
%
G90
G05
T1
X1.3209Y-2.4543
X1.6516Y-3.2559
X1.7835Y-4.0098
X2.5516Y-2.8898
X2.5516Y-2.1345
X2.5535Y-3.6345
X2.5544Y-1.4067
X3.2992Y-1.4178
X3.2996Y-3.2565
X3.3016Y-1.7677
X3.3035Y-2.5124
X4.0476Y-1.9514
X4.0496Y-2.6994
X4.0496Y-3.4475
X4.3369Y-1.657
X4.7957Y-2.8858
X4.7976Y-2.1364
X4.7996Y-3.6345
X5.1333Y-2.9429
X5.1843Y-1.8465
X5.1906Y-2.4433
X5.215Y-2.219
X5.2263Y-2.9476
X5.2299Y-1.9004
X5.2442Y-2.3799
X5.2752Y-1.8535
X5.3015Y-1.9563
X5.3193Y-2.3386
X5.3484Y-2.2508
X5.3776Y-2.1492
X5.4411Y-3.361
X5.4929Y-3.2772
X5.5506Y-4.3797
X5.551Y-4.2222
X5.5512Y-4.4584
X5.5512Y-4.301
X5.5512Y-4.5372
X5.5512Y-4.6159
X5.5512Y-4.6553
X5.5512Y-4.5765
X5.5512Y-4.4978
X5.5512Y-4.2616
X5.5513Y-4.4191
X5.5521Y-4.3403
X6.2596Y-4.5437
X6.2598Y-4.465
X6.2598Y-4.2287
X6.2598Y-4.2681
X6.2598Y-4.3075
X6.2598Y-4.3469
X6.2599Y-4.5831
X6.2602Y-4.6618
X6.2602Y-4.4256
X6.2603Y-4.5043
X6.2603Y-4.3862
X6.2603Y-4.6224
X6.3828Y-2.9528
X6.4007Y-2.0012
X6.4007Y-2.0496
X6.4007Y-2.4488
X6.428Y-1.8496
X6.4579Y-2.25
X6.4673Y-1.8496
X6.4758Y-2.3496
X6.4758Y-2.9496
X6.481Y-1.9496
X6.4989Y-2.1476
X6.5509Y-2.3782
X6.5509Y-2.2874
X6.585Y-2.8496
X6.6773Y-3.202
X6.698Y-2.0059
X6.7345Y-3.2815
X6.9276Y-2.6256
X6.9882Y-2.5866
X7.1252Y-4.7846
X7.5469Y-1.6516
X7.6192Y-2.1661
X7.6213Y-2.5417
X7.6217Y-3.6665
X7.6228Y-2.9094
X8.3672Y-1.9634
X8.3673Y-1.4278
X8.3689Y-3.4811
X8.3724Y-2.7161
X9.113Y-1.3979
X9.113Y-1.7869
X9.1161Y-2.5369
X9.1181Y-3.2853
X9.8634Y-2.9117
X9.8634Y-3.6609
X9.8673Y-2.1575
X10.6252Y-4.1087
X10.7591Y-3.3622
T2
X5.3189Y-3.2815
X5.3189Y-3.3602
X6.4941Y-3.2027
X6.4941Y-3.2815
T3
X5.616Y-5.0007
X5.6364Y-4.9246
X5.6568Y-4.8486
X6.1654Y-4.8563
X6.1857Y-4.9323
X6.2061Y-5.0084
T4
X5.0189Y-1.8476
X5.0189Y-1.9476
X5.0189Y-2.0476
X5.0189Y-2.1476
X5.0189Y-2.2476
X5.0189Y-2.3476
X5.0189Y-2.4476
X5.0189Y-2.5476
X5.0189Y-2.6476
X5.0189Y-2.7476
X5.0189Y-2.8476
X5.0189Y-2.9476
X5.6189Y-1.8476
X5.6189Y-1.9476
X5.6189Y-2.0476
X5.6189Y-2.1476
X5.6189Y-2.2476
X5.6189Y-2.3476
X5.6189Y-2.4476
X5.6189Y-2.5476
X5.6189Y-2.6476
X5.6189Y-2.7476
X5.6189Y-2.8476
X5.6189Y-2.9476
X6.198Y-1.8496
X6.198Y-1.9496
X6.198Y-2.0496
X6.198Y-2.1496
X6.198Y-2.2496
X6.198Y-2.3496
X6.198Y-2.4496
X6.198Y-2.5496
X6.198Y-2.6496
X6.198Y-2.7496
X6.198Y-2.8496
X6.198Y-2.9496
X6.798Y-1.8496
X6.798Y-1.9496
X6.798Y-2.0496
X6.798Y-2.1496
X6.798Y-2.2496
X6.798Y-2.3496
X6.798Y-2.4496
X6.798Y-2.5496
X6.798Y-2.6496
X6.798Y-2.7496
X6.798Y-2.8496
X6.798Y-2.9496
T5
X5.7323Y-3.1535
X5.7323Y-3.4094
X6.0866Y-3.1535
X6.0866Y-3.4094
T6
X5.5947Y-5.0805
X5.6782Y-4.7687
X6.144Y-4.7764
X6.2275Y-5.0883
T7
X1.2006Y-3.272
X1.2255Y-3.1393
X1.3253Y-3.1157
X1.3305Y-4.0087
X1.3554Y-3.8759
X1.4294Y-3.1301
X1.4552Y-3.8523
X1.5041Y-3.1321
X1.5335Y-3.1629
X1.5593Y-3.8668
X1.634Y-3.8688
X1.6634Y-3.8996
X2.1039Y-2.7955
X2.1039Y-3.5435
X2.1048Y-2.0443
X2.1516Y-2.6691
X2.1516Y-3.4172
X2.1525Y-1.9179
X2.2539Y-2.6632
X2.2539Y-3.4113
X2.2548Y-1.912
X2.3539Y-2.6955
X2.3539Y-3.4435
X2.3548Y-1.9443
X2.4271Y-2.7105
X2.4271Y-3.4585
X2.4281Y-1.9592
X2.4508Y-2.7459
X2.4508Y-3.4939
X2.4517Y-1.9947
X2.852Y-1.6735
X2.852Y-2.4215
X2.852Y-3.1695
X2.8996Y-1.5471
X2.8996Y-2.2951
X2.8996Y-3.0432
X3.002Y-1.5412
X3.002Y-2.2892
X3.002Y-3.0372
X3.102Y-1.5735
X3.102Y-2.3215
X3.102Y-3.0695
X3.1752Y-1.5884
X3.1752Y-2.3365
X3.1752Y-3.0845
X3.1988Y-1.6239
X3.1988Y-2.3719
X3.1988Y-3.1199
X3.6Y-3.3565
X3.6Y-1.8605
X3.6Y-2.6085
X3.6476Y-3.2302
X3.6476Y-1.7341
X3.6476Y-2.4821
X3.75Y-3.2243
X3.75Y-1.7282
X3.75Y-2.4762
X3.85Y-3.2565
X3.85Y-1.7605
X3.85Y-2.5085
X3.9232Y-3.2715
X3.9232Y-1.7754
X3.9232Y-2.5235
X3.9468Y-3.3069
X3.9468Y-1.8109
X3.9468Y-2.5589
X4.1788Y-4.5792
X4.2575Y-4.4695
X4.348Y-2.0475
X4.348Y-2.7955
X4.348Y-3.5435
X4.3579Y-4.4902
X4.3957Y-1.9211
X4.3957Y-2.6691
X4.3957Y-3.4172
X4.4462Y-4.5473
X4.498Y-1.9152
X4.498Y-2.6632
X4.498Y-3.4113
X4.513Y-4.5807
X4.5267Y-4.6211
X4.598Y-1.9475
X4.598Y-2.6955
X4.598Y-3.4435
X4.6712Y-1.9624
X4.6712Y-2.7105
X4.6712Y-3.4585
X4.6949Y-1.9979
X4.6949Y-2.7459
X4.6949Y-3.4939
X4.9013Y-4.7728
X4.9801Y-4.6631
X5.0805Y-4.6839
X5.1687Y-4.7409
X5.2356Y-4.7743
X5.2492Y-4.8147
X6.6284Y-4.8514
X6.6417Y-4.717
X6.7391Y-4.6848
X6.844Y-4.6901
X6.9186Y-4.6856
X6.9506Y-4.7137
X7.1715Y-2.0485
X7.1715Y-2.7965
X7.1715Y-3.5445
X7.2192Y-1.9221
X7.2192Y-2.6701
X7.2192Y-3.4181
X7.3215Y-1.9162
X7.3215Y-2.6642
X7.3215Y-3.4122
X7.351Y-4.6578
X7.3643Y-4.5234
X7.4215Y-1.9485
X7.4215Y-2.6965
X7.4215Y-3.4445
X7.4616Y-4.4912
X7.4948Y-1.9634
X7.4948Y-2.7114
X7.4948Y-3.4595
X7.5184Y-1.9988
X7.5184Y-2.7469
X7.5184Y-3.4949
X7.5666Y-4.4965
X7.6412Y-4.492
X7.6731Y-4.5201
X7.9196Y-1.8614
X7.9196Y-2.6095
X7.9196Y-3.3575
X7.9672Y-1.7351
X7.9672Y-2.4831
X7.9672Y-3.2311
X8.0696Y-1.7292
X8.0696Y-2.4772
X8.0696Y-3.2252
X8.1696Y-1.7614
X8.1696Y-2.5095
X8.1696Y-3.2575
X8.2428Y-1.7764
X8.2428Y-2.5244
X8.2428Y-3.2725
X8.2664Y-1.8118
X8.2664Y-2.5599
X8.2664Y-3.3079
X8.6676Y-1.6744
X8.6676Y-2.4225
X8.6676Y-3.1705
X8.7152Y-1.5481
X8.7152Y-2.2961
X8.7152Y-3.0441
X8.8176Y-1.5422
X8.8176Y-2.2902
X8.8176Y-3.0382
X8.9176Y-1.5744
X8.9176Y-2.3225
X8.9176Y-3.0705
X8.9908Y-1.5894
X8.9908Y-2.3374
X8.9908Y-3.0855
X9.0144Y-1.6248
X9.0144Y-2.3729
X9.0144Y-3.1209
X9.4156Y-2.0485
X9.4156Y-2.7965
X9.4156Y-3.5445
X9.4633Y-1.9221
X9.4633Y-2.6701
X9.4633Y-3.4181
X9.5656Y-1.9162
X9.5656Y-2.6642
X9.5656Y-3.4122
X9.6656Y-1.9485
X9.6656Y-2.6965
X9.6656Y-3.4445
X9.7388Y-1.9634
X9.7388Y-2.7114
X9.7388Y-3.4595
X9.7625Y-1.9988
X9.7625Y-2.7469
X9.7625Y-3.4949
X10.1936Y-3.9575
X10.2625Y-3.8414
X10.3235Y-3.2209
X10.3643Y-3.8533
X10.3924Y-3.1047
X10.4572Y-3.9025
X10.4942Y-3.1166
X10.5267Y-3.9299
X10.5438Y-3.9689
X10.5871Y-3.1658
X10.6566Y-3.1933
X10.6737Y-3.2322
M30
