%TF.GenerationSoftware,KiCad,Pcbnew,8.0.4*%
%TF.CreationDate,2024-11-04T11:06:48+01:00*%
%TF.ProjectId,Whiplaesh_bottom,57686970-6c61-4657-9368-5f626f74746f,0.1*%
%TF.SameCoordinates,Original*%
%TF.FileFunction,Legend,Bot*%
%TF.FilePolarity,Positive*%
%FSLAX46Y46*%
G04 Gerber Fmt 4.6, Leading zero omitted, Abs format (unit mm)*
G04 Created by KiCad (PCBNEW 8.0.4) date 2024-11-04 11:06:48*
%MOMM*%
%LPD*%
G01*
G04 APERTURE LIST*
%ADD10C,0.000000*%
%ADD11C,2.300000*%
G04 APERTURE END LIST*
D10*
%TO.C,G\u002A\u002A\u002A*%
G36*
X119179979Y-48850663D02*
G01*
X121081451Y-50958762D01*
X122847062Y-53175504D01*
X124472486Y-55495320D01*
X125953397Y-57912639D01*
X127285470Y-60421892D01*
X128464379Y-63017507D01*
X129044296Y-64480138D01*
X129934497Y-67093015D01*
X130662026Y-69755015D01*
X131227024Y-72455913D01*
X131629628Y-75185486D01*
X131869980Y-77933513D01*
X131948218Y-80689770D01*
X131944428Y-80814441D01*
X131864482Y-83444034D01*
X131618911Y-86186082D01*
X131211645Y-88905691D01*
X130876463Y-90488994D01*
X130642824Y-91592639D01*
X129912587Y-94236702D01*
X129021074Y-96827658D01*
X127968423Y-99355283D01*
X127909335Y-99485805D01*
X127899456Y-99507626D01*
X127727621Y-99893478D01*
X127593212Y-100204578D01*
X127508453Y-100412260D01*
X127485563Y-100487858D01*
X127551443Y-100461437D01*
X127754961Y-100371191D01*
X128069792Y-100228364D01*
X128469553Y-100044937D01*
X128927860Y-99832892D01*
X129267135Y-99673841D01*
X131513808Y-98549197D01*
X133785097Y-97293194D01*
X136038354Y-95931436D01*
X138230933Y-94489527D01*
X140320187Y-92993072D01*
X140362456Y-92961382D01*
X140920811Y-92536519D01*
X141497960Y-92087062D01*
X142071016Y-91631732D01*
X142617094Y-91189252D01*
X143113307Y-90778344D01*
X143536770Y-90417730D01*
X143864596Y-90126133D01*
X144073901Y-89922275D01*
X144260175Y-89752718D01*
X144430529Y-89698925D01*
X144585259Y-89788197D01*
X144597520Y-89817058D01*
X144552407Y-89926687D01*
X144401492Y-90111626D01*
X144134228Y-90383947D01*
X143740067Y-90755726D01*
X142719877Y-91670591D01*
X141107553Y-93027179D01*
X139387016Y-94380333D01*
X137595985Y-95702483D01*
X135772179Y-96966061D01*
X133953316Y-98143498D01*
X132177115Y-99207225D01*
X131776925Y-99432061D01*
X131268119Y-99710097D01*
X130699369Y-100014845D01*
X130094639Y-100333990D01*
X129477892Y-100655213D01*
X128873091Y-100966199D01*
X128304201Y-101254631D01*
X127795184Y-101508193D01*
X127370004Y-101714566D01*
X127052625Y-101861436D01*
X126867010Y-101936485D01*
X126850122Y-101943652D01*
X126712524Y-102070509D01*
X126533997Y-102313321D01*
X126343283Y-102633820D01*
X126061075Y-103144346D01*
X126013904Y-103224156D01*
X125311582Y-104412430D01*
X124469261Y-105731584D01*
X123563399Y-107056859D01*
X122623284Y-108343305D01*
X122317556Y-108743924D01*
X121725165Y-109497430D01*
X121136314Y-110211917D01*
X120517280Y-110926801D01*
X119834340Y-111681498D01*
X119053771Y-112515425D01*
X117845370Y-113790030D01*
X120055145Y-113727839D01*
X120063021Y-113727618D01*
X121874512Y-113666349D01*
X123524106Y-113588807D01*
X125026195Y-113493948D01*
X126395170Y-113380730D01*
X127645421Y-113248110D01*
X128791340Y-113095047D01*
X128903954Y-113078223D01*
X129287137Y-113021000D01*
X129532457Y-112987891D01*
X129670324Y-112979034D01*
X129731149Y-112994568D01*
X129745343Y-113034629D01*
X129743317Y-113099356D01*
X129740880Y-113159776D01*
X129721191Y-113232451D01*
X129718353Y-113232788D01*
X129606993Y-113253012D01*
X129359974Y-113299929D01*
X129010756Y-113367142D01*
X128592794Y-113448251D01*
X127356324Y-113667718D01*
X125525688Y-113926119D01*
X123586287Y-114129124D01*
X121573656Y-114273180D01*
X120298590Y-114323899D01*
X119523328Y-114354737D01*
X117135743Y-114411745D01*
X116116011Y-115294005D01*
X115082025Y-116162012D01*
X112863533Y-117858745D01*
X110550088Y-119415125D01*
X108151360Y-120827098D01*
X105677022Y-122090612D01*
X103136744Y-123201615D01*
X100540199Y-124156054D01*
X97897059Y-124949877D01*
X95216994Y-125579030D01*
X92509678Y-126039462D01*
X89784780Y-126327120D01*
X89614173Y-126339611D01*
X89109117Y-126376585D01*
X88643794Y-126410643D01*
X88263804Y-126438448D01*
X88014745Y-126456664D01*
X87674025Y-126471227D01*
X87177789Y-126476961D01*
X86568605Y-126474013D01*
X85878954Y-126463285D01*
X85141313Y-126445679D01*
X84388163Y-126422098D01*
X83651982Y-126393442D01*
X82965250Y-126360614D01*
X82360446Y-126324515D01*
X81870049Y-126286048D01*
X81492780Y-126249435D01*
X78678816Y-125881106D01*
X75928322Y-125349494D01*
X73232522Y-124652073D01*
X72552900Y-124430030D01*
X79430076Y-124430030D01*
X80226592Y-124537894D01*
X80468815Y-124568845D01*
X80974874Y-124626687D01*
X81526440Y-124683302D01*
X82040878Y-124729943D01*
X82313206Y-124751739D01*
X82914855Y-124796557D01*
X83542839Y-124839907D01*
X84098543Y-124874845D01*
X85138439Y-124935561D01*
X85138439Y-124914338D01*
X86281803Y-124914338D01*
X87192525Y-124900175D01*
X87439265Y-124895514D01*
X87848025Y-124884374D01*
X88191168Y-124870940D01*
X88413003Y-124857175D01*
X88445530Y-124854226D01*
X88682085Y-124834238D01*
X89042274Y-124805075D01*
X89483153Y-124770180D01*
X89961784Y-124732996D01*
X92338025Y-124475471D01*
X94885054Y-124038915D01*
X97429304Y-123441718D01*
X99952088Y-122690677D01*
X102434723Y-121792588D01*
X104858523Y-120754249D01*
X107204803Y-119582456D01*
X109454879Y-118284006D01*
X111590065Y-116865694D01*
X111827525Y-116694683D01*
X112244314Y-116387996D01*
X112690813Y-116053038D01*
X113145564Y-115706561D01*
X113587112Y-115365317D01*
X113993998Y-115046057D01*
X114344766Y-114765534D01*
X114617959Y-114540499D01*
X114792120Y-114387703D01*
X114845793Y-114323899D01*
X114820407Y-114317179D01*
X114652848Y-114292213D01*
X114355764Y-114255222D01*
X113960374Y-114209996D01*
X113497898Y-114160324D01*
X111844854Y-113960427D01*
X109015187Y-113487723D01*
X106204126Y-112850695D01*
X103401286Y-112046545D01*
X100596286Y-111072477D01*
X97778742Y-109925694D01*
X97453540Y-109783747D01*
X97404782Y-110025524D01*
X97368068Y-110224139D01*
X97314377Y-110536534D01*
X97256922Y-110886812D01*
X97014733Y-112074214D01*
X96613180Y-113454914D01*
X96096315Y-114816205D01*
X95483101Y-116108861D01*
X94792505Y-117283658D01*
X94724923Y-117385588D01*
X93756342Y-118682871D01*
X92674513Y-119845408D01*
X91477399Y-120874775D01*
X90162963Y-121772548D01*
X88729169Y-122540304D01*
X87173979Y-123179619D01*
X86333212Y-123478995D01*
X86307508Y-124196667D01*
X86301617Y-124361141D01*
X86281803Y-124914338D01*
X85138439Y-124914338D01*
X85138439Y-124361141D01*
X85138439Y-123786721D01*
X84364048Y-123943698D01*
X83296656Y-124130800D01*
X82041119Y-124280491D01*
X80669101Y-124373251D01*
X79430076Y-124430030D01*
X72552900Y-124430030D01*
X70582641Y-123786316D01*
X67969902Y-122749697D01*
X65850871Y-121757562D01*
X70845407Y-121757562D01*
X71597672Y-121964568D01*
X71960431Y-122060343D01*
X72746119Y-122248449D01*
X73609783Y-122434750D01*
X74487350Y-122605744D01*
X75314745Y-122747927D01*
X75382933Y-122757859D01*
X75764686Y-122797903D01*
X76278361Y-122835057D01*
X76889676Y-122868343D01*
X77564349Y-122896783D01*
X78268098Y-122919398D01*
X78966641Y-122935210D01*
X79625695Y-122943241D01*
X80210979Y-122942511D01*
X80688211Y-122932043D01*
X81023108Y-122910857D01*
X81163340Y-122895134D01*
X82048467Y-122767151D01*
X83022245Y-122584424D01*
X84021626Y-122359765D01*
X84983561Y-122105987D01*
X84986353Y-122105119D01*
X85010319Y-122089322D01*
X85031634Y-122052480D01*
X85050453Y-121984846D01*
X85066930Y-121876672D01*
X85081221Y-121718211D01*
X85093479Y-121499716D01*
X85103860Y-121211439D01*
X85112518Y-120843633D01*
X85119608Y-120386550D01*
X85125285Y-119830443D01*
X85129703Y-119165565D01*
X85133017Y-118382168D01*
X85135381Y-117470504D01*
X85136951Y-116420826D01*
X85137881Y-115223388D01*
X85138325Y-113868441D01*
X85138422Y-112571620D01*
X86288961Y-112571620D01*
X86289384Y-113527727D01*
X86291171Y-114740513D01*
X86294269Y-115893350D01*
X86298578Y-116974532D01*
X86304001Y-117972354D01*
X86310439Y-118875111D01*
X86317796Y-119671097D01*
X86325972Y-120348606D01*
X86334869Y-120895934D01*
X86344390Y-121301375D01*
X86354437Y-121553223D01*
X86364911Y-121639774D01*
X86455498Y-121613598D01*
X86683574Y-121514376D01*
X87009524Y-121356597D01*
X87402242Y-121156692D01*
X87830626Y-120931093D01*
X88263569Y-120696234D01*
X88669969Y-120468546D01*
X89018719Y-120264462D01*
X89278717Y-120100415D01*
X89566277Y-119900626D01*
X90725908Y-118965262D01*
X91757507Y-117911992D01*
X92656865Y-116748549D01*
X93419773Y-115482663D01*
X94042023Y-114122066D01*
X94519405Y-112674489D01*
X94847710Y-111147663D01*
X95022730Y-109549319D01*
X95075926Y-108654335D01*
X94156137Y-108187838D01*
X93313123Y-107750573D01*
X91466634Y-106730598D01*
X89539592Y-105585443D01*
X87550111Y-104325701D01*
X86288961Y-103503465D01*
X86288961Y-112346238D01*
X86288961Y-112571620D01*
X85138422Y-112571620D01*
X85138439Y-112346238D01*
X85138170Y-110997591D01*
X85137110Y-109562037D01*
X85135154Y-108288223D01*
X85132210Y-107167886D01*
X85128185Y-106192762D01*
X85122984Y-105354589D01*
X85116513Y-104645102D01*
X85108680Y-104056041D01*
X85099390Y-103579140D01*
X85088549Y-103206137D01*
X85076065Y-102928769D01*
X85061843Y-102738773D01*
X85045790Y-102627886D01*
X85027812Y-102587845D01*
X84982819Y-102561104D01*
X84807741Y-102440525D01*
X84525453Y-102238103D01*
X84377232Y-102129902D01*
X86288961Y-102129902D01*
X86328006Y-102167905D01*
X86494114Y-102291193D01*
X86769522Y-102483130D01*
X87131256Y-102728432D01*
X87556345Y-103011811D01*
X88021814Y-103317984D01*
X88504690Y-103631663D01*
X88982001Y-103937562D01*
X89430773Y-104220397D01*
X90557805Y-104909411D01*
X91723859Y-105595898D01*
X92858696Y-106238579D01*
X93907478Y-106805784D01*
X94058155Y-106884711D01*
X94443300Y-107084008D01*
X94760609Y-107244688D01*
X94980585Y-107351950D01*
X95073732Y-107390994D01*
X95085685Y-107379290D01*
X95090715Y-107329644D01*
X97528683Y-107329644D01*
X97528683Y-108607749D01*
X97633337Y-108654335D01*
X98524327Y-109050955D01*
X100449425Y-109866589D01*
X102624686Y-110695591D01*
X104820715Y-111439680D01*
X107008773Y-112090368D01*
X109160123Y-112639165D01*
X111246025Y-113077583D01*
X113237742Y-113397133D01*
X113397563Y-113418217D01*
X113916374Y-113484596D01*
X114406655Y-113544515D01*
X114819466Y-113592096D01*
X115105862Y-113621462D01*
X115646457Y-113669282D01*
X116835984Y-112530672D01*
X117175581Y-112201662D01*
X118908435Y-110396686D01*
X120564710Y-108459237D01*
X122117889Y-106421797D01*
X123541455Y-104316849D01*
X123684944Y-104090826D01*
X123942803Y-103681210D01*
X124110463Y-103397906D01*
X124189992Y-103224156D01*
X124183455Y-103143201D01*
X124092918Y-103138279D01*
X123920448Y-103192633D01*
X123668110Y-103289502D01*
X123289376Y-103433866D01*
X120607673Y-104358311D01*
X117835688Y-105149593D01*
X115004063Y-105800548D01*
X112143443Y-106304009D01*
X109284471Y-106652812D01*
X108659115Y-106702822D01*
X107765809Y-106751792D01*
X106789762Y-106785070D01*
X105767981Y-106802649D01*
X104737471Y-106804518D01*
X103735238Y-106790669D01*
X102798288Y-106761094D01*
X101963628Y-106715783D01*
X101268263Y-106654728D01*
X101023865Y-106626323D01*
X100456542Y-106554629D01*
X99863240Y-106473105D01*
X99277574Y-106386951D01*
X98733159Y-106301369D01*
X98263609Y-106221560D01*
X97902538Y-106152725D01*
X97683561Y-106100065D01*
X97680154Y-106099018D01*
X97620537Y-106094532D01*
X97578936Y-106140008D01*
X97552150Y-106260850D01*
X97536979Y-106482467D01*
X97530223Y-106830263D01*
X97528932Y-107248878D01*
X97528683Y-107329644D01*
X95090715Y-107329644D01*
X95098899Y-107248878D01*
X95088919Y-106967468D01*
X95055327Y-106526956D01*
X94997702Y-105919240D01*
X94952057Y-105465257D01*
X94094203Y-105222773D01*
X93844144Y-105150815D01*
X92362664Y-104677735D01*
X90804097Y-104106203D01*
X89214171Y-103453816D01*
X87638613Y-102738176D01*
X87287406Y-102571768D01*
X86889469Y-102386660D01*
X86573135Y-102243525D01*
X86364325Y-102154045D01*
X86288961Y-102129902D01*
X84377232Y-102129902D01*
X84157166Y-101969255D01*
X83724092Y-101649394D01*
X83247441Y-101293936D01*
X82948665Y-101070252D01*
X82502489Y-100736808D01*
X82116304Y-100448923D01*
X81810506Y-100221768D01*
X81605492Y-100070511D01*
X81521657Y-100010324D01*
X81442977Y-100006343D01*
X81268827Y-100052023D01*
X81181022Y-100090586D01*
X81139352Y-100147540D01*
X81146821Y-100182508D01*
X81162031Y-100253717D01*
X81257177Y-100443768D01*
X81432910Y-100752342D01*
X81570640Y-101003258D01*
X81789097Y-101430016D01*
X82020555Y-101907334D01*
X82233371Y-102371216D01*
X82391360Y-102736902D01*
X82992420Y-104335521D01*
X83452026Y-105934825D01*
X83770324Y-107522722D01*
X83947458Y-109087126D01*
X83983574Y-110615946D01*
X83919700Y-111519052D01*
X83878817Y-112097094D01*
X83633332Y-113518481D01*
X83247266Y-114868019D01*
X82720762Y-116133617D01*
X82053966Y-117303189D01*
X81700936Y-117786016D01*
X81060613Y-118501097D01*
X80312477Y-119191526D01*
X79496200Y-119824662D01*
X78651457Y-120367861D01*
X77817922Y-120788483D01*
X77029160Y-121101992D01*
X76223691Y-121361369D01*
X75418285Y-121548864D01*
X74591688Y-121669275D01*
X74569817Y-121672461D01*
X73635160Y-121740145D01*
X72571191Y-121759899D01*
X70845407Y-121757562D01*
X65850871Y-121757562D01*
X65719159Y-121695894D01*
X70639808Y-121695894D01*
X70712655Y-121728276D01*
X70759507Y-121721889D01*
X70771656Y-121669275D01*
X70758684Y-121658683D01*
X70653654Y-121669275D01*
X70639808Y-121695894D01*
X65719159Y-121695894D01*
X65385532Y-121539689D01*
X63893563Y-120752419D01*
X61475856Y-119320290D01*
X59162033Y-117750682D01*
X56956890Y-116050146D01*
X54865218Y-114225235D01*
X54184030Y-113554635D01*
X59251679Y-113554635D01*
X59627162Y-114312678D01*
X59691164Y-114439885D01*
X59858966Y-114745022D01*
X60037304Y-115011766D01*
X60256904Y-115278788D01*
X60548494Y-115584757D01*
X60942803Y-115968343D01*
X61270070Y-116266979D01*
X61677205Y-116611932D01*
X62111171Y-116958018D01*
X62548829Y-117288746D01*
X62967040Y-117587625D01*
X63342663Y-117838163D01*
X63652559Y-118023869D01*
X63873589Y-118128250D01*
X63982614Y-118134816D01*
X64040221Y-118051196D01*
X64183240Y-117831785D01*
X64401625Y-117492084D01*
X64685797Y-117047126D01*
X65026177Y-116511944D01*
X65413187Y-115901570D01*
X65837248Y-115231039D01*
X66288782Y-114515384D01*
X66729390Y-113816609D01*
X67151310Y-113148201D01*
X67535179Y-112540808D01*
X67871623Y-112009227D01*
X68151268Y-111568256D01*
X68364740Y-111232690D01*
X68502667Y-111017327D01*
X68555673Y-110936963D01*
X68578250Y-110928830D01*
X68677363Y-110984413D01*
X68676099Y-111093839D01*
X68588543Y-111349130D01*
X68416159Y-111741033D01*
X68162075Y-112261788D01*
X67950514Y-112692484D01*
X67623999Y-113431760D01*
X67389973Y-114096454D01*
X67236985Y-114728679D01*
X67153589Y-115370545D01*
X67128334Y-116064164D01*
X67128390Y-116139141D01*
X67133565Y-116575852D01*
X67152583Y-116891235D01*
X67193094Y-117133951D01*
X67262752Y-117352665D01*
X67369207Y-117596038D01*
X67620804Y-118030343D01*
X68102627Y-118587838D01*
X68713874Y-119070841D01*
X69429858Y-119460833D01*
X70225895Y-119739293D01*
X70434223Y-119784910D01*
X70931448Y-119854712D01*
X71513396Y-119900728D01*
X72120426Y-119920317D01*
X72692895Y-119910839D01*
X73171161Y-119869655D01*
X73794471Y-119765624D01*
X75060703Y-119447658D01*
X76242389Y-119003465D01*
X77325630Y-118440852D01*
X78296530Y-117767625D01*
X79141189Y-116991592D01*
X79845708Y-116120558D01*
X79961671Y-115945980D01*
X80474439Y-114987393D01*
X80854862Y-113923337D01*
X81102966Y-112763870D01*
X81218777Y-111519052D01*
X81202323Y-110198943D01*
X81053630Y-108813602D01*
X80772725Y-107373088D01*
X80359636Y-105887462D01*
X79814387Y-104366782D01*
X79770245Y-104257933D01*
X79586870Y-103832551D01*
X79367378Y-103353975D01*
X79127246Y-102852890D01*
X78881950Y-102359981D01*
X78646966Y-101905933D01*
X78437770Y-101521432D01*
X78269836Y-101237163D01*
X78158642Y-101083810D01*
X78090765Y-101066161D01*
X77860941Y-101078714D01*
X77493042Y-101134412D01*
X77006333Y-101230796D01*
X76194352Y-101396875D01*
X74499628Y-101687682D01*
X72778595Y-101904756D01*
X71187420Y-102036638D01*
X70984231Y-102053479D01*
X69069515Y-102139233D01*
X67009961Y-102197239D01*
X64015838Y-105423402D01*
X63751709Y-105708001D01*
X62988029Y-106531117D01*
X62332658Y-107238483D01*
X61776409Y-107840756D01*
X61310093Y-108348591D01*
X60924523Y-108772643D01*
X60610511Y-109123569D01*
X60358868Y-109412023D01*
X60160406Y-109648660D01*
X60005938Y-109844137D01*
X59886275Y-110009109D01*
X59792229Y-110154232D01*
X59714611Y-110290160D01*
X59644235Y-110427550D01*
X59571912Y-110577056D01*
X59544768Y-110633678D01*
X59423022Y-110896404D01*
X59340984Y-111111829D01*
X59290785Y-111324813D01*
X59264556Y-111580216D01*
X59254426Y-111922901D01*
X59252527Y-112397727D01*
X59251679Y-113554635D01*
X54184030Y-113554635D01*
X52891812Y-112282502D01*
X51041464Y-110228498D01*
X49318967Y-108069778D01*
X47729115Y-105812892D01*
X46276701Y-103464394D01*
X44966518Y-101030836D01*
X43803359Y-98518770D01*
X42792018Y-95934749D01*
X41937287Y-93285326D01*
X41243960Y-90577053D01*
X41183367Y-90259728D01*
X42746104Y-90259728D01*
X42746298Y-90262810D01*
X42770348Y-90381717D01*
X42828835Y-90634040D01*
X42913502Y-90984916D01*
X43016089Y-91399480D01*
X43240476Y-92257656D01*
X44021456Y-94805057D01*
X44974359Y-97348985D01*
X45018678Y-97455599D01*
X45165016Y-97792543D01*
X45346941Y-98196188D01*
X45553475Y-98643794D01*
X45773642Y-99112618D01*
X45996465Y-99579921D01*
X46210967Y-100022961D01*
X46406171Y-100418998D01*
X46571100Y-100745289D01*
X46694777Y-100979096D01*
X46766226Y-101097675D01*
X46774469Y-101078288D01*
X46679151Y-100726589D01*
X46433172Y-99667254D01*
X46241769Y-98598577D01*
X46108687Y-97554647D01*
X46048524Y-96720072D01*
X47801657Y-96720072D01*
X47807924Y-97205726D01*
X47827713Y-97742862D01*
X47859340Y-98293524D01*
X47901119Y-98819754D01*
X47951367Y-99283595D01*
X48008399Y-99647091D01*
X48173823Y-100416495D01*
X48351727Y-101078288D01*
X48577807Y-101919292D01*
X49058188Y-103270211D01*
X49613429Y-104464640D01*
X49717114Y-104656145D01*
X50331815Y-105667047D01*
X51014835Y-106604494D01*
X51749126Y-107451778D01*
X52517641Y-108192187D01*
X53303331Y-108809012D01*
X54089146Y-109285544D01*
X54858040Y-109605072D01*
X55189460Y-109690206D01*
X55964665Y-109764473D01*
X56764181Y-109683818D01*
X57560192Y-109455071D01*
X58324880Y-109085062D01*
X59030425Y-108580623D01*
X59158947Y-108461097D01*
X59409157Y-108212417D01*
X59752485Y-107861423D01*
X60174469Y-107423231D01*
X60660649Y-106912956D01*
X61196564Y-106345713D01*
X61767753Y-105736615D01*
X62359755Y-105100778D01*
X65202326Y-102036638D01*
X63997037Y-101890177D01*
X62577489Y-101690705D01*
X60940278Y-101372875D01*
X67753387Y-101372875D01*
X69210896Y-101359615D01*
X69530207Y-101356053D01*
X70018107Y-101348037D01*
X70439172Y-101338044D01*
X70756680Y-101327006D01*
X70933909Y-101315857D01*
X71066276Y-101301459D01*
X71361990Y-101270796D01*
X71747404Y-101231791D01*
X72172933Y-101189500D01*
X72194912Y-101187320D01*
X72737240Y-101125635D01*
X73349853Y-101043348D01*
X74005448Y-100945365D01*
X74676723Y-100836589D01*
X75336378Y-100721924D01*
X75957109Y-100606272D01*
X76511615Y-100494538D01*
X76972595Y-100391624D01*
X77312745Y-100302436D01*
X77504766Y-100231875D01*
X77517241Y-100182508D01*
X77445331Y-100011865D01*
X77277748Y-99741456D01*
X77028923Y-99389600D01*
X76713288Y-98974612D01*
X76345277Y-98514810D01*
X75970856Y-98066284D01*
X86292925Y-98066284D01*
X86317295Y-98209469D01*
X86478258Y-98379709D01*
X86783588Y-98593282D01*
X87241055Y-98866465D01*
X87768171Y-99164982D01*
X89687064Y-100174944D01*
X91606907Y-101068261D01*
X93485765Y-101825064D01*
X93594146Y-101864796D01*
X93905885Y-101975048D01*
X94140317Y-102051979D01*
X94253336Y-102080889D01*
X94272160Y-102014583D01*
X94236073Y-101795529D01*
X94143923Y-101436127D01*
X93999406Y-100949503D01*
X93806217Y-100348783D01*
X93568052Y-99647091D01*
X93518485Y-99505513D01*
X93285071Y-98867524D01*
X93031965Y-98215499D01*
X92768290Y-97569400D01*
X92503173Y-96949190D01*
X92245740Y-96374831D01*
X92005115Y-95866285D01*
X91790425Y-95443515D01*
X91610793Y-95126485D01*
X91475347Y-94935155D01*
X91393212Y-94889489D01*
X91351568Y-94916771D01*
X91176365Y-95032557D01*
X90897123Y-95217616D01*
X90541909Y-95453341D01*
X90138787Y-95721127D01*
X89839786Y-95917600D01*
X89157456Y-96351667D01*
X88464492Y-96775184D01*
X87799649Y-97165193D01*
X87201682Y-97498734D01*
X86709345Y-97752847D01*
X86622880Y-97795969D01*
X86397377Y-97933877D01*
X86292925Y-98066284D01*
X75970856Y-98066284D01*
X75939322Y-98028509D01*
X75509855Y-97534026D01*
X75071310Y-97049678D01*
X74638118Y-96593781D01*
X74546306Y-96500058D01*
X74174352Y-96124982D01*
X73849641Y-95804766D01*
X73591070Y-95557559D01*
X73417535Y-95401507D01*
X73347932Y-95354757D01*
X73279377Y-95431846D01*
X73102573Y-95625685D01*
X72834997Y-95917038D01*
X72492311Y-96288994D01*
X72090180Y-96724642D01*
X71883924Y-96947788D01*
X71644264Y-97207073D01*
X71170228Y-97719376D01*
X70683733Y-98244641D01*
X70200442Y-98765959D01*
X69736019Y-99266418D01*
X69306125Y-99729109D01*
X68926424Y-100137122D01*
X68612578Y-100473547D01*
X68380250Y-100721473D01*
X68245103Y-100863990D01*
X67753387Y-101372875D01*
X60940278Y-101372875D01*
X60145791Y-101218642D01*
X57787580Y-100592064D01*
X55508771Y-99813092D01*
X53315281Y-98883851D01*
X51213026Y-97806462D01*
X49207921Y-96583049D01*
X49131796Y-96532584D01*
X50123445Y-96532584D01*
X50154881Y-96574649D01*
X50317518Y-96686966D01*
X50593686Y-96853140D01*
X50958364Y-97059592D01*
X51386526Y-97292737D01*
X51853151Y-97538996D01*
X52333214Y-97784786D01*
X52801692Y-98016526D01*
X53233561Y-98220633D01*
X54858936Y-98914578D01*
X57145029Y-99729178D01*
X59486702Y-100384099D01*
X61862765Y-100873626D01*
X64252028Y-101192044D01*
X64613434Y-101227426D01*
X65020957Y-101268384D01*
X65349681Y-101302584D01*
X65550898Y-101325037D01*
X65596406Y-101328953D01*
X65677986Y-101321726D01*
X65770915Y-101285399D01*
X65888750Y-101207320D01*
X66045046Y-101074842D01*
X66253362Y-100875313D01*
X66527253Y-100596085D01*
X66880277Y-100224508D01*
X67325990Y-99747932D01*
X67877949Y-99153708D01*
X68256891Y-98744410D01*
X68705943Y-98257343D01*
X69101944Y-97825520D01*
X69431377Y-97463796D01*
X69680724Y-97187029D01*
X69836468Y-97010074D01*
X69885091Y-96947788D01*
X69791158Y-96970828D01*
X69574599Y-97033284D01*
X69283824Y-97121337D01*
X68170552Y-97431917D01*
X66397313Y-97808515D01*
X64502510Y-98079350D01*
X62499640Y-98242636D01*
X60402202Y-98296587D01*
X60098459Y-98295297D01*
X58021775Y-98222635D01*
X56074928Y-98037836D01*
X54250763Y-97739767D01*
X52542128Y-97327298D01*
X50941868Y-96799295D01*
X50739282Y-96724049D01*
X50431855Y-96616235D01*
X50214033Y-96548326D01*
X50123445Y-96532584D01*
X49131796Y-96532584D01*
X47923456Y-95731551D01*
X47846907Y-96007788D01*
X47836424Y-96055039D01*
X47810596Y-96323858D01*
X47801657Y-96720072D01*
X46048524Y-96720072D01*
X46037673Y-96569555D01*
X46032473Y-95677392D01*
X46096835Y-94912248D01*
X46193371Y-94248485D01*
X45492999Y-93604275D01*
X45181360Y-93296507D01*
X48587219Y-93296507D01*
X48645823Y-93381204D01*
X48841014Y-93537593D01*
X49149798Y-93743293D01*
X49547999Y-93983156D01*
X50011437Y-94242037D01*
X50515935Y-94504788D01*
X51790397Y-95077331D01*
X53356170Y-95627215D01*
X55047926Y-96073013D01*
X56854548Y-96411844D01*
X58764920Y-96640830D01*
X59375997Y-96687629D01*
X60624272Y-96745119D01*
X61923222Y-96760175D01*
X63228064Y-96734034D01*
X64494011Y-96667934D01*
X65676277Y-96563112D01*
X66730076Y-96420804D01*
X67248407Y-96325612D01*
X67915082Y-96182268D01*
X68619016Y-96012746D01*
X69324990Y-95826773D01*
X69997786Y-95634077D01*
X70602185Y-95444388D01*
X71102969Y-95267432D01*
X71464920Y-95112939D01*
X71524254Y-95081239D01*
X71756514Y-94927460D01*
X71980932Y-94743699D01*
X72150244Y-94571467D01*
X72217184Y-94452271D01*
X72207256Y-94430508D01*
X72088553Y-94311503D01*
X71854122Y-94117837D01*
X71527237Y-93866286D01*
X71131177Y-93573632D01*
X70689216Y-93256654D01*
X70224631Y-92932131D01*
X69760699Y-92616842D01*
X69320695Y-92327567D01*
X68927896Y-92081085D01*
X67384397Y-91201241D01*
X67090528Y-91055255D01*
X77348272Y-91055255D01*
X77858164Y-91577663D01*
X77924664Y-91645481D01*
X78633284Y-92338121D01*
X79452004Y-93092970D01*
X80345483Y-93880060D01*
X81021739Y-94452271D01*
X81278380Y-94669427D01*
X82215353Y-95431104D01*
X83121061Y-96135126D01*
X83960163Y-96751528D01*
X83981667Y-96766736D01*
X84336029Y-97009450D01*
X84645656Y-97207656D01*
X84877887Y-97341293D01*
X85000059Y-97390297D01*
X85016135Y-97386276D01*
X85041488Y-97354416D01*
X85063090Y-97280451D01*
X85081225Y-97152117D01*
X85096174Y-96957151D01*
X85108221Y-96683289D01*
X85117646Y-96318268D01*
X85124732Y-95849824D01*
X85129761Y-95265695D01*
X85133016Y-94553617D01*
X85134778Y-93701327D01*
X85135330Y-92696561D01*
X85134954Y-91527056D01*
X85132274Y-87019367D01*
X86288961Y-87019367D01*
X86288961Y-91850825D01*
X86289370Y-92386875D01*
X86290254Y-92696561D01*
X86291870Y-93262602D01*
X86296452Y-94073532D01*
X86302896Y-94803637D01*
X86310982Y-95436887D01*
X86320489Y-95957253D01*
X86331198Y-96348704D01*
X86342887Y-96595211D01*
X86355338Y-96680746D01*
X86376957Y-96676160D01*
X86537047Y-96600750D01*
X86812401Y-96444540D01*
X87179443Y-96222745D01*
X87614597Y-95950581D01*
X88094287Y-95643264D01*
X88594936Y-95316009D01*
X89092969Y-94984033D01*
X89564809Y-94662552D01*
X89986880Y-94366780D01*
X90335605Y-94111934D01*
X90886431Y-93696705D01*
X90477628Y-93009460D01*
X93816628Y-93009460D01*
X94148930Y-93696705D01*
X94263445Y-93933537D01*
X94723339Y-94922482D01*
X95480901Y-96746484D01*
X96129422Y-98579073D01*
X96656584Y-100384031D01*
X97025080Y-102014583D01*
X97050065Y-102125140D01*
X97085355Y-102308786D01*
X97148946Y-102628612D01*
X97196847Y-102854713D01*
X97220721Y-102946943D01*
X97221163Y-102947376D01*
X97316107Y-102975654D01*
X97548888Y-103031730D01*
X97885387Y-103107681D01*
X98291484Y-103195585D01*
X99465663Y-103419316D01*
X101318264Y-103680454D01*
X103237045Y-103846901D01*
X103870468Y-103882615D01*
X104443198Y-103907493D01*
X104971960Y-103919839D01*
X105500856Y-103919614D01*
X106073990Y-103906781D01*
X106735463Y-103881300D01*
X107529379Y-103843132D01*
X108091461Y-103810893D01*
X110198421Y-103622853D01*
X112217463Y-103335105D01*
X114140449Y-102950596D01*
X115959239Y-102472272D01*
X116435235Y-102313503D01*
X122757804Y-102313503D01*
X122772479Y-102334390D01*
X122928683Y-102283794D01*
X122938235Y-102280298D01*
X123089626Y-102224968D01*
X123366035Y-102124006D01*
X123731504Y-101990546D01*
X124150070Y-101837721D01*
X125238704Y-101440273D01*
X125683240Y-100554432D01*
X125737455Y-100446306D01*
X125968455Y-99979511D01*
X126114885Y-99661690D01*
X126173763Y-99485805D01*
X126142104Y-99444813D01*
X126016927Y-99531675D01*
X125795248Y-99739351D01*
X125474084Y-100060799D01*
X125168544Y-100357273D01*
X124695569Y-100785658D01*
X124206672Y-101200895D01*
X123769449Y-101544164D01*
X123750896Y-101557892D01*
X123406615Y-101813570D01*
X123113031Y-102033257D01*
X122900744Y-102193951D01*
X122800355Y-102272649D01*
X122757804Y-102313503D01*
X116435235Y-102313503D01*
X117665696Y-101903081D01*
X119251682Y-101245968D01*
X120709058Y-100503880D01*
X122029685Y-99679763D01*
X123205426Y-98776565D01*
X124228142Y-97797232D01*
X124237259Y-97787399D01*
X125131979Y-96698429D01*
X125868920Y-95542312D01*
X126448497Y-94331179D01*
X126871128Y-93077161D01*
X127137229Y-91792389D01*
X127247217Y-90488994D01*
X127201507Y-89179106D01*
X127000518Y-87874857D01*
X126644665Y-86588376D01*
X126134365Y-85331796D01*
X125470034Y-84117246D01*
X124652089Y-82956858D01*
X123680947Y-81862763D01*
X122692364Y-80952164D01*
X121411399Y-79985445D01*
X120003018Y-79132956D01*
X118465252Y-78393874D01*
X116796131Y-77767376D01*
X114993686Y-77252639D01*
X113055948Y-76848840D01*
X110980947Y-76555156D01*
X110858958Y-76542072D01*
X110319718Y-76493094D01*
X109704886Y-76448493D01*
X109045969Y-76409482D01*
X108374468Y-76377272D01*
X107721889Y-76353078D01*
X107119737Y-76338112D01*
X106599514Y-76333588D01*
X106192726Y-76340717D01*
X105930876Y-76360714D01*
X105762685Y-76388997D01*
X105619833Y-76440077D01*
X105515058Y-76544010D01*
X105441056Y-76685755D01*
X105413793Y-76737975D01*
X105281468Y-77059149D01*
X105087251Y-77520295D01*
X104790236Y-78178453D01*
X104442315Y-78912961D01*
X104064117Y-79681993D01*
X103676271Y-80443722D01*
X103299404Y-81156322D01*
X102954147Y-81777968D01*
X102934329Y-81812476D01*
X101487451Y-84168391D01*
X99928879Y-86398047D01*
X98263590Y-88495174D01*
X96496559Y-90453501D01*
X94632760Y-92266758D01*
X93816628Y-93009460D01*
X90477628Y-93009460D01*
X90287195Y-92689320D01*
X90201466Y-92546095D01*
X89567377Y-91530832D01*
X88860726Y-90465001D01*
X88118235Y-89401402D01*
X87376628Y-88392839D01*
X86672627Y-87492114D01*
X86288961Y-87019367D01*
X85132274Y-87019367D01*
X85131468Y-85663816D01*
X84578124Y-85057324D01*
X84024780Y-84450832D01*
X83408961Y-84954423D01*
X83204059Y-85123681D01*
X82638514Y-85609604D01*
X82061284Y-86135098D01*
X81452340Y-86719690D01*
X80791652Y-87382903D01*
X80059189Y-88144264D01*
X79234922Y-89023298D01*
X77348272Y-91055255D01*
X67090528Y-91055255D01*
X65719935Y-90374381D01*
X64056886Y-89670028D01*
X62422253Y-89099561D01*
X60843038Y-88674356D01*
X59771187Y-88471286D01*
X58394821Y-88324522D01*
X57048117Y-88306199D01*
X55745692Y-88412663D01*
X54502163Y-88640254D01*
X53332148Y-88985318D01*
X52250265Y-89444196D01*
X51271132Y-90013231D01*
X50409365Y-90688768D01*
X49679583Y-91467149D01*
X49652703Y-91501269D01*
X49419472Y-91819242D01*
X49178954Y-92179190D01*
X48953310Y-92544001D01*
X48764700Y-92876565D01*
X48635283Y-93139771D01*
X48587219Y-93296507D01*
X45181360Y-93296507D01*
X44833262Y-92952733D01*
X43961190Y-91947647D01*
X43200430Y-90896189D01*
X43082081Y-90716666D01*
X42909207Y-90463477D01*
X42790325Y-90301512D01*
X42746104Y-90259728D01*
X41183367Y-90259728D01*
X40716830Y-87816482D01*
X40677746Y-87568683D01*
X40559725Y-86787408D01*
X40463642Y-86080469D01*
X40387373Y-85416457D01*
X40328792Y-84763964D01*
X40285773Y-84091581D01*
X40263056Y-83535842D01*
X43141799Y-83535842D01*
X43157778Y-84257713D01*
X43210618Y-84930849D01*
X43300888Y-85503775D01*
X43610346Y-86664375D01*
X44075068Y-87914114D01*
X44651112Y-89091946D01*
X45319034Y-90153072D01*
X45412506Y-90281556D01*
X45729345Y-90696895D01*
X46064006Y-91112210D01*
X46357975Y-91454219D01*
X46872493Y-92023019D01*
X47240206Y-91353027D01*
X47796396Y-90462866D01*
X48599446Y-89472285D01*
X49532300Y-88585473D01*
X50583864Y-87807836D01*
X51743045Y-87144780D01*
X52998749Y-86601709D01*
X54339882Y-86184031D01*
X55755351Y-85897149D01*
X57234061Y-85746471D01*
X58764920Y-85737401D01*
X59514237Y-85784226D01*
X61215984Y-86003162D01*
X62959422Y-86376340D01*
X64724585Y-86898221D01*
X66491505Y-87563265D01*
X68240214Y-88365933D01*
X69150528Y-88822750D01*
X68891696Y-88512201D01*
X68805427Y-88410658D01*
X68595250Y-88168035D01*
X68310961Y-87843069D01*
X67978700Y-87465604D01*
X67624607Y-87065486D01*
X66150880Y-85349610D01*
X64488438Y-83279262D01*
X62889633Y-81143949D01*
X61379025Y-78977808D01*
X59981175Y-76814979D01*
X58720645Y-74689600D01*
X58688382Y-74632491D01*
X58446164Y-74203798D01*
X58217891Y-73799878D01*
X58027932Y-73463846D01*
X57900656Y-73238817D01*
X57680635Y-72850055D01*
X56740373Y-72907989D01*
X55822361Y-72988971D01*
X54708957Y-73138900D01*
X53596269Y-73337774D01*
X52569798Y-73571982D01*
X52109881Y-73696416D01*
X50611993Y-74185708D01*
X49252526Y-74770437D01*
X48019274Y-75457156D01*
X46900029Y-76252422D01*
X45882584Y-77162787D01*
X45382676Y-77689128D01*
X44688170Y-78549605D01*
X44131959Y-79437393D01*
X43691888Y-80389880D01*
X43345808Y-81444457D01*
X43309326Y-81592576D01*
X43218142Y-82151798D01*
X43162110Y-82816711D01*
X43141799Y-83535842D01*
X40263056Y-83535842D01*
X40256191Y-83367898D01*
X40237922Y-82561507D01*
X40228839Y-81640999D01*
X40226817Y-80574966D01*
X40227342Y-80203708D01*
X40232634Y-79200117D01*
X40245040Y-78339639D01*
X41786033Y-78339639D01*
X41788331Y-78453911D01*
X41789388Y-78456485D01*
X41842023Y-78423176D01*
X41944337Y-78262793D01*
X42075227Y-78008126D01*
X42477736Y-77278721D01*
X43116922Y-76386417D01*
X43900216Y-75508506D01*
X44809699Y-74658993D01*
X45827451Y-73851884D01*
X46935553Y-73101184D01*
X47375573Y-72847621D01*
X58935294Y-72847621D01*
X59616454Y-74034115D01*
X59813297Y-74374797D01*
X61623582Y-77323953D01*
X63592114Y-80220233D01*
X65704373Y-83043175D01*
X67945841Y-85772321D01*
X68221374Y-86091018D01*
X68525283Y-86438379D01*
X68775435Y-86719654D01*
X68951461Y-86911981D01*
X69032992Y-86992498D01*
X69029613Y-86972344D01*
X68949062Y-86836187D01*
X68791715Y-86593531D01*
X68572487Y-86267209D01*
X68306294Y-85880053D01*
X67681895Y-84949082D01*
X66933068Y-83755462D01*
X66183712Y-82483763D01*
X65447639Y-81161082D01*
X64738662Y-79814517D01*
X64070590Y-78471164D01*
X63457238Y-77158121D01*
X62912416Y-75902487D01*
X62449936Y-74731357D01*
X62180172Y-73951115D01*
X66567347Y-73951115D01*
X66726504Y-74408859D01*
X67291510Y-75908778D01*
X68108505Y-77780945D01*
X69053758Y-79682826D01*
X70111013Y-81586847D01*
X71264018Y-83465436D01*
X72496517Y-85291019D01*
X73759939Y-86992498D01*
X73792258Y-87036023D01*
X75134984Y-88672875D01*
X75265837Y-88822750D01*
X75328900Y-88894980D01*
X75642112Y-89248436D01*
X75932489Y-89571042D01*
X76347323Y-90026700D01*
X79348978Y-86795755D01*
X79435819Y-86702264D01*
X80028022Y-86063812D01*
X80585991Y-85460752D01*
X81097382Y-84906528D01*
X81549847Y-84414587D01*
X81931042Y-83998374D01*
X82228619Y-83671333D01*
X82430232Y-83446911D01*
X82523537Y-83338552D01*
X82696440Y-83112294D01*
X82258032Y-82718451D01*
X82141346Y-82615065D01*
X86605597Y-82615065D01*
X86622050Y-82721082D01*
X86746351Y-82922025D01*
X86899097Y-83112294D01*
X86960897Y-83189276D01*
X88471715Y-84982871D01*
X90011322Y-86966108D01*
X91389851Y-88923582D01*
X92613195Y-90863293D01*
X92802317Y-91173306D01*
X92988640Y-91460029D01*
X93128626Y-91654538D01*
X93201384Y-91726185D01*
X93215838Y-91721455D01*
X93339241Y-91627912D01*
X93558529Y-91429452D01*
X93854474Y-91145641D01*
X94207848Y-90796047D01*
X94599424Y-90400236D01*
X95009973Y-89977775D01*
X95420269Y-89548231D01*
X95811084Y-89131171D01*
X96163190Y-88746161D01*
X96457360Y-88412769D01*
X97855301Y-86685831D01*
X99330257Y-84619533D01*
X100682505Y-82452029D01*
X101895560Y-80209946D01*
X102952938Y-77919913D01*
X102976614Y-77863887D01*
X103177593Y-77386375D01*
X103315352Y-77046424D01*
X103394606Y-76820671D01*
X103420071Y-76685755D01*
X103396462Y-76618313D01*
X103328494Y-76594984D01*
X103220883Y-76592405D01*
X103217490Y-76592420D01*
X103030526Y-76607179D01*
X102713888Y-76645707D01*
X102310996Y-76702279D01*
X101865268Y-76771169D01*
X100188740Y-77077906D01*
X97607705Y-77694638D01*
X95086220Y-78476051D01*
X92630766Y-79420051D01*
X90247825Y-80524542D01*
X89969957Y-80666970D01*
X89562121Y-80882662D01*
X89465696Y-80933658D01*
X88932390Y-81224093D01*
X88396544Y-81523066D01*
X87884664Y-81815369D01*
X87423253Y-82085793D01*
X87038818Y-82319131D01*
X86757862Y-82500173D01*
X86606890Y-82613711D01*
X86605597Y-82615065D01*
X82141346Y-82615065D01*
X81949028Y-82444668D01*
X81292064Y-81881535D01*
X80586721Y-81297567D01*
X79877152Y-80728474D01*
X79207513Y-80209966D01*
X78621956Y-79777755D01*
X76942788Y-78647992D01*
X75027907Y-77504365D01*
X73045395Y-76459834D01*
X71028528Y-75530737D01*
X69010585Y-74733411D01*
X67024844Y-74084195D01*
X66567347Y-73951115D01*
X62180172Y-73951115D01*
X62083611Y-73671830D01*
X62012628Y-73465935D01*
X61907696Y-73215028D01*
X61822963Y-73070639D01*
X61815451Y-73063754D01*
X61674281Y-73011817D01*
X61385400Y-72968263D01*
X60939068Y-72931995D01*
X60325547Y-72901915D01*
X58935294Y-72847621D01*
X47375573Y-72847621D01*
X48116085Y-72420899D01*
X49351127Y-71825035D01*
X50622759Y-71327597D01*
X50889756Y-71238403D01*
X51546666Y-71038490D01*
X52265926Y-70841617D01*
X53014550Y-70655063D01*
X53759546Y-70486105D01*
X54467928Y-70342020D01*
X55106705Y-70230086D01*
X55642889Y-70157579D01*
X56043491Y-70131777D01*
X56210447Y-70110904D01*
X56286871Y-70055635D01*
X56273627Y-70006751D01*
X56200603Y-69820411D01*
X56078055Y-69536178D01*
X55922328Y-69192743D01*
X55491884Y-68233188D01*
X54639659Y-66142048D01*
X53847494Y-63937313D01*
X53127379Y-61658262D01*
X52491304Y-59344172D01*
X51951259Y-57034323D01*
X51519233Y-54767993D01*
X51459436Y-54418659D01*
X51379484Y-53974906D01*
X51309982Y-53615566D01*
X51256828Y-53370753D01*
X51225921Y-53270578D01*
X51194199Y-53287217D01*
X51071304Y-53416759D01*
X50875504Y-53652628D01*
X50625460Y-53972043D01*
X50339833Y-54352224D01*
X49216635Y-55946473D01*
X47736845Y-58304161D01*
X46416051Y-60738161D01*
X45255532Y-63245074D01*
X44256569Y-65821503D01*
X43420440Y-68464051D01*
X42748426Y-71169320D01*
X42241806Y-73933914D01*
X41901860Y-76754434D01*
X41860190Y-77237559D01*
X41823953Y-77701668D01*
X41798571Y-78078960D01*
X41786033Y-78339639D01*
X40245040Y-78339639D01*
X40245148Y-78332131D01*
X40266998Y-77568766D01*
X40300293Y-76879039D01*
X40347145Y-76231968D01*
X40409667Y-75596569D01*
X40489969Y-74941859D01*
X40590164Y-74236856D01*
X40712362Y-73450575D01*
X41153978Y-71092404D01*
X41820835Y-68387940D01*
X42648793Y-65728136D01*
X43632548Y-63125697D01*
X44766801Y-60593328D01*
X46046247Y-58143734D01*
X47465586Y-55789622D01*
X49019516Y-53543695D01*
X49047206Y-53506307D01*
X49342152Y-53108547D01*
X49541352Y-52832745D01*
X49651255Y-52658334D01*
X49678305Y-52564742D01*
X49628950Y-52531401D01*
X49509635Y-52537740D01*
X49326809Y-52563190D01*
X48013454Y-52757179D01*
X45752271Y-53188463D01*
X43578782Y-53729018D01*
X41509115Y-54374116D01*
X39559397Y-55119029D01*
X37745756Y-55959026D01*
X37571901Y-56047499D01*
X37178897Y-56247200D01*
X36854188Y-56411787D01*
X36627574Y-56526169D01*
X36528857Y-56575255D01*
X36498314Y-56574988D01*
X36462481Y-56479098D01*
X36513226Y-56402190D01*
X36709770Y-56255718D01*
X37035565Y-56062335D01*
X37470625Y-55831361D01*
X37994966Y-55572116D01*
X38588602Y-55293919D01*
X39231547Y-55006092D01*
X39903818Y-54717953D01*
X40585427Y-54438823D01*
X41256391Y-54178022D01*
X41896724Y-53944870D01*
X42341424Y-53792693D01*
X43667736Y-53374303D01*
X45023757Y-52995137D01*
X46363326Y-52666788D01*
X47640285Y-52400850D01*
X47723602Y-52387161D01*
X51817533Y-52387161D01*
X51843630Y-52696917D01*
X51849846Y-52760024D01*
X51896982Y-53097463D01*
X51976404Y-53565288D01*
X52081459Y-54130364D01*
X52205499Y-54759555D01*
X52341870Y-55419726D01*
X52483923Y-56077740D01*
X52625007Y-56700462D01*
X52758470Y-57254757D01*
X52872810Y-57704939D01*
X53485996Y-59919113D01*
X54174487Y-62083832D01*
X54952990Y-64240331D01*
X55836217Y-66429844D01*
X56838874Y-68693607D01*
X57461198Y-70043258D01*
X58808721Y-70043258D01*
X58999517Y-70043814D01*
X59504052Y-70050315D01*
X59697753Y-70055635D01*
X59964747Y-70062968D01*
X60337218Y-70080326D01*
X60577080Y-70100940D01*
X60717775Y-70119098D01*
X60898125Y-70128102D01*
X60962470Y-70089057D01*
X60950093Y-69990313D01*
X60823760Y-69510899D01*
X60658671Y-68801469D01*
X60488266Y-67991493D01*
X60320465Y-67122299D01*
X60163188Y-66235214D01*
X60024354Y-65371566D01*
X59911883Y-64572682D01*
X59687105Y-62382021D01*
X59612012Y-60750925D01*
X64113101Y-60750925D01*
X64212475Y-62874550D01*
X64438855Y-65076344D01*
X64791858Y-67343955D01*
X64800270Y-67390099D01*
X64896323Y-67888972D01*
X65006982Y-68423024D01*
X65125204Y-68962433D01*
X65243949Y-69477378D01*
X65356175Y-69938037D01*
X65395746Y-70089057D01*
X65454841Y-70314589D01*
X65532907Y-70577212D01*
X65583330Y-70696084D01*
X65659722Y-70731475D01*
X65885504Y-70805446D01*
X66229679Y-70905568D01*
X66662893Y-71023362D01*
X67155794Y-71150348D01*
X67308838Y-71189135D01*
X69659625Y-71877664D01*
X71994027Y-72732830D01*
X74293174Y-73744935D01*
X76538196Y-74904283D01*
X78710221Y-76201177D01*
X80790379Y-77625919D01*
X82759800Y-79168813D01*
X82846054Y-79241347D01*
X83257961Y-79592404D01*
X83695969Y-79971532D01*
X84078714Y-80308430D01*
X84722958Y-80882662D01*
X84658839Y-80219929D01*
X84542248Y-79320405D01*
X84345062Y-78243139D01*
X84081823Y-77078664D01*
X83761872Y-75862336D01*
X83394547Y-74629512D01*
X82989187Y-73415549D01*
X82555133Y-72255802D01*
X82420824Y-71922430D01*
X81428736Y-69708408D01*
X80310517Y-67611346D01*
X79069483Y-65634611D01*
X77708950Y-63781570D01*
X76232235Y-62055588D01*
X74642654Y-60460031D01*
X72943523Y-58998266D01*
X71138160Y-57673659D01*
X69229879Y-56489577D01*
X67221998Y-55449385D01*
X65117833Y-54556449D01*
X65019835Y-54517858D01*
X64875284Y-54463746D01*
X64771243Y-54451846D01*
X64695578Y-54504129D01*
X64636152Y-54642564D01*
X64580830Y-54889121D01*
X64517475Y-55265769D01*
X64433952Y-55794478D01*
X64296900Y-56787584D01*
X64141115Y-58717819D01*
X64113101Y-60750925D01*
X59612012Y-60750925D01*
X59588438Y-60238874D01*
X59622788Y-58174588D01*
X59790493Y-56169609D01*
X60091892Y-54204380D01*
X60157409Y-53837798D01*
X60186980Y-53647519D01*
X64922281Y-53647519D01*
X64928477Y-53759466D01*
X64961734Y-53781399D01*
X65135914Y-53865410D01*
X65414880Y-53983953D01*
X65756557Y-54118772D01*
X66540856Y-54438224D01*
X67442754Y-54844343D01*
X68338322Y-55283011D01*
X69150191Y-55717774D01*
X69527289Y-55937212D01*
X70194656Y-56346642D01*
X70931236Y-56818694D01*
X71694630Y-57325085D01*
X72442441Y-57837529D01*
X73132268Y-58327744D01*
X73721714Y-58767444D01*
X73848291Y-58866818D01*
X74378393Y-59310733D01*
X74983466Y-59852512D01*
X75633235Y-60462234D01*
X76297427Y-61109979D01*
X76945765Y-61765828D01*
X77547977Y-62399860D01*
X78073787Y-62982156D01*
X78492920Y-63482794D01*
X79641173Y-65037474D01*
X80865896Y-66961439D01*
X81961300Y-68991571D01*
X82920094Y-71112945D01*
X83734986Y-73310641D01*
X84398685Y-75569734D01*
X84415618Y-75636709D01*
X84522658Y-76089311D01*
X84644014Y-76641012D01*
X84766015Y-77228174D01*
X84874993Y-77787161D01*
X85123192Y-79114687D01*
X85130815Y-59410393D01*
X85131410Y-57693585D01*
X85131901Y-55589779D01*
X85132027Y-53651551D01*
X85131751Y-51872416D01*
X85131032Y-50245887D01*
X85130344Y-49395437D01*
X86304587Y-49395437D01*
X86304762Y-50931766D01*
X86305280Y-52547001D01*
X86305847Y-53651551D01*
X86306146Y-54233165D01*
X86307366Y-55982282D01*
X86308945Y-57786376D01*
X86310890Y-59637470D01*
X86333212Y-79262879D01*
X87222626Y-78303766D01*
X87334889Y-78182702D01*
X87977247Y-77489852D01*
X88684713Y-76726581D01*
X89449562Y-75901233D01*
X90140991Y-75154989D01*
X93261876Y-75154989D01*
X93326922Y-75567450D01*
X93525787Y-75890664D01*
X93859902Y-76113020D01*
X94173048Y-76190924D01*
X94615372Y-76225710D01*
X95133028Y-76215980D01*
X95677720Y-76162688D01*
X96201156Y-76066787D01*
X96326129Y-76036352D01*
X96708634Y-75937113D01*
X97189876Y-75806597D01*
X97720730Y-75658247D01*
X98252070Y-75505507D01*
X98721920Y-75370252D01*
X99534281Y-75148896D01*
X100295248Y-74961744D01*
X101061722Y-74796050D01*
X101890601Y-74639068D01*
X102838787Y-74478053D01*
X104299066Y-74240153D01*
X104384429Y-73983876D01*
X106407954Y-73983876D01*
X106418383Y-74029190D01*
X106478132Y-74062639D01*
X106608480Y-74086007D01*
X106830707Y-74101077D01*
X107166094Y-74109634D01*
X107635920Y-74113460D01*
X108261466Y-74114338D01*
X109874658Y-74146657D01*
X112047718Y-74298941D01*
X114124391Y-74574625D01*
X116098116Y-74972074D01*
X117962332Y-75489651D01*
X119710479Y-76125722D01*
X121335996Y-76878650D01*
X122832323Y-77746800D01*
X123947548Y-78536623D01*
X125176988Y-79595206D01*
X126268844Y-80759357D01*
X127218492Y-82022799D01*
X128021305Y-83379252D01*
X128672658Y-84822440D01*
X129167926Y-86346084D01*
X129200445Y-86471685D01*
X129319735Y-86981928D01*
X129429091Y-87516693D01*
X129508272Y-87978881D01*
X129542540Y-88207714D01*
X129583496Y-88438010D01*
X129620653Y-88555093D01*
X129658667Y-88548606D01*
X129702194Y-88408195D01*
X129755888Y-88123501D01*
X129824406Y-87684169D01*
X129912402Y-87079844D01*
X130001730Y-86445045D01*
X130091346Y-85757330D01*
X130161917Y-85131831D01*
X130216492Y-84528680D01*
X130258119Y-83908007D01*
X130289846Y-83229940D01*
X130314722Y-82454612D01*
X130335794Y-81542151D01*
X130345846Y-80814441D01*
X130302864Y-78318325D01*
X130133994Y-75911792D01*
X129834520Y-73563140D01*
X129399726Y-71240666D01*
X128824896Y-68912667D01*
X128105315Y-66547440D01*
X127547627Y-64947532D01*
X126867808Y-63212750D01*
X126154806Y-61625120D01*
X125399751Y-60168927D01*
X124593772Y-58828458D01*
X123728000Y-57587997D01*
X122793566Y-56431831D01*
X121781597Y-55344246D01*
X121585942Y-55150039D01*
X120682550Y-54320437D01*
X119821755Y-53649451D01*
X118989512Y-53130413D01*
X118171782Y-52756659D01*
X117354521Y-52521520D01*
X116523689Y-52418331D01*
X115665242Y-52440424D01*
X115457741Y-52461978D01*
X114507797Y-52624828D01*
X113656816Y-52893899D01*
X112857720Y-53287264D01*
X112063429Y-53822994D01*
X111995259Y-53877949D01*
X111751777Y-54096382D01*
X111417672Y-54415710D01*
X111013468Y-54814787D01*
X110559693Y-55272469D01*
X110076872Y-55767611D01*
X109585530Y-56279068D01*
X109106195Y-56785695D01*
X108659391Y-57266346D01*
X108265644Y-57699878D01*
X107945481Y-58065144D01*
X107888838Y-58138183D01*
X107846345Y-58232102D01*
X107830330Y-58366116D01*
X107840639Y-58573976D01*
X107861266Y-58752368D01*
X107877115Y-58889436D01*
X107939605Y-59346248D01*
X107989064Y-59780905D01*
X108039971Y-60482940D01*
X108074488Y-61297264D01*
X108092625Y-62187481D01*
X108094391Y-63117198D01*
X108079793Y-64050022D01*
X108054448Y-64786616D01*
X108048841Y-64949557D01*
X108001543Y-65779411D01*
X107937908Y-66503189D01*
X107790301Y-67720031D01*
X107548391Y-69284298D01*
X107247052Y-70802825D01*
X106873157Y-72339813D01*
X106413583Y-73959460D01*
X106407954Y-73983876D01*
X104384429Y-73983876D01*
X104415826Y-73889615D01*
X104563050Y-73412834D01*
X104766390Y-72657812D01*
X104972402Y-71796791D01*
X105172953Y-70869714D01*
X105359907Y-69916524D01*
X105525132Y-68977164D01*
X105660492Y-68091576D01*
X105757853Y-67299704D01*
X105767907Y-67195598D01*
X105801981Y-66702646D01*
X105825101Y-66120715D01*
X105837884Y-65473980D01*
X105840949Y-64786616D01*
X105834913Y-64082799D01*
X105820396Y-63386706D01*
X105798015Y-62722513D01*
X105768387Y-62114395D01*
X105732132Y-61586527D01*
X105689868Y-61163087D01*
X105642212Y-60868250D01*
X105589783Y-60726191D01*
X105522835Y-60778475D01*
X105346253Y-60950346D01*
X105070225Y-61230997D01*
X104704873Y-61609540D01*
X104260318Y-62075088D01*
X103746682Y-62616754D01*
X103174085Y-63223650D01*
X102552649Y-63884890D01*
X101892495Y-64589587D01*
X101203743Y-65326852D01*
X100496515Y-66085799D01*
X99780933Y-66855540D01*
X99067117Y-67625189D01*
X98365188Y-68383857D01*
X97685267Y-69120659D01*
X97037477Y-69824705D01*
X96431937Y-70485110D01*
X95878768Y-71090987D01*
X95388093Y-71631446D01*
X94970032Y-72095603D01*
X94634707Y-72472568D01*
X94392237Y-72751456D01*
X94252746Y-72921378D01*
X93855371Y-73498227D01*
X93527530Y-74108766D01*
X93329222Y-74664891D01*
X93261876Y-75154989D01*
X90140991Y-75154989D01*
X90264070Y-75022153D01*
X91120512Y-74097686D01*
X92011162Y-73136177D01*
X92928297Y-72145969D01*
X93864190Y-71135408D01*
X94811118Y-70112839D01*
X95761356Y-69086606D01*
X96707179Y-68065053D01*
X97640862Y-67056526D01*
X98554680Y-66069369D01*
X99440909Y-65111927D01*
X100291824Y-64192545D01*
X101099699Y-63319566D01*
X101856811Y-62501337D01*
X102555434Y-61746201D01*
X103187843Y-61062503D01*
X103746314Y-60458588D01*
X104223123Y-59942800D01*
X104610543Y-59523485D01*
X104900851Y-59208987D01*
X105086321Y-59007650D01*
X105159229Y-58927820D01*
X105159503Y-58927503D01*
X105218538Y-58847029D01*
X105248854Y-58752368D01*
X105247012Y-58612167D01*
X105209576Y-58395075D01*
X105133107Y-58069740D01*
X105014168Y-57604810D01*
X104952750Y-57372367D01*
X104531870Y-55984791D01*
X104057657Y-54746747D01*
X103532757Y-53663792D01*
X102959810Y-52741484D01*
X102341462Y-51985379D01*
X102213947Y-51856282D01*
X101784971Y-51494179D01*
X101397180Y-51280678D01*
X101060221Y-51218132D01*
X100783740Y-51308891D01*
X100577383Y-51555308D01*
X100563626Y-51582655D01*
X100408984Y-52009810D01*
X100282524Y-52595339D01*
X100186928Y-53323692D01*
X100124876Y-54179321D01*
X100119559Y-54283756D01*
X100092926Y-54702322D01*
X100062903Y-55041559D01*
X100032789Y-55268947D01*
X100005885Y-55351969D01*
X99992465Y-55340492D01*
X99937574Y-55206382D01*
X99865135Y-54953459D01*
X99787161Y-54621830D01*
X99762984Y-54510767D01*
X99290316Y-52763199D01*
X98660797Y-51072077D01*
X97883466Y-49448918D01*
X96967361Y-47905238D01*
X95921520Y-46452553D01*
X94754981Y-45102378D01*
X93476782Y-43866229D01*
X92095961Y-42755624D01*
X90621557Y-41782076D01*
X89062607Y-40957103D01*
X89060504Y-40956120D01*
X88700791Y-40796824D01*
X88282697Y-40625296D01*
X87837947Y-40452906D01*
X87398265Y-40291022D01*
X86995375Y-40151014D01*
X86661002Y-40044249D01*
X86426869Y-39982098D01*
X86324701Y-39975928D01*
X86323684Y-39984814D01*
X86320458Y-40126745D01*
X86317513Y-40435321D01*
X86314855Y-40902565D01*
X86312490Y-41520502D01*
X86310422Y-42281155D01*
X86308658Y-43176548D01*
X86307203Y-44198704D01*
X86306063Y-45339647D01*
X86305244Y-46591401D01*
X86304750Y-47945990D01*
X86304587Y-49395437D01*
X85130344Y-49395437D01*
X85129834Y-48765477D01*
X85128118Y-47424701D01*
X85125846Y-46217072D01*
X85122979Y-45136104D01*
X85119479Y-44175310D01*
X85115308Y-43328205D01*
X85110427Y-42588302D01*
X85104799Y-41949115D01*
X85098384Y-41404157D01*
X85091144Y-40946943D01*
X85083042Y-40570986D01*
X85074039Y-40269800D01*
X85064097Y-40036898D01*
X85053176Y-39865794D01*
X85041240Y-39750003D01*
X85028249Y-39683037D01*
X85014166Y-39658410D01*
X84937448Y-39639740D01*
X84705907Y-39600704D01*
X84371671Y-39553552D01*
X83978293Y-39504743D01*
X83516128Y-39463805D01*
X82784186Y-39434207D01*
X81983892Y-39433745D01*
X81164092Y-39460603D01*
X80373626Y-39512965D01*
X79661337Y-39589016D01*
X79076069Y-39686942D01*
X78993647Y-39706419D01*
X78348271Y-39858927D01*
X76672201Y-40381589D01*
X75061845Y-41061771D01*
X73526693Y-41891317D01*
X72076236Y-42862073D01*
X70719963Y-43965884D01*
X69467364Y-45194593D01*
X68327931Y-46540047D01*
X67311152Y-47994091D01*
X66426520Y-49548568D01*
X65683522Y-51195325D01*
X65506552Y-51663527D01*
X65337481Y-52148968D01*
X65185573Y-52620465D01*
X65059774Y-53047641D01*
X64969028Y-53400118D01*
X64922281Y-53647519D01*
X60186980Y-53647519D01*
X60209848Y-53500375D01*
X60237503Y-53263765D01*
X60235356Y-53164334D01*
X60159527Y-53129014D01*
X59919329Y-53065285D01*
X59540845Y-52987178D01*
X59045649Y-52898729D01*
X58455310Y-52803976D01*
X57791400Y-52706956D01*
X57630218Y-52685313D01*
X57019523Y-52614485D01*
X56323133Y-52547350D01*
X55578402Y-52486338D01*
X54822685Y-52433884D01*
X54093336Y-52392420D01*
X53427710Y-52364377D01*
X52863161Y-52352189D01*
X52437045Y-52358288D01*
X51817533Y-52387161D01*
X47723602Y-52387161D01*
X48808474Y-52208917D01*
X49224737Y-52150593D01*
X49604974Y-52095238D01*
X49893116Y-52051043D01*
X50047498Y-52024219D01*
X50047634Y-52024189D01*
X50189839Y-51938016D01*
X50230256Y-51900401D01*
X52292239Y-51900401D01*
X53873606Y-51900401D01*
X55337635Y-51926373D01*
X57200773Y-52044318D01*
X58986174Y-52260183D01*
X59055045Y-52270625D01*
X59491657Y-52338850D01*
X59867446Y-52400884D01*
X60144304Y-52450258D01*
X60284127Y-52480505D01*
X60362564Y-52501286D01*
X60424170Y-52487899D01*
X60480780Y-52412737D01*
X60546093Y-52248779D01*
X60633802Y-51969005D01*
X60757604Y-51546394D01*
X60854602Y-51226312D01*
X61255387Y-50080568D01*
X61748210Y-48882069D01*
X62307424Y-47686638D01*
X62907382Y-46550099D01*
X63522439Y-45528276D01*
X64057583Y-44748082D01*
X64827892Y-43738897D01*
X65665044Y-42749567D01*
X66536410Y-41816417D01*
X67409360Y-40975772D01*
X68251266Y-40263956D01*
X68436871Y-40117440D01*
X68685162Y-39913955D01*
X68850052Y-39768772D01*
X68902877Y-39706419D01*
X68860606Y-39712669D01*
X68681631Y-39778441D01*
X68388566Y-39901341D01*
X68008680Y-40069057D01*
X67569240Y-40269278D01*
X67097518Y-40489695D01*
X66620782Y-40717996D01*
X66166301Y-40941869D01*
X65951041Y-41050573D01*
X63838021Y-42208113D01*
X61729331Y-43525239D01*
X59647336Y-44987209D01*
X57614397Y-46579281D01*
X57486795Y-46687063D01*
X57146925Y-46988045D01*
X56730943Y-47370131D01*
X56257526Y-47814963D01*
X55745350Y-48304182D01*
X55213093Y-48819429D01*
X54679430Y-49342345D01*
X54163039Y-49854570D01*
X53682596Y-50337746D01*
X53256778Y-50773513D01*
X52904262Y-51143512D01*
X52643724Y-51429384D01*
X52493840Y-51612771D01*
X52292239Y-51900401D01*
X50230256Y-51900401D01*
X50392352Y-51749545D01*
X50611378Y-51499528D01*
X50998254Y-51013473D01*
X50899228Y-49797261D01*
X50864707Y-49348600D01*
X50736059Y-46414391D01*
X50772625Y-43468503D01*
X50973415Y-40538418D01*
X51337436Y-37651621D01*
X51430529Y-37064182D01*
X51518504Y-36540569D01*
X51591304Y-36155825D01*
X51653582Y-35890477D01*
X51709989Y-35725053D01*
X51765180Y-35640078D01*
X51823807Y-35616081D01*
X51849355Y-35615344D01*
X51901704Y-35615595D01*
X51931147Y-35642590D01*
X51937389Y-35726044D01*
X51920139Y-35895672D01*
X51879105Y-36181188D01*
X51813992Y-36612308D01*
X51669104Y-37711286D01*
X51541426Y-38955836D01*
X51434716Y-40293569D01*
X51350593Y-41686311D01*
X51290674Y-43095888D01*
X51256579Y-44484126D01*
X51249924Y-45812853D01*
X51272328Y-47043895D01*
X51325409Y-48139077D01*
X51356919Y-48582259D01*
X51396497Y-49090246D01*
X51434439Y-49529450D01*
X51467605Y-49863913D01*
X51492859Y-50057676D01*
X51552028Y-50383244D01*
X52392794Y-49451811D01*
X52452907Y-49385576D01*
X53015461Y-48791137D01*
X53679658Y-48126152D01*
X54410730Y-47423504D01*
X55173909Y-46716074D01*
X55934428Y-46036744D01*
X56657519Y-45418396D01*
X58518198Y-43945291D01*
X60853949Y-42297519D01*
X63267195Y-40807860D01*
X65753888Y-39477842D01*
X68309979Y-38308993D01*
X70931418Y-37302842D01*
X73567763Y-36475476D01*
X90451861Y-36475476D01*
X90521740Y-36501098D01*
X90614147Y-36526537D01*
X90840391Y-36612380D01*
X91158738Y-36744499D01*
X91532134Y-36907972D01*
X92579048Y-37411225D01*
X94186911Y-38311668D01*
X95782742Y-39354931D01*
X97340156Y-40522078D01*
X98832767Y-41794177D01*
X100234187Y-43152293D01*
X100672966Y-43619721D01*
X101912451Y-45087734D01*
X103076638Y-46686579D01*
X104149867Y-48388211D01*
X105116475Y-50164587D01*
X105960802Y-51987661D01*
X106667186Y-53829388D01*
X107219966Y-55661725D01*
X107226621Y-55687284D01*
X107313863Y-55998465D01*
X107391685Y-56237474D01*
X107443943Y-56354388D01*
X107461120Y-56354950D01*
X107578066Y-56271851D01*
X107784314Y-56082598D01*
X108061014Y-55807498D01*
X108389317Y-55466855D01*
X108750375Y-55080974D01*
X109125338Y-54670160D01*
X109495358Y-54254718D01*
X109841586Y-53854953D01*
X110145172Y-53491171D01*
X110387269Y-53183676D01*
X110937841Y-52358725D01*
X111419727Y-51370213D01*
X111741764Y-50325476D01*
X111912922Y-49201098D01*
X111933315Y-48816411D01*
X111891293Y-48114761D01*
X111729617Y-47438264D01*
X111435994Y-46723049D01*
X111276374Y-46413078D01*
X110747911Y-45571947D01*
X110078700Y-44708512D01*
X109289948Y-43842287D01*
X108402859Y-42992784D01*
X107438640Y-42179517D01*
X106418495Y-41421998D01*
X105363630Y-40739740D01*
X104295251Y-40152256D01*
X103461436Y-39759591D01*
X102232309Y-39246916D01*
X100884278Y-38749011D01*
X99450336Y-38276598D01*
X97963475Y-37840399D01*
X96456690Y-37451135D01*
X94962973Y-37119529D01*
X94646099Y-37056981D01*
X94062337Y-36948725D01*
X93448718Y-36842263D01*
X92830744Y-36741325D01*
X92233917Y-36649641D01*
X91683736Y-36570944D01*
X91205704Y-36508963D01*
X90825321Y-36467431D01*
X90568088Y-36450077D01*
X90459507Y-36460634D01*
X90451861Y-36475476D01*
X73567763Y-36475476D01*
X73614157Y-36460916D01*
X76354146Y-35784746D01*
X79147338Y-35275858D01*
X81989683Y-34935781D01*
X84877131Y-34766044D01*
X84985632Y-34763040D01*
X87784370Y-34776292D01*
X90572317Y-34962338D01*
X93340126Y-35318204D01*
X96078450Y-35840913D01*
X98777942Y-36527491D01*
X101429256Y-37374960D01*
X104023043Y-38380347D01*
X106549959Y-39540674D01*
X109000654Y-40852967D01*
X111365784Y-42314250D01*
X113636000Y-43921547D01*
X114986750Y-44982681D01*
X117146970Y-46856780D01*
X119145055Y-48816411D01*
X119179979Y-48850663D01*
G37*
%TD*%
%LPC*%
D11*
%TO.C,H4*%
X52499569Y-116296129D03*
%TD*%
%TO.C,H1*%
X43949569Y-54546129D03*
%TD*%
%TO.C,H2*%
X105280000Y-43120000D03*
%TD*%
%TO.C,H3*%
X137750000Y-135750000D03*
%TD*%
%LPD*%
M02*
