%TF.GenerationSoftware,KiCad,Pcbnew,8.0.4*%
%TF.CreationDate,2024-11-04T14:23:45+01:00*%
%TF.ProjectId,Whiplaesh,57686970-6c61-4657-9368-2e6b69636164,0.1*%
%TF.SameCoordinates,Original*%
%TF.FileFunction,Profile,NP*%
%FSLAX46Y46*%
G04 Gerber Fmt 4.6, Leading zero omitted, Abs format (unit mm)*
G04 Created by KiCad (PCBNEW 8.0.4) date 2024-11-04 14:23:45*
%MOMM*%
%LPD*%
G01*
G04 APERTURE LIST*
%TA.AperFunction,Profile*%
%ADD10C,0.150000*%
%TD*%
G04 APERTURE END LIST*
D10*
X142423621Y-137462927D02*
X147497777Y-118525919D01*
X236100088Y-33887421D02*
X253831926Y-42753340D01*
X152600000Y-57949444D02*
X152616634Y-46070685D01*
X147599848Y-102753361D02*
X147600000Y-67849444D01*
X126118886Y-43046129D02*
G75*
G02*
X125391278Y-42956560I14J3000229D01*
G01*
X152601847Y-102853361D02*
X152598153Y-67945527D01*
X157792600Y-137487500D02*
X152718444Y-118550492D01*
X174824941Y-42981130D02*
G75*
G02*
X174097335Y-43070692I-727441J2909430D01*
G01*
X147600000Y-117749444D02*
X147601847Y-112753361D01*
X142423621Y-137462927D02*
G75*
G02*
X138749399Y-139584201I-2897721J776427D01*
G01*
X254891922Y-43638805D02*
X278072650Y-74605082D01*
X30757655Y-117326669D02*
G75*
G02*
X28289100Y-114887214I485845J2960369D01*
G01*
X147600000Y-67849444D02*
G75*
G02*
X152598153Y-67945527I2500000J4D01*
G01*
X155616634Y-43070702D02*
X174097335Y-43070702D01*
X269458565Y-117351242D02*
X205283197Y-127883510D01*
X212108361Y-33660275D02*
G75*
G02*
X212835968Y-33570704I727539J-2909925D01*
G01*
X45324299Y-43614232D02*
X22143571Y-74580509D01*
X152616221Y-117774017D02*
X152599999Y-112845770D01*
X21590784Y-76899270D02*
G75*
G02*
X22143571Y-74580509I2954486J520930D01*
G01*
X45324299Y-43614232D02*
G75*
G02*
X46384289Y-42728755I2401801J-1797968D01*
G01*
X64116133Y-33862848D02*
X46384295Y-42728767D01*
X144599587Y-43046129D02*
X126118886Y-43046129D01*
X147598001Y-57849444D02*
X147599587Y-46046112D01*
X152600000Y-57949444D02*
G75*
G02*
X147597999Y-57849444I-2500000J100044D01*
G01*
X64116133Y-33862848D02*
G75*
G02*
X65457773Y-33546107I1341567J-2682752D01*
G01*
X204992591Y-127946129D02*
G75*
G02*
X205283197Y-127883511I776509J-2898071D01*
G01*
X212835968Y-33570702D02*
X234758447Y-33570702D01*
X152601847Y-102853361D02*
G75*
G02*
X147599855Y-102753361I-2499997J99971D01*
G01*
X152718444Y-118550492D02*
G75*
G02*
X152616199Y-117774018I2898156J776592D01*
G01*
X144599587Y-43046129D02*
G75*
G02*
X147599571Y-46046112I213J-2999771D01*
G01*
X125391279Y-42956557D02*
X88107859Y-33635702D01*
X234758447Y-33570702D02*
G75*
G02*
X236100096Y-33887404I-147J-3000798D01*
G01*
X161466834Y-139608821D02*
G75*
G02*
X157792597Y-137487501I-776434J2897821D01*
G01*
X95223630Y-127921556D02*
X138749386Y-139584248D01*
X87380253Y-33546129D02*
G75*
G02*
X88107856Y-33635712I-153J-3000871D01*
G01*
X147601987Y-112753361D02*
G75*
G02*
X152600006Y-112845770I2499863J-29D01*
G01*
X94933024Y-127858937D02*
G75*
G02*
X95223628Y-127921559I-485924J-2960563D01*
G01*
X174824941Y-42981130D02*
X212108361Y-33660275D01*
X204992591Y-127946129D02*
X161466834Y-139608821D01*
X147600000Y-117749444D02*
G75*
G02*
X147497790Y-118525923I-3000100J-56D01*
G01*
X278072650Y-74605082D02*
G75*
G02*
X278625472Y-76923849I-2401450J-1797818D01*
G01*
X21590784Y-76899270D02*
X28289084Y-114887217D01*
X87380253Y-33546129D02*
X65457773Y-33546129D01*
X271927137Y-114911790D02*
G75*
G02*
X269458574Y-117351297I-2954437J520890D01*
G01*
X278625437Y-76923843D02*
X271927137Y-114911790D01*
X30757655Y-117326669D02*
X94933024Y-127858937D01*
X253831926Y-42753340D02*
G75*
G02*
X254891921Y-43638806I-1341626J-2683260D01*
G01*
X152616634Y-46070685D02*
G75*
G02*
X155616634Y-43070734I3000166J-215D01*
G01*
M02*
