M48
; DRILL file {KiCad 8.0.4} date 2024-11-04T14:23:45+0100
; FORMAT={-:-/ absolute / inch / decimal}
; #@! TF.CreationDate,2024-11-04T14:23:45+01:00
; #@! TF.GenerationSoftware,Kicad,Pcbnew,8.0.4
; #@! TF.FileFunction,NonPlated,1,2,NPTH
FMAT,2
INCH
; #@! TA.AperFunction,NonPlated,NPTH,ComponentDrill
T1C0.0197
; #@! TA.AperFunction,NonPlated,NPTH,ComponentDrill
T2C0.0670
; #@! TA.AperFunction,NonPlated,NPTH,ComponentDrill
T3C0.0866
; #@! TA.AperFunction,NonPlated,NPTH,ComponentDrill
T4C0.1181
; #@! TA.AperFunction,NonPlated,NPTH,ComponentDrill
T5C0.1570
; #@! TA.AperFunction,NonPlated,NPTH,ComponentDrill
T6C0.1969
%
G90
G05
T1
X5.811Y-2.3287
X5.811Y-2.3582
X5.811Y-2.3582
X5.811Y-2.3878
X5.811Y-2.4173
X5.811Y-2.4468
X5.811Y-2.4764
X5.811Y-2.5059
X5.811Y-2.5354
X5.811Y-2.5649
X5.811Y-2.5945
X5.811Y-2.624
X5.8111Y-4.0966
X5.8111Y-4.1261
X5.8111Y-4.1261
X5.8111Y-4.1556
X5.8111Y-4.1852
X5.8111Y-4.2147
X5.8111Y-4.2442
X5.8111Y-4.2738
X5.8111Y-4.3033
X5.8111Y-4.3328
X5.8111Y-4.3623
X5.8111Y-4.3919
X6.0079Y-2.3287
X6.0079Y-2.3582
X6.0079Y-2.3582
X6.0079Y-2.3878
X6.0079Y-2.4173
X6.0079Y-2.4468
X6.0079Y-2.4764
X6.0079Y-2.5059
X6.0079Y-2.5354
X6.0079Y-2.5649
X6.0079Y-2.5945
X6.0079Y-2.624
X6.0079Y-4.0966
X6.0079Y-4.1261
X6.0079Y-4.1261
X6.0079Y-4.1556
X6.0079Y-4.1852
X6.0079Y-4.2147
X6.0079Y-4.2442
X6.0079Y-4.2738
X6.0079Y-4.3033
X6.0079Y-4.3328
X6.0079Y-4.3623
X6.0079Y-4.3919
T2
X1.1524Y-3.382
X1.1687Y-3.3792
X1.2823Y-4.1187
X1.2986Y-4.1158
X1.5626Y-3.3097
X1.5789Y-3.3068
X1.6925Y-4.0464
X1.7088Y-4.0435
X2.0374Y-2.8955
X2.0374Y-3.6435
X2.0383Y-2.1443
X2.0539Y-2.8955
X2.0539Y-3.6435
X2.0548Y-2.1443
X2.4539Y-2.8955
X2.4539Y-3.6435
X2.4548Y-2.1443
X2.4705Y-2.8955
X2.4705Y-3.6435
X2.4714Y-2.1443
X2.7854Y-1.7735
X2.7854Y-2.5215
X2.7854Y-3.2695
X2.802Y-1.7735
X2.802Y-2.5215
X2.802Y-3.2695
X3.202Y-1.7735
X3.202Y-2.5215
X3.202Y-3.2695
X3.2185Y-1.7735
X3.2185Y-2.5215
X3.2185Y-3.2695
X3.5334Y-3.4565
X3.5334Y-1.9605
X3.5334Y-2.7085
X3.55Y-3.4565
X3.55Y-1.9605
X3.55Y-2.7085
X3.95Y-3.4565
X3.95Y-1.9605
X3.95Y-2.7085
X3.9665Y-3.4565
X3.9665Y-1.9605
X3.9665Y-2.7085
X4.0887Y-4.6586
X4.1046Y-4.6629
X4.2815Y-2.1475
X4.2815Y-2.8955
X4.2815Y-3.6435
X4.298Y-2.1475
X4.298Y-2.8955
X4.298Y-3.6435
X4.491Y-4.7664
X4.507Y-4.7707
X4.698Y-2.1475
X4.698Y-2.8955
X4.698Y-3.6435
X4.7145Y-2.1475
X4.7145Y-2.8955
X4.7145Y-3.6435
X4.8112Y-4.8522
X4.8272Y-4.8565
X5.2135Y-4.96
X5.2295Y-4.9643
X6.59Y-4.9652
X6.606Y-4.961
X6.9924Y-4.8574
X7.0083Y-4.8531
X7.105Y-2.1485
X7.105Y-2.8965
X7.105Y-3.6445
X7.1215Y-2.1485
X7.1215Y-2.8965
X7.1215Y-3.6445
X7.3126Y-4.7716
X7.3285Y-4.7673
X7.5215Y-2.1485
X7.5215Y-2.8965
X7.5215Y-3.6445
X7.5381Y-2.1485
X7.5381Y-2.8965
X7.5381Y-3.6445
X7.7149Y-4.6638
X7.7309Y-4.6595
X7.853Y-1.9614
X7.853Y-2.7095
X7.853Y-3.4575
X7.8696Y-1.9614
X7.8696Y-2.7095
X7.8696Y-3.4575
X8.2696Y-1.9614
X8.2696Y-2.7095
X8.2696Y-3.4575
X8.2861Y-1.9614
X8.2861Y-2.7095
X8.2861Y-3.4575
X8.601Y-1.7744
X8.601Y-2.5225
X8.601Y-3.2705
X8.6176Y-1.7744
X8.6176Y-2.5225
X8.6176Y-3.2705
X9.0176Y-1.7744
X9.0176Y-2.5225
X9.0176Y-3.2705
X9.0341Y-1.7744
X9.0341Y-2.5225
X9.0341Y-3.2705
X9.3491Y-2.1485
X9.3491Y-2.8965
X9.3491Y-3.6445
X9.3656Y-2.1485
X9.3656Y-2.8965
X9.3656Y-3.6445
X9.7656Y-2.1485
X9.7656Y-2.8965
X9.7656Y-3.6445
X9.7822Y-2.1485
X9.7822Y-2.8965
X9.7822Y-3.6445
X10.1107Y-4.0445
X10.127Y-4.0473
X10.2406Y-3.3078
X10.2569Y-3.3107
X10.521Y-4.1168
X10.5372Y-4.1197
X10.6508Y-3.3801
X10.6671Y-3.383
T3
X1.7303Y-2.1475
X2.0669Y-4.5786
X4.1449Y-1.6976
X5.4232Y-5.3445
X6.3957Y-5.3445
X7.6748Y-1.698
X9.7526Y-4.5796
X10.0892Y-2.1485
T4
X1.1974Y-3.524
X1.1978Y-3.5259
X1.2272Y-3.5567
X1.3019Y-3.5588
X1.3273Y-4.2607
X1.3277Y-4.2626
X1.3571Y-4.2934
X1.406Y-3.5732
X1.4318Y-4.2954
X1.5058Y-3.5496
X1.5307Y-3.4169
X1.5359Y-4.3099
X1.6357Y-4.2863
X1.6606Y-4.1535
X2.0571Y-3.0432
X2.0571Y-3.0451
X2.0571Y-3.7912
X2.0571Y-3.7932
X2.058Y-2.2919
X2.058Y-2.2939
X2.0807Y-3.0806
X2.0807Y-3.8286
X2.0816Y-2.3293
X2.1539Y-3.0955
X2.1539Y-3.8435
X2.1548Y-2.3443
X2.2539Y-3.1278
X2.2539Y-3.8758
X2.2548Y-2.3766
X2.3563Y-3.1219
X2.3563Y-3.8699
X2.3572Y-2.3707
X2.4039Y-2.9955
X2.4039Y-3.7435
X2.4048Y-2.2443
X2.8051Y-1.9211
X2.8051Y-1.9231
X2.8051Y-2.6691
X2.8051Y-2.6711
X2.8051Y-3.4172
X2.8051Y-3.4191
X2.8287Y-1.9585
X2.8287Y-2.7065
X2.8287Y-3.4546
X2.902Y-1.9735
X2.902Y-2.7215
X2.902Y-3.4695
X3.002Y-2.0058
X3.002Y-2.7538
X3.002Y-3.5018
X3.1043Y-1.9998
X3.1043Y-2.7479
X3.1043Y-3.4959
X3.152Y-1.8735
X3.152Y-2.6215
X3.152Y-3.3695
X3.5531Y-3.6042
X3.5531Y-3.6061
X3.5531Y-2.1081
X3.5531Y-2.1101
X3.5531Y-2.8561
X3.5531Y-2.8581
X3.5768Y-3.6416
X3.5768Y-2.1455
X3.5768Y-2.8935
X3.65Y-3.6565
X3.65Y-2.1605
X3.65Y-2.9085
X3.75Y-3.6888
X3.75Y-2.1928
X3.75Y-2.9408
X3.8523Y-3.6829
X3.8523Y-2.1869
X3.8523Y-2.9349
X3.9Y-3.5565
X3.9Y-2.0605
X3.9Y-2.8085
X4.0689Y-4.8082
X4.0695Y-4.8063
X4.0826Y-4.8485
X4.1495Y-4.8819
X4.2377Y-4.939
X4.3012Y-2.2951
X4.3012Y-2.2971
X4.3012Y-3.0432
X4.3012Y-3.0451
X4.3012Y-3.7912
X4.3012Y-3.7932
X4.3248Y-2.3325
X4.3248Y-3.0806
X4.3248Y-3.8286
X4.3381Y-4.9598
X4.398Y-2.3475
X4.398Y-3.0955
X4.398Y-3.8435
X4.4168Y-4.85
X4.498Y-2.3798
X4.498Y-3.1278
X4.498Y-3.8758
X4.6004Y-2.3739
X4.6004Y-3.1219
X4.6004Y-3.8699
X4.648Y-2.2475
X4.648Y-2.9955
X4.648Y-3.7435
X4.7915Y-5.0018
X4.792Y-4.9999
X4.8051Y-5.0421
X4.872Y-5.0755
X4.9602Y-5.1326
X5.0606Y-5.1534
X5.1394Y-5.0436
X6.6472Y-5.1027
X6.6478Y-5.1046
X6.6797Y-5.1328
X6.7544Y-5.1283
X6.8593Y-5.1336
X6.9566Y-5.1014
X6.97Y-4.967
X7.1247Y-2.2961
X7.1247Y-2.2981
X7.1247Y-3.0441
X7.1247Y-3.0461
X7.1247Y-3.7922
X7.1247Y-3.7941
X7.1483Y-2.3335
X7.1483Y-3.0815
X7.1483Y-3.8296
X7.2215Y-2.3485
X7.2215Y-3.0965
X7.2215Y-3.8445
X7.3215Y-2.3807
X7.3215Y-3.1288
X7.3215Y-3.8768
X7.3698Y-4.9091
X7.3703Y-4.911
X7.4023Y-4.9392
X7.4239Y-2.3748
X7.4239Y-3.1229
X7.4239Y-3.8709
X7.4715Y-2.2485
X7.4715Y-2.9965
X7.4715Y-3.7445
X7.4769Y-4.9347
X7.5818Y-4.94
X7.6792Y-4.9078
X7.6925Y-4.7734
X7.8727Y-2.1091
X7.8727Y-2.1111
X7.8727Y-2.8571
X7.8727Y-2.8591
X7.8727Y-3.6051
X7.8727Y-3.6071
X7.8963Y-2.1465
X7.8963Y-2.8945
X7.8963Y-3.6425
X7.9696Y-2.1614
X7.9696Y-2.9095
X7.9696Y-3.6575
X8.0696Y-2.1937
X8.0696Y-2.9418
X8.0696Y-3.6898
X8.1719Y-2.1878
X8.1719Y-2.9359
X8.1719Y-3.6839
X8.2196Y-2.0614
X8.2196Y-2.8095
X8.2196Y-3.5575
X8.6207Y-1.9221
X8.6207Y-1.924
X8.6207Y-2.6701
X8.6207Y-2.6721
X8.6207Y-3.4181
X8.6207Y-3.4201
X8.6444Y-1.9595
X8.6444Y-2.7075
X8.6444Y-3.4555
X8.7176Y-1.9744
X8.7176Y-2.7225
X8.7176Y-3.4705
X8.8176Y-2.0067
X8.8176Y-2.7548
X8.8176Y-3.5028
X8.9199Y-2.0008
X8.9199Y-2.7488
X8.9199Y-3.4969
X8.9676Y-1.8744
X8.9676Y-2.6225
X8.9676Y-3.3705
X9.3688Y-2.2961
X9.3688Y-2.2981
X9.3688Y-3.0441
X9.3688Y-3.0461
X9.3688Y-3.7922
X9.3688Y-3.7941
X9.3924Y-2.3335
X9.3924Y-3.0815
X9.3924Y-3.8296
X9.4656Y-2.3485
X9.4656Y-3.0965
X9.4656Y-3.8445
X9.5656Y-2.3807
X9.5656Y-3.1288
X9.5656Y-3.8768
X9.668Y-2.3748
X9.668Y-3.1229
X9.668Y-3.8709
X9.7156Y-2.2485
X9.7156Y-2.9965
X9.7156Y-3.7445
X10.1042Y-4.1952
X10.1045Y-4.1933
X10.1213Y-4.2342
X10.1908Y-4.2617
X10.234Y-3.4585
X10.2344Y-3.4566
X10.2512Y-3.4975
X10.2837Y-4.3108
X10.3207Y-3.525
X10.3855Y-4.3228
X10.4136Y-3.5742
X10.4543Y-4.2066
X10.5154Y-3.5861
X10.5842Y-3.4699
T5
X1.3656Y-3.3444
X1.4955Y-4.0811
X2.2539Y-2.8955
X2.2539Y-3.6435
X2.2548Y-2.1443
X3.002Y-1.7735
X3.002Y-2.5215
X3.002Y-3.2695
X3.75Y-3.4565
X3.75Y-1.9605
X3.75Y-2.7085
X4.2978Y-4.7146
X4.498Y-2.1475
X4.498Y-2.8955
X4.498Y-3.6435
X5.0204Y-4.9082
X6.7992Y-4.9092
X7.3215Y-2.1485
X7.3215Y-2.8965
X7.3215Y-3.6445
X7.5217Y-4.7156
X8.0696Y-1.9614
X8.0696Y-2.7095
X8.0696Y-3.4575
X8.8176Y-1.7744
X8.8176Y-2.5225
X8.8176Y-3.2705
X9.5656Y-2.1485
X9.5656Y-2.8965
X9.5656Y-3.6445
X10.324Y-4.0821
X10.4539Y-3.3454
T6
X1.3656Y-3.3444
X1.4955Y-4.0811
X2.2539Y-2.8955
X2.2539Y-3.6435
X2.2548Y-2.1443
X3.002Y-1.7735
X3.002Y-2.5215
X3.002Y-3.2695
X3.75Y-3.4565
X3.75Y-1.9605
X3.75Y-2.7085
X4.2978Y-4.7146
X4.498Y-2.1475
X4.498Y-2.8955
X4.498Y-3.6435
X5.0204Y-4.9082
X6.7992Y-4.9092
X7.3215Y-2.1485
X7.3215Y-2.8965
X7.3215Y-3.6445
X7.5217Y-4.7156
X8.0696Y-1.9614
X8.0696Y-2.7095
X8.0696Y-3.4575
X8.8176Y-1.7744
X8.8176Y-2.5225
X8.8176Y-3.2705
X9.5656Y-2.1485
X9.5656Y-2.8965
X9.5656Y-3.6445
X10.324Y-4.0821
X10.4539Y-3.3454
M30
