%TF.GenerationSoftware,KiCad,Pcbnew,8.0.4*%
%TF.CreationDate,2024-11-04T11:06:48+01:00*%
%TF.ProjectId,Whiplaesh_bottom,57686970-6c61-4657-9368-5f626f74746f,0.1*%
%TF.SameCoordinates,Original*%
%TF.FileFunction,Legend,Top*%
%TF.FilePolarity,Positive*%
%FSLAX46Y46*%
G04 Gerber Fmt 4.6, Leading zero omitted, Abs format (unit mm)*
G04 Created by KiCad (PCBNEW 8.0.4) date 2024-11-04 11:06:48*
%MOMM*%
%LPD*%
G01*
G04 APERTURE LIST*
%ADD10C,0.150000*%
%ADD11C,0.000000*%
%ADD12C,2.300000*%
G04 APERTURE END LIST*
D10*
X104518095Y-40374819D02*
X104518095Y-39374819D01*
X104518095Y-39851009D02*
X105089523Y-39851009D01*
X105089523Y-40374819D02*
X105089523Y-39374819D01*
X105518095Y-39470057D02*
X105565714Y-39422438D01*
X105565714Y-39422438D02*
X105660952Y-39374819D01*
X105660952Y-39374819D02*
X105899047Y-39374819D01*
X105899047Y-39374819D02*
X105994285Y-39422438D01*
X105994285Y-39422438D02*
X106041904Y-39470057D01*
X106041904Y-39470057D02*
X106089523Y-39565295D01*
X106089523Y-39565295D02*
X106089523Y-39660533D01*
X106089523Y-39660533D02*
X106041904Y-39803390D01*
X106041904Y-39803390D02*
X105470476Y-40374819D01*
X105470476Y-40374819D02*
X106089523Y-40374819D01*
D11*
%TO.C,G\u002A\u002A\u002A*%
G36*
X86798485Y-34621078D02*
G01*
X89685933Y-34790815D01*
X92528278Y-35130892D01*
X95321470Y-35639780D01*
X98061459Y-36315950D01*
X100744198Y-37157876D01*
X103365637Y-38164027D01*
X105921728Y-39332876D01*
X108408421Y-40662894D01*
X110821667Y-42152553D01*
X113157418Y-43800325D01*
X115018097Y-45273430D01*
X115741188Y-45891778D01*
X116501707Y-46571108D01*
X117264886Y-47278538D01*
X117995958Y-47981186D01*
X118660155Y-48646171D01*
X119222709Y-49240610D01*
X119282822Y-49306845D01*
X120123588Y-50238278D01*
X120182757Y-49912710D01*
X120208011Y-49718947D01*
X120241177Y-49384484D01*
X120279119Y-48945280D01*
X120318697Y-48437293D01*
X120350207Y-47994111D01*
X120403288Y-46898929D01*
X120425692Y-45667887D01*
X120419037Y-44339160D01*
X120384942Y-42950922D01*
X120325023Y-41541345D01*
X120240900Y-40148603D01*
X120134190Y-38810870D01*
X120006512Y-37566320D01*
X119861624Y-36467342D01*
X119796511Y-36036222D01*
X119755477Y-35750706D01*
X119738227Y-35581078D01*
X119744469Y-35497624D01*
X119773912Y-35470629D01*
X119826261Y-35470378D01*
X119851809Y-35471115D01*
X119910436Y-35495112D01*
X119965627Y-35580087D01*
X120022034Y-35745511D01*
X120084312Y-36010859D01*
X120157112Y-36395603D01*
X120245087Y-36919216D01*
X120338180Y-37506655D01*
X120702201Y-40393452D01*
X120902991Y-43323537D01*
X120939557Y-46269425D01*
X120810909Y-49203634D01*
X120776388Y-49652295D01*
X120677362Y-50868507D01*
X121064238Y-51354562D01*
X121283264Y-51604579D01*
X121485777Y-51793050D01*
X121627982Y-51879223D01*
X121628118Y-51879253D01*
X121782500Y-51906077D01*
X122070642Y-51950272D01*
X122450879Y-52005627D01*
X122867142Y-52063951D01*
X124035331Y-52255884D01*
X125312290Y-52521822D01*
X126651859Y-52850171D01*
X128007880Y-53229337D01*
X129334192Y-53647727D01*
X129778892Y-53799904D01*
X130419225Y-54033056D01*
X131090189Y-54293857D01*
X131771798Y-54572987D01*
X132444069Y-54861126D01*
X133087014Y-55148953D01*
X133680650Y-55427150D01*
X134204991Y-55686395D01*
X134640051Y-55917369D01*
X134965846Y-56110752D01*
X135162390Y-56257224D01*
X135213135Y-56334132D01*
X135177302Y-56430022D01*
X135146759Y-56430289D01*
X135048042Y-56381203D01*
X134821428Y-56266821D01*
X134496719Y-56102234D01*
X134103715Y-55902533D01*
X133929860Y-55814060D01*
X132116219Y-54974063D01*
X130166501Y-54229150D01*
X128096834Y-53584052D01*
X125923345Y-53043497D01*
X123662162Y-52612213D01*
X122348807Y-52418224D01*
X122165981Y-52392774D01*
X122046666Y-52386435D01*
X121997311Y-52419776D01*
X122024361Y-52513368D01*
X122134264Y-52687779D01*
X122333464Y-52963581D01*
X122628410Y-53361341D01*
X122656100Y-53398729D01*
X124210030Y-55644656D01*
X125629369Y-57998768D01*
X126908815Y-60448362D01*
X128043068Y-62980731D01*
X129026823Y-65583170D01*
X129854781Y-68242974D01*
X130521638Y-70947438D01*
X130963254Y-73305609D01*
X131085452Y-74091890D01*
X131185647Y-74796893D01*
X131265949Y-75451603D01*
X131328471Y-76087002D01*
X131375323Y-76734073D01*
X131408618Y-77423800D01*
X131430468Y-78187165D01*
X131442982Y-79055151D01*
X131448274Y-80058742D01*
X131448799Y-80430000D01*
X131446777Y-81496033D01*
X131437694Y-82416541D01*
X131419425Y-83222932D01*
X131389843Y-83946615D01*
X131346824Y-84618998D01*
X131288243Y-85271491D01*
X131211974Y-85935503D01*
X131115891Y-86642442D01*
X130997870Y-87423717D01*
X130958786Y-87671516D01*
X130431656Y-90432087D01*
X129738329Y-93140360D01*
X128883598Y-95789783D01*
X127872257Y-98373804D01*
X126709098Y-100885870D01*
X125398915Y-103319428D01*
X123946501Y-105667926D01*
X122356649Y-107924812D01*
X120634152Y-110083532D01*
X118783804Y-112137536D01*
X116810398Y-114080269D01*
X114718726Y-115905180D01*
X112513583Y-117605716D01*
X110199760Y-119175324D01*
X107782053Y-120607453D01*
X106290084Y-121394723D01*
X103705714Y-122604731D01*
X101092975Y-123641350D01*
X98443094Y-124507107D01*
X95747294Y-125204528D01*
X92996800Y-125736140D01*
X90182836Y-126104469D01*
X89805567Y-126141082D01*
X89315170Y-126179549D01*
X88710366Y-126215648D01*
X88023634Y-126248476D01*
X87287453Y-126277132D01*
X86534303Y-126300713D01*
X85796662Y-126318319D01*
X85107011Y-126329047D01*
X84497827Y-126331995D01*
X84001591Y-126326261D01*
X83660871Y-126311698D01*
X83411812Y-126293482D01*
X83031822Y-126265677D01*
X82566499Y-126231619D01*
X82061443Y-126194645D01*
X81890836Y-126182154D01*
X79165938Y-125894496D01*
X76458622Y-125434064D01*
X73778557Y-124804911D01*
X73730890Y-124790595D01*
X86537177Y-124790595D01*
X87577073Y-124729879D01*
X88132777Y-124694941D01*
X88760761Y-124651591D01*
X89362410Y-124606773D01*
X89634738Y-124584977D01*
X90149176Y-124538336D01*
X90700742Y-124481721D01*
X91206801Y-124423879D01*
X91449024Y-124392928D01*
X92245540Y-124285064D01*
X91006515Y-124228285D01*
X89634497Y-124135525D01*
X88378960Y-123985834D01*
X87311568Y-123798732D01*
X86537177Y-123641755D01*
X86537177Y-124216175D01*
X86537177Y-124790595D01*
X73730890Y-124790595D01*
X71135417Y-124011088D01*
X68538872Y-123056649D01*
X65998594Y-121945646D01*
X63524256Y-120682132D01*
X61125528Y-119270159D01*
X58812083Y-117713779D01*
X56593591Y-116017046D01*
X55559605Y-115149039D01*
X54539873Y-114266779D01*
X52152288Y-114209771D01*
X51377026Y-114178933D01*
X56829823Y-114178933D01*
X56883496Y-114242737D01*
X57057657Y-114395533D01*
X57330850Y-114620568D01*
X57681618Y-114901091D01*
X58088504Y-115220351D01*
X58530052Y-115561595D01*
X58984803Y-115908072D01*
X59431302Y-116243030D01*
X59848091Y-116549717D01*
X60085551Y-116720728D01*
X62220737Y-118139040D01*
X64470813Y-119437490D01*
X66817093Y-120609283D01*
X69240893Y-121647622D01*
X71723528Y-122545711D01*
X74246312Y-123296752D01*
X76790562Y-123893949D01*
X79337591Y-124330505D01*
X81713832Y-124588030D01*
X82192463Y-124625214D01*
X82633342Y-124660109D01*
X82993531Y-124689272D01*
X83230086Y-124709260D01*
X83262613Y-124712209D01*
X83484448Y-124725974D01*
X83827591Y-124739408D01*
X84236351Y-124750548D01*
X84483091Y-124755209D01*
X85393813Y-124769372D01*
X85373999Y-124216175D01*
X85368108Y-124051701D01*
X85342404Y-123334029D01*
X84501637Y-123034653D01*
X82946447Y-122395338D01*
X81512653Y-121627582D01*
X80198217Y-120729809D01*
X79001103Y-119700442D01*
X77919274Y-118537905D01*
X76950693Y-117240622D01*
X76883111Y-117138692D01*
X76192515Y-115963895D01*
X75579301Y-114671239D01*
X75062436Y-113309948D01*
X74660883Y-111929248D01*
X74418694Y-110741846D01*
X74361239Y-110391568D01*
X74307548Y-110079173D01*
X74270834Y-109880558D01*
X74222076Y-109638781D01*
X73896874Y-109780728D01*
X71079330Y-110927511D01*
X68274330Y-111901579D01*
X65471490Y-112705729D01*
X62660429Y-113342757D01*
X59830762Y-113815461D01*
X58177718Y-114015358D01*
X57715242Y-114065030D01*
X57319852Y-114110256D01*
X57022768Y-114147247D01*
X56855209Y-114172213D01*
X56829823Y-114178933D01*
X51377026Y-114178933D01*
X50101960Y-114128214D01*
X48089329Y-113984158D01*
X46149928Y-113781153D01*
X44319292Y-113522752D01*
X43082822Y-113303285D01*
X42664860Y-113222176D01*
X42315642Y-113154963D01*
X42068623Y-113108046D01*
X41957263Y-113087822D01*
X41954425Y-113087485D01*
X41934736Y-113014810D01*
X41932299Y-112954390D01*
X41930273Y-112889663D01*
X41944467Y-112849602D01*
X42005292Y-112834068D01*
X42143159Y-112842925D01*
X42388479Y-112876034D01*
X42771662Y-112933257D01*
X42884276Y-112950081D01*
X44030195Y-113103144D01*
X45280446Y-113235764D01*
X46649421Y-113348982D01*
X48151510Y-113443841D01*
X49801104Y-113521383D01*
X51612595Y-113582652D01*
X51620471Y-113582873D01*
X53830246Y-113645064D01*
X52621845Y-112370459D01*
X51841276Y-111536532D01*
X51158336Y-110781835D01*
X50539302Y-110066951D01*
X49950451Y-109352464D01*
X49358060Y-108598958D01*
X49052332Y-108198339D01*
X48112217Y-106911893D01*
X47206355Y-105586618D01*
X46364034Y-104267464D01*
X45661712Y-103079190D01*
X47485624Y-103079190D01*
X47565153Y-103252940D01*
X47732813Y-103536244D01*
X47990672Y-103945860D01*
X48134161Y-104171883D01*
X49557727Y-106276831D01*
X51110906Y-108314271D01*
X52767181Y-110251720D01*
X54500035Y-112056696D01*
X54839632Y-112385706D01*
X56029159Y-113524316D01*
X56569754Y-113476496D01*
X56856150Y-113447130D01*
X57268961Y-113399549D01*
X57759242Y-113339630D01*
X58278053Y-113273251D01*
X58437874Y-113252167D01*
X60429591Y-112932617D01*
X62515493Y-112494199D01*
X64666843Y-111945402D01*
X66854901Y-111294714D01*
X69050930Y-110550625D01*
X71226191Y-109721623D01*
X73151289Y-108905989D01*
X74042279Y-108509369D01*
X76599690Y-108509369D01*
X76652886Y-109404353D01*
X76827906Y-111002697D01*
X77156211Y-112529523D01*
X77633593Y-113977100D01*
X78255843Y-115337697D01*
X79018751Y-116603583D01*
X79918109Y-117767026D01*
X80949708Y-118820296D01*
X82109339Y-119755660D01*
X82396899Y-119955449D01*
X82656897Y-120119496D01*
X83005647Y-120323580D01*
X83412047Y-120551268D01*
X83844990Y-120786127D01*
X84273374Y-121011726D01*
X84666092Y-121211631D01*
X84992042Y-121369410D01*
X85220118Y-121468632D01*
X85310705Y-121494808D01*
X85321179Y-121408257D01*
X85331226Y-121156409D01*
X85340747Y-120750968D01*
X85349644Y-120203640D01*
X85357820Y-119526131D01*
X85365177Y-118730145D01*
X85371615Y-117827388D01*
X85377038Y-116829566D01*
X85381347Y-115748384D01*
X85384445Y-114595547D01*
X85386232Y-113382761D01*
X85386655Y-112426654D01*
X85386655Y-112201272D01*
X86537177Y-112201272D01*
X86537291Y-113723475D01*
X86537735Y-115078422D01*
X86538665Y-116275860D01*
X86540235Y-117325538D01*
X86542599Y-118237202D01*
X86545913Y-119020599D01*
X86550331Y-119685477D01*
X86556008Y-120241584D01*
X86563098Y-120698667D01*
X86571756Y-121066473D01*
X86582137Y-121354750D01*
X86594395Y-121573245D01*
X86608686Y-121731706D01*
X86625163Y-121839880D01*
X86643982Y-121907514D01*
X86665297Y-121944356D01*
X86689263Y-121960153D01*
X86692055Y-121961021D01*
X87653990Y-122214799D01*
X88653371Y-122439458D01*
X89627149Y-122622185D01*
X90512276Y-122750168D01*
X90652508Y-122765891D01*
X90987405Y-122787077D01*
X91464637Y-122797545D01*
X92049921Y-122798275D01*
X92708975Y-122790244D01*
X93407518Y-122774432D01*
X94111267Y-122751817D01*
X94785940Y-122723377D01*
X95397255Y-122690091D01*
X95910930Y-122652937D01*
X96292683Y-122612893D01*
X96360871Y-122602961D01*
X97188266Y-122460778D01*
X98065833Y-122289784D01*
X98929497Y-122103483D01*
X99715185Y-121915377D01*
X100077944Y-121819602D01*
X100830209Y-121612596D01*
X99104425Y-121614933D01*
X98040456Y-121595179D01*
X97105799Y-121527495D01*
X97083928Y-121524309D01*
X100903960Y-121524309D01*
X100916109Y-121576923D01*
X100962961Y-121583310D01*
X101035808Y-121550928D01*
X101021962Y-121524309D01*
X100916932Y-121513717D01*
X100903960Y-121524309D01*
X97083928Y-121524309D01*
X96257331Y-121403898D01*
X95451925Y-121216403D01*
X94646456Y-120957026D01*
X93857694Y-120643517D01*
X93024159Y-120222895D01*
X92179416Y-119679696D01*
X91363139Y-119046560D01*
X90615003Y-118356131D01*
X89974680Y-117641050D01*
X89621650Y-117158223D01*
X88954854Y-115988651D01*
X88428350Y-114723053D01*
X88042284Y-113373515D01*
X87796799Y-111952128D01*
X87755916Y-111374086D01*
X90456839Y-111374086D01*
X90572650Y-112618904D01*
X90820754Y-113778371D01*
X91201177Y-114842427D01*
X91713945Y-115801014D01*
X91829908Y-115975592D01*
X92534427Y-116846626D01*
X93379086Y-117622659D01*
X94349986Y-118295886D01*
X95433227Y-118858499D01*
X96614913Y-119302692D01*
X97881145Y-119620658D01*
X98504455Y-119724689D01*
X98982721Y-119765873D01*
X99555190Y-119775351D01*
X100162220Y-119755762D01*
X100744168Y-119709746D01*
X101241393Y-119639944D01*
X101449721Y-119594327D01*
X102245758Y-119315867D01*
X102961742Y-118925875D01*
X103572989Y-118442872D01*
X104054812Y-117885377D01*
X104306409Y-117451072D01*
X104412864Y-117207699D01*
X104482522Y-116988985D01*
X104523033Y-116746269D01*
X104542051Y-116430886D01*
X104547226Y-115994175D01*
X104547282Y-115919198D01*
X104522027Y-115225579D01*
X104438631Y-114583713D01*
X104285643Y-113951488D01*
X104051617Y-113286794D01*
X103725102Y-112547518D01*
X103513541Y-112116822D01*
X103259457Y-111596067D01*
X103087073Y-111204164D01*
X102999517Y-110948873D01*
X102998253Y-110839447D01*
X103097366Y-110783864D01*
X103119943Y-110791997D01*
X103172949Y-110872361D01*
X103310876Y-111087724D01*
X103524348Y-111423290D01*
X103803993Y-111864261D01*
X104140437Y-112395842D01*
X104524306Y-113003235D01*
X104946226Y-113671643D01*
X105386834Y-114370418D01*
X105838368Y-115086073D01*
X106262429Y-115756604D01*
X106649439Y-116366978D01*
X106989819Y-116902160D01*
X107273991Y-117347118D01*
X107492376Y-117686819D01*
X107635395Y-117906230D01*
X107693002Y-117989850D01*
X107802027Y-117983284D01*
X108023057Y-117878903D01*
X108332953Y-117693197D01*
X108708576Y-117442659D01*
X109126787Y-117143780D01*
X109564445Y-116813052D01*
X109998411Y-116466966D01*
X110405546Y-116122013D01*
X110732813Y-115823377D01*
X111127122Y-115439791D01*
X111418712Y-115133822D01*
X111638312Y-114866800D01*
X111816650Y-114600056D01*
X111984452Y-114294919D01*
X112048454Y-114167712D01*
X112423937Y-113409669D01*
X112423089Y-112252761D01*
X112421190Y-111777935D01*
X112411060Y-111435250D01*
X112384831Y-111179847D01*
X112334632Y-110966863D01*
X112252594Y-110751438D01*
X112130848Y-110488712D01*
X112103704Y-110432090D01*
X112031381Y-110282584D01*
X111961005Y-110145194D01*
X111883387Y-110009266D01*
X111789341Y-109864143D01*
X111669678Y-109699171D01*
X111515210Y-109503694D01*
X111316748Y-109267057D01*
X111065105Y-108978603D01*
X110751093Y-108627677D01*
X110365523Y-108203625D01*
X109899207Y-107695790D01*
X109342958Y-107093517D01*
X108687587Y-106386151D01*
X107923907Y-105563035D01*
X107659778Y-105278436D01*
X104665655Y-102052273D01*
X102606101Y-101994267D01*
X100691385Y-101908513D01*
X100488196Y-101891672D01*
X106473290Y-101891672D01*
X109315861Y-104955812D01*
X109907863Y-105591649D01*
X110479052Y-106200747D01*
X111014967Y-106767990D01*
X111501147Y-107278265D01*
X111923131Y-107716457D01*
X112266459Y-108067451D01*
X112516669Y-108316131D01*
X112645191Y-108435657D01*
X113350736Y-108940096D01*
X114115424Y-109310105D01*
X114911435Y-109538852D01*
X115710951Y-109619507D01*
X116486156Y-109545240D01*
X116817576Y-109460106D01*
X117586470Y-109140578D01*
X118372285Y-108664046D01*
X119157975Y-108047221D01*
X119926490Y-107306812D01*
X120660781Y-106459528D01*
X121343801Y-105522081D01*
X121958502Y-104511179D01*
X122062187Y-104319674D01*
X122617428Y-103125245D01*
X123097809Y-101774326D01*
X123323889Y-100933322D01*
X124901147Y-100933322D01*
X124909390Y-100952709D01*
X124980839Y-100834130D01*
X125104516Y-100600323D01*
X125269445Y-100274032D01*
X125464649Y-99877995D01*
X125679151Y-99434955D01*
X125901974Y-98967652D01*
X126122141Y-98498828D01*
X126328675Y-98051222D01*
X126510600Y-97647577D01*
X126656938Y-97310633D01*
X126701257Y-97204019D01*
X127654160Y-94660091D01*
X128435140Y-92112690D01*
X128659527Y-91254514D01*
X128762114Y-90839950D01*
X128846781Y-90489074D01*
X128905268Y-90236751D01*
X128929318Y-90117844D01*
X128929512Y-90114762D01*
X128885291Y-90156546D01*
X128766409Y-90318511D01*
X128593535Y-90571700D01*
X128475186Y-90751223D01*
X127714426Y-91802681D01*
X126842354Y-92807767D01*
X126182617Y-93459309D01*
X125482245Y-94103519D01*
X125578781Y-94767282D01*
X125643143Y-95532426D01*
X125637943Y-96424589D01*
X125566929Y-97409681D01*
X125433847Y-98453611D01*
X125242444Y-99522288D01*
X124996465Y-100581623D01*
X124901147Y-100933322D01*
X123323889Y-100933322D01*
X123501793Y-100271529D01*
X123667217Y-99502125D01*
X123724249Y-99138629D01*
X123774497Y-98674788D01*
X123816276Y-98148558D01*
X123847903Y-97597896D01*
X123867692Y-97060760D01*
X123873959Y-96575106D01*
X123865020Y-96178892D01*
X123839192Y-95910073D01*
X123828709Y-95862822D01*
X123752160Y-95586585D01*
X122467695Y-96438083D01*
X120462590Y-97661496D01*
X118360335Y-98738885D01*
X116166845Y-99668126D01*
X113888036Y-100447098D01*
X111529825Y-101073676D01*
X109098127Y-101545739D01*
X107678579Y-101745211D01*
X106473290Y-101891672D01*
X100488196Y-101891672D01*
X98897021Y-101759790D01*
X97175988Y-101542716D01*
X95481264Y-101251909D01*
X94669283Y-101085830D01*
X94182574Y-100989446D01*
X93814675Y-100933748D01*
X93584851Y-100921195D01*
X93516974Y-100938844D01*
X93405780Y-101092197D01*
X93237846Y-101376466D01*
X93028650Y-101760967D01*
X92793666Y-102215015D01*
X92548370Y-102707924D01*
X92308238Y-103209009D01*
X92088746Y-103687585D01*
X91905371Y-104112967D01*
X91861229Y-104221816D01*
X91315980Y-105742496D01*
X90902891Y-107228122D01*
X90621986Y-108668636D01*
X90473293Y-110053977D01*
X90456839Y-111374086D01*
X87755916Y-111374086D01*
X87692042Y-110470980D01*
X87728158Y-108942160D01*
X87905292Y-107377756D01*
X88223590Y-105789859D01*
X88683196Y-104190555D01*
X89284256Y-102591936D01*
X89442245Y-102226250D01*
X89655061Y-101762368D01*
X89886519Y-101285050D01*
X90104976Y-100858292D01*
X90242706Y-100607376D01*
X90418439Y-100298802D01*
X90513585Y-100108751D01*
X90528795Y-100037542D01*
X94158375Y-100037542D01*
X94170850Y-100086909D01*
X94362871Y-100157470D01*
X94703021Y-100246658D01*
X95164001Y-100349572D01*
X95718507Y-100461306D01*
X96339238Y-100576958D01*
X96998893Y-100691623D01*
X97670168Y-100800399D01*
X98325763Y-100898382D01*
X98938376Y-100980669D01*
X99480704Y-101042354D01*
X99502683Y-101044534D01*
X99928212Y-101086825D01*
X100313626Y-101125830D01*
X100609340Y-101156493D01*
X100741707Y-101170891D01*
X100918936Y-101182040D01*
X101236444Y-101193078D01*
X101657509Y-101203071D01*
X102145409Y-101211087D01*
X102464720Y-101214649D01*
X103922229Y-101227909D01*
X103430513Y-100719024D01*
X103295366Y-100576507D01*
X103063038Y-100328581D01*
X102749192Y-99992156D01*
X102369491Y-99584143D01*
X101939597Y-99121452D01*
X101475174Y-98620993D01*
X100991883Y-98099675D01*
X100505388Y-97574410D01*
X100031352Y-97062107D01*
X99791692Y-96802822D01*
X101790525Y-96802822D01*
X101839148Y-96865108D01*
X101994892Y-97042063D01*
X102244239Y-97318830D01*
X102573672Y-97680554D01*
X102969673Y-98112377D01*
X103418725Y-98599444D01*
X103797667Y-99008742D01*
X104349626Y-99602966D01*
X104795339Y-100079542D01*
X105148363Y-100451119D01*
X105422254Y-100730347D01*
X105630570Y-100929876D01*
X105786866Y-101062354D01*
X105904701Y-101140433D01*
X105997630Y-101176760D01*
X106079210Y-101183987D01*
X106124718Y-101180071D01*
X106325935Y-101157618D01*
X106654659Y-101123418D01*
X107062182Y-101082460D01*
X107423588Y-101047078D01*
X109812851Y-100728660D01*
X112188914Y-100239133D01*
X114530587Y-99584212D01*
X116816680Y-98769612D01*
X118442055Y-98075667D01*
X118873924Y-97871560D01*
X119342402Y-97639820D01*
X119822465Y-97394030D01*
X120289090Y-97147771D01*
X120717252Y-96914626D01*
X121081930Y-96708174D01*
X121358098Y-96542000D01*
X121520735Y-96429683D01*
X121552171Y-96387618D01*
X121461583Y-96403360D01*
X121243761Y-96471269D01*
X120936334Y-96579083D01*
X120733748Y-96654329D01*
X119133488Y-97182332D01*
X117424853Y-97594801D01*
X115600688Y-97892870D01*
X113653841Y-98077669D01*
X111577157Y-98150331D01*
X111273414Y-98151621D01*
X109175976Y-98097670D01*
X107173106Y-97934384D01*
X105278303Y-97663549D01*
X103505064Y-97286951D01*
X102391792Y-96976371D01*
X102101017Y-96888318D01*
X101884458Y-96825862D01*
X101790525Y-96802822D01*
X99791692Y-96802822D01*
X99585436Y-96579676D01*
X99183305Y-96144028D01*
X98840619Y-95772072D01*
X98573043Y-95480719D01*
X98396239Y-95286880D01*
X98327684Y-95209791D01*
X98258081Y-95256541D01*
X98084546Y-95412593D01*
X97825975Y-95659800D01*
X97501264Y-95980016D01*
X97129310Y-96355092D01*
X97037498Y-96448815D01*
X96604306Y-96904712D01*
X96165761Y-97389060D01*
X95736294Y-97883543D01*
X95330339Y-98369844D01*
X94962328Y-98829646D01*
X94646693Y-99244634D01*
X94397868Y-99596490D01*
X94230285Y-99866899D01*
X94158375Y-100037542D01*
X90528795Y-100037542D01*
X90536264Y-100002574D01*
X90494594Y-99945620D01*
X90406789Y-99907057D01*
X90232639Y-99861377D01*
X90153959Y-99865358D01*
X90070124Y-99925545D01*
X89865110Y-100076802D01*
X89559312Y-100303957D01*
X89173127Y-100591842D01*
X88726951Y-100925286D01*
X88428175Y-101148970D01*
X87951524Y-101504428D01*
X87518450Y-101824289D01*
X87150163Y-102093137D01*
X86867875Y-102295559D01*
X86692797Y-102416138D01*
X86647804Y-102442879D01*
X86629826Y-102482920D01*
X86613773Y-102593807D01*
X86599551Y-102783803D01*
X86587067Y-103061171D01*
X86576226Y-103434174D01*
X86566936Y-103911075D01*
X86559103Y-104500136D01*
X86552632Y-105209623D01*
X86547431Y-106047796D01*
X86543406Y-107022920D01*
X86540462Y-108143257D01*
X86538506Y-109417071D01*
X86537446Y-110852625D01*
X86537177Y-112201272D01*
X85386655Y-112201272D01*
X85386655Y-103358499D01*
X84125505Y-104180735D01*
X82136024Y-105440477D01*
X80208982Y-106585632D01*
X78362493Y-107605607D01*
X77519479Y-108042872D01*
X76599690Y-108509369D01*
X74042279Y-108509369D01*
X74146933Y-108462783D01*
X74146933Y-107184678D01*
X74146684Y-107103912D01*
X76576717Y-107103912D01*
X76589931Y-107234324D01*
X76601884Y-107246028D01*
X76695031Y-107206984D01*
X76915007Y-107099722D01*
X77232316Y-106939042D01*
X77617461Y-106739745D01*
X77768138Y-106660818D01*
X78816920Y-106093613D01*
X79951757Y-105450932D01*
X81117811Y-104764445D01*
X82244843Y-104075431D01*
X82693615Y-103792596D01*
X83170926Y-103486697D01*
X83653802Y-103173018D01*
X84119271Y-102866845D01*
X84544360Y-102583466D01*
X84906094Y-102338164D01*
X85181502Y-102146227D01*
X85347610Y-102022939D01*
X85386655Y-101984936D01*
X85311291Y-102009079D01*
X85102481Y-102098559D01*
X84786147Y-102241694D01*
X84388210Y-102426802D01*
X84037003Y-102593210D01*
X82461445Y-103308850D01*
X80871519Y-103961237D01*
X79312952Y-104532769D01*
X77831472Y-105005849D01*
X77581413Y-105077807D01*
X76723559Y-105320291D01*
X76677914Y-105774274D01*
X76620289Y-106381990D01*
X76586697Y-106822502D01*
X76576717Y-107103912D01*
X74146684Y-107103912D01*
X74145393Y-106685297D01*
X74138637Y-106337501D01*
X74123466Y-106115884D01*
X74096680Y-105995042D01*
X74055079Y-105949566D01*
X73995462Y-105954052D01*
X73992055Y-105955099D01*
X73773078Y-106007759D01*
X73412007Y-106076594D01*
X72942457Y-106156403D01*
X72398042Y-106241985D01*
X71812376Y-106328139D01*
X71219074Y-106409663D01*
X70651751Y-106481357D01*
X70407353Y-106509762D01*
X69711988Y-106570817D01*
X68877328Y-106616128D01*
X67940378Y-106645703D01*
X66938145Y-106659552D01*
X65907635Y-106657683D01*
X64885854Y-106640104D01*
X63909807Y-106606826D01*
X63016501Y-106557856D01*
X62391145Y-106507846D01*
X59532173Y-106159043D01*
X56671553Y-105655582D01*
X53839928Y-105004627D01*
X51067943Y-104213345D01*
X48386240Y-103288900D01*
X48007506Y-103144536D01*
X47755168Y-103047667D01*
X47582698Y-102993313D01*
X47492161Y-102998235D01*
X47485624Y-103079190D01*
X45661712Y-103079190D01*
X45614541Y-102999380D01*
X45332333Y-102488854D01*
X45141619Y-102168355D01*
X44963092Y-101925543D01*
X44825494Y-101798686D01*
X44808606Y-101791519D01*
X44622991Y-101716470D01*
X44305612Y-101569600D01*
X43880432Y-101363227D01*
X43371415Y-101109665D01*
X42802525Y-100821233D01*
X42197724Y-100510247D01*
X41580977Y-100189024D01*
X40976247Y-99869879D01*
X40407497Y-99565131D01*
X39898691Y-99287095D01*
X39498501Y-99062259D01*
X37722300Y-97998532D01*
X35903437Y-96821095D01*
X34079631Y-95557517D01*
X32288600Y-94235367D01*
X30568063Y-92882213D01*
X28955739Y-91525625D01*
X27935549Y-90610760D01*
X27541388Y-90238981D01*
X27274124Y-89966660D01*
X27123209Y-89781721D01*
X27078096Y-89672092D01*
X27090357Y-89643231D01*
X27245087Y-89553959D01*
X27415441Y-89607752D01*
X27601715Y-89777309D01*
X27811020Y-89981167D01*
X28138846Y-90272764D01*
X28562309Y-90633378D01*
X29058522Y-91044286D01*
X29604600Y-91486766D01*
X30177656Y-91942096D01*
X30754805Y-92391553D01*
X31313160Y-92816416D01*
X31355429Y-92848106D01*
X33444683Y-94344561D01*
X35637262Y-95786470D01*
X37890519Y-97148228D01*
X40161808Y-98404231D01*
X42408481Y-99528875D01*
X42747756Y-99687926D01*
X43206063Y-99899971D01*
X43605824Y-100083398D01*
X43920655Y-100226225D01*
X44124173Y-100316471D01*
X44190053Y-100342892D01*
X44167163Y-100267294D01*
X44082404Y-100059612D01*
X43947995Y-99748512D01*
X43776160Y-99362660D01*
X43766281Y-99340839D01*
X45501853Y-99340839D01*
X45560731Y-99516724D01*
X45707161Y-99834545D01*
X45938161Y-100301340D01*
X45992376Y-100409466D01*
X46436912Y-101295307D01*
X47525546Y-101692755D01*
X47944112Y-101845580D01*
X48309581Y-101979040D01*
X48585990Y-102080002D01*
X48737381Y-102135332D01*
X48746933Y-102138828D01*
X48903137Y-102189424D01*
X48917812Y-102168537D01*
X48875261Y-102127683D01*
X48774872Y-102048985D01*
X48562585Y-101888291D01*
X48269001Y-101668604D01*
X47924720Y-101412926D01*
X47906167Y-101399198D01*
X47468944Y-101055929D01*
X46980047Y-100640692D01*
X46507072Y-100212307D01*
X46201532Y-99915833D01*
X45880368Y-99594385D01*
X45658689Y-99386709D01*
X45533512Y-99299847D01*
X45501853Y-99340839D01*
X43766281Y-99340839D01*
X43707193Y-99210317D01*
X42654542Y-96682692D01*
X41763029Y-94091736D01*
X41032792Y-91447673D01*
X40799153Y-90344028D01*
X44428399Y-90344028D01*
X44538387Y-91647423D01*
X44804488Y-92932195D01*
X45227119Y-94186213D01*
X45806696Y-95397346D01*
X46543637Y-96553463D01*
X47438357Y-97642433D01*
X47447474Y-97652266D01*
X48470190Y-98631599D01*
X49645931Y-99534797D01*
X50966558Y-100358914D01*
X52423934Y-101101002D01*
X54009920Y-101758115D01*
X55716377Y-102327306D01*
X57535167Y-102805630D01*
X59458153Y-103190139D01*
X61477195Y-103477887D01*
X63584155Y-103665927D01*
X64146237Y-103698166D01*
X64940153Y-103736334D01*
X65601626Y-103761815D01*
X66174760Y-103774648D01*
X66703656Y-103774873D01*
X67232418Y-103762527D01*
X67805148Y-103737649D01*
X68438571Y-103701935D01*
X70357352Y-103535488D01*
X72209953Y-103274350D01*
X73384132Y-103050619D01*
X73790229Y-102962715D01*
X74126728Y-102886764D01*
X74359509Y-102830688D01*
X74454453Y-102802410D01*
X74454895Y-102801977D01*
X74478769Y-102709747D01*
X74526670Y-102483646D01*
X74590261Y-102163820D01*
X74625551Y-101980174D01*
X74650536Y-101869617D01*
X77403456Y-101869617D01*
X77422280Y-101935923D01*
X77535299Y-101907013D01*
X77769731Y-101830082D01*
X78081470Y-101719830D01*
X78189851Y-101680098D01*
X80068709Y-100923295D01*
X81988552Y-100029978D01*
X83907445Y-99020016D01*
X84434561Y-98721499D01*
X84892028Y-98448316D01*
X85197358Y-98234743D01*
X85358321Y-98064503D01*
X85382691Y-97921318D01*
X85278239Y-97788911D01*
X85052736Y-97651003D01*
X84966271Y-97607881D01*
X84473934Y-97353768D01*
X83875967Y-97020227D01*
X83211124Y-96630218D01*
X82518160Y-96206701D01*
X81835830Y-95772634D01*
X81536829Y-95576161D01*
X81133707Y-95308375D01*
X80778493Y-95072650D01*
X80499251Y-94887591D01*
X80324048Y-94771805D01*
X80282404Y-94744523D01*
X80200269Y-94790189D01*
X80064823Y-94981519D01*
X79885191Y-95298549D01*
X79670501Y-95721319D01*
X79429876Y-96229865D01*
X79172443Y-96804224D01*
X78907326Y-97424434D01*
X78643651Y-98070533D01*
X78390545Y-98722558D01*
X78157131Y-99360547D01*
X78107564Y-99502125D01*
X77869399Y-100203817D01*
X77676210Y-100804537D01*
X77531693Y-101291161D01*
X77439543Y-101650563D01*
X77403456Y-101869617D01*
X74650536Y-101869617D01*
X75019032Y-100239065D01*
X75546194Y-98434107D01*
X76194715Y-96601518D01*
X76952277Y-94777516D01*
X77412171Y-93788571D01*
X77526686Y-93551739D01*
X80789185Y-93551739D01*
X81340011Y-93966968D01*
X81688736Y-94221814D01*
X82110807Y-94517586D01*
X82582647Y-94839067D01*
X83080680Y-95171043D01*
X83581329Y-95498298D01*
X84061019Y-95805615D01*
X84496173Y-96077779D01*
X84863215Y-96299574D01*
X85138569Y-96455784D01*
X85298659Y-96531194D01*
X85320278Y-96535780D01*
X85332729Y-96450245D01*
X85344418Y-96203738D01*
X85355127Y-95812287D01*
X85364634Y-95291921D01*
X85372720Y-94658671D01*
X85379164Y-93928566D01*
X85383746Y-93117636D01*
X85385362Y-92551595D01*
X86540286Y-92551595D01*
X86540838Y-93556361D01*
X86542600Y-94408651D01*
X86545855Y-95120729D01*
X86550884Y-95704858D01*
X86557970Y-96173302D01*
X86567395Y-96538323D01*
X86579442Y-96812185D01*
X86594391Y-97007151D01*
X86612526Y-97135485D01*
X86634128Y-97209450D01*
X86659481Y-97241310D01*
X86675557Y-97245331D01*
X86797729Y-97196327D01*
X87029960Y-97062690D01*
X87339587Y-96864484D01*
X87693949Y-96621770D01*
X87715453Y-96606562D01*
X88554555Y-95990160D01*
X89460263Y-95286138D01*
X90397236Y-94524461D01*
X90653877Y-94307305D01*
X99458432Y-94307305D01*
X99525372Y-94426501D01*
X99694684Y-94598733D01*
X99919102Y-94782494D01*
X100151362Y-94936273D01*
X100210696Y-94967973D01*
X100572647Y-95122466D01*
X101073431Y-95299422D01*
X101677830Y-95489111D01*
X102350626Y-95681807D01*
X103056600Y-95867780D01*
X103760534Y-96037302D01*
X104427209Y-96180646D01*
X104945540Y-96275838D01*
X105999339Y-96418146D01*
X107181605Y-96522968D01*
X108447552Y-96589068D01*
X109752394Y-96615209D01*
X111051344Y-96600153D01*
X112299619Y-96542663D01*
X112910696Y-96495864D01*
X114821068Y-96266878D01*
X116627690Y-95928047D01*
X118319446Y-95482249D01*
X119885219Y-94932365D01*
X121159681Y-94359822D01*
X121664179Y-94097071D01*
X122127617Y-93838190D01*
X122525818Y-93598327D01*
X122834602Y-93392627D01*
X123029793Y-93236238D01*
X123088397Y-93151541D01*
X123040333Y-92994805D01*
X122910916Y-92731599D01*
X122722306Y-92399035D01*
X122496662Y-92034224D01*
X122256144Y-91674276D01*
X122022913Y-91356303D01*
X121996033Y-91322183D01*
X121266251Y-90543802D01*
X120404484Y-89868265D01*
X119425351Y-89299230D01*
X118343468Y-88840352D01*
X117173453Y-88495288D01*
X115929924Y-88267697D01*
X114627499Y-88161233D01*
X113280795Y-88179556D01*
X111904429Y-88326320D01*
X110832578Y-88529390D01*
X109253363Y-88954595D01*
X107618730Y-89525062D01*
X105955681Y-90229415D01*
X104291219Y-91056275D01*
X102747720Y-91936119D01*
X102354921Y-92182601D01*
X101914917Y-92471876D01*
X101450985Y-92787165D01*
X100986400Y-93111688D01*
X100544439Y-93428666D01*
X100148379Y-93721320D01*
X99821494Y-93972871D01*
X99587063Y-94166537D01*
X99468360Y-94285542D01*
X99458432Y-94307305D01*
X90653877Y-94307305D01*
X91330133Y-93735094D01*
X92223612Y-92948004D01*
X93042332Y-92193155D01*
X93750952Y-91500515D01*
X93817452Y-91432697D01*
X94327344Y-90910289D01*
X92440694Y-88878332D01*
X91616427Y-87999298D01*
X90883964Y-87237937D01*
X90223276Y-86574724D01*
X89614332Y-85990132D01*
X89037102Y-85464638D01*
X88471557Y-84978715D01*
X88266655Y-84809457D01*
X87650836Y-84305866D01*
X87097492Y-84912358D01*
X86544148Y-85518850D01*
X86540662Y-91382090D01*
X86540286Y-92551595D01*
X85385362Y-92551595D01*
X85386246Y-92241909D01*
X85386655Y-91705859D01*
X85386655Y-86874401D01*
X85002989Y-87347148D01*
X84298988Y-88247873D01*
X83557381Y-89256436D01*
X82814890Y-90320035D01*
X82108239Y-91385866D01*
X81474150Y-92401129D01*
X81388421Y-92544354D01*
X80789185Y-93551739D01*
X77526686Y-93551739D01*
X77858988Y-92864494D01*
X77042856Y-92121792D01*
X75179057Y-90308535D01*
X73412026Y-88350208D01*
X71746737Y-86253081D01*
X70188165Y-84023425D01*
X68741287Y-81667510D01*
X68721469Y-81633002D01*
X68376212Y-81011356D01*
X67999345Y-80298756D01*
X67611499Y-79537027D01*
X67233301Y-78767995D01*
X66885380Y-78033487D01*
X66588365Y-77375329D01*
X66394148Y-76914183D01*
X66261823Y-76593009D01*
X66234560Y-76540789D01*
X68255545Y-76540789D01*
X68281010Y-76675705D01*
X68360264Y-76901458D01*
X68498023Y-77241409D01*
X68699002Y-77718921D01*
X68722678Y-77774947D01*
X69780056Y-80064980D01*
X70993111Y-82307063D01*
X72345359Y-84474567D01*
X73820315Y-86540865D01*
X75218256Y-88267803D01*
X75512426Y-88601195D01*
X75864532Y-88986205D01*
X76255347Y-89403265D01*
X76665643Y-89832809D01*
X77076192Y-90255270D01*
X77467768Y-90651081D01*
X77821142Y-91000675D01*
X78117087Y-91284486D01*
X78336375Y-91482946D01*
X78459778Y-91576489D01*
X78474232Y-91581219D01*
X78546990Y-91509572D01*
X78686976Y-91315063D01*
X78873299Y-91028340D01*
X79062421Y-90718327D01*
X80285765Y-88778616D01*
X81664294Y-86821142D01*
X83203901Y-84837905D01*
X84714719Y-83044310D01*
X84776519Y-82967328D01*
X88979176Y-82967328D01*
X89152079Y-83193586D01*
X89245384Y-83301945D01*
X89446997Y-83526367D01*
X89744574Y-83853408D01*
X90125769Y-84269621D01*
X90578234Y-84761562D01*
X91089625Y-85315786D01*
X91647594Y-85918846D01*
X92239797Y-86557298D01*
X92326638Y-86650789D01*
X95328293Y-89881734D01*
X95743127Y-89426076D01*
X96033504Y-89103470D01*
X96346716Y-88750014D01*
X96409779Y-88677784D01*
X102525088Y-88677784D01*
X103435402Y-88220967D01*
X105184111Y-87418299D01*
X106951031Y-86753255D01*
X108716194Y-86231374D01*
X110459632Y-85858196D01*
X112161379Y-85639260D01*
X112910696Y-85592435D01*
X114441555Y-85601505D01*
X115920265Y-85752183D01*
X117335734Y-86039065D01*
X118676867Y-86456743D01*
X119932571Y-86999814D01*
X121091752Y-87662870D01*
X122143316Y-88440507D01*
X123076170Y-89327319D01*
X123879220Y-90317900D01*
X124435410Y-91208061D01*
X124803123Y-91878053D01*
X125317641Y-91309253D01*
X125611610Y-90967244D01*
X125946271Y-90551929D01*
X126263110Y-90136590D01*
X126356582Y-90008106D01*
X127024504Y-88946980D01*
X127600548Y-87769148D01*
X128065270Y-86519409D01*
X128374728Y-85358809D01*
X128464998Y-84785883D01*
X128517838Y-84112747D01*
X128533817Y-83390876D01*
X128513506Y-82671745D01*
X128457474Y-82006832D01*
X128366290Y-81447610D01*
X128329808Y-81299491D01*
X127983728Y-80244914D01*
X127543657Y-79292427D01*
X126987446Y-78404639D01*
X126292940Y-77544162D01*
X125793032Y-77017821D01*
X124775587Y-76107456D01*
X123656342Y-75312190D01*
X122423090Y-74625471D01*
X121063623Y-74040742D01*
X119565735Y-73551450D01*
X119105818Y-73427016D01*
X118079347Y-73192808D01*
X116966659Y-72993934D01*
X115853255Y-72844005D01*
X114935243Y-72763023D01*
X113994981Y-72705089D01*
X113774960Y-73093851D01*
X113647684Y-73318880D01*
X113457725Y-73654912D01*
X113229452Y-74058832D01*
X112987234Y-74487525D01*
X112954971Y-74544634D01*
X111694441Y-76670013D01*
X110296591Y-78832842D01*
X108785983Y-80998983D01*
X107187178Y-83134296D01*
X105524736Y-85204644D01*
X104051009Y-86920520D01*
X103696916Y-87320638D01*
X103364655Y-87698103D01*
X103080366Y-88023069D01*
X102870189Y-88265692D01*
X102783920Y-88367235D01*
X102525088Y-88677784D01*
X96409779Y-88677784D01*
X96540632Y-88527909D01*
X97883358Y-86891057D01*
X97915677Y-86847532D01*
X102642624Y-86847532D01*
X102724155Y-86767015D01*
X102900181Y-86574688D01*
X103150333Y-86293413D01*
X103454242Y-85946052D01*
X103729775Y-85627355D01*
X105971243Y-82898209D01*
X108083502Y-80075267D01*
X110052034Y-77178987D01*
X111862319Y-74229831D01*
X112059162Y-73889149D01*
X112740322Y-72702655D01*
X111350069Y-72756949D01*
X110736548Y-72787029D01*
X110290216Y-72823297D01*
X110001335Y-72866851D01*
X109860165Y-72918788D01*
X109852653Y-72925673D01*
X109767920Y-73070062D01*
X109662988Y-73320969D01*
X109592005Y-73526864D01*
X109225680Y-74586391D01*
X108763200Y-75757521D01*
X108218378Y-77013155D01*
X107605026Y-78326198D01*
X106936954Y-79669551D01*
X106227977Y-81016116D01*
X105491904Y-82338797D01*
X104742548Y-83610496D01*
X103993721Y-84804116D01*
X103369322Y-85735087D01*
X103103129Y-86122243D01*
X102883901Y-86448565D01*
X102726554Y-86691221D01*
X102646003Y-86827378D01*
X102642624Y-86847532D01*
X97915677Y-86847532D01*
X99179099Y-85146053D01*
X100411598Y-83320470D01*
X101564603Y-81441881D01*
X102621858Y-79537860D01*
X103567111Y-77635979D01*
X104384106Y-75763812D01*
X104949112Y-74263893D01*
X105108269Y-73806149D01*
X104650772Y-73939229D01*
X102665031Y-74588445D01*
X100647088Y-75385771D01*
X98630221Y-76314868D01*
X96647709Y-77359399D01*
X94732828Y-78503026D01*
X93053660Y-79632789D01*
X92468103Y-80065000D01*
X91798464Y-80583508D01*
X91088895Y-81152601D01*
X90383552Y-81736569D01*
X89726588Y-82299702D01*
X89417584Y-82573485D01*
X88979176Y-82967328D01*
X84776519Y-82967328D01*
X84929265Y-82777059D01*
X85053566Y-82576116D01*
X85070019Y-82470099D01*
X85068726Y-82468745D01*
X84917754Y-82355207D01*
X84636798Y-82174165D01*
X84252363Y-81940827D01*
X83790952Y-81670403D01*
X83279072Y-81378100D01*
X82743226Y-81079127D01*
X82209920Y-80788692D01*
X82113495Y-80737696D01*
X86952658Y-80737696D01*
X87596902Y-80163464D01*
X87979647Y-79826566D01*
X88417655Y-79447438D01*
X88829562Y-79096381D01*
X88915816Y-79023847D01*
X90885237Y-77480953D01*
X92965395Y-76056211D01*
X95137420Y-74759317D01*
X97382442Y-73599969D01*
X99681589Y-72587864D01*
X102015991Y-71732698D01*
X104366778Y-71044169D01*
X104519822Y-71005382D01*
X105012723Y-70878396D01*
X105445937Y-70760602D01*
X105790112Y-70660480D01*
X106015894Y-70586509D01*
X106092286Y-70551118D01*
X106142709Y-70432246D01*
X106220775Y-70169623D01*
X106279870Y-69944091D01*
X110713146Y-69944091D01*
X110777491Y-69983136D01*
X110957841Y-69974132D01*
X111098536Y-69955974D01*
X111338398Y-69935360D01*
X111710869Y-69918002D01*
X111977863Y-69910669D01*
X115388745Y-69910669D01*
X115465169Y-69965938D01*
X115632125Y-69986811D01*
X116032727Y-70012613D01*
X116568911Y-70085120D01*
X117207688Y-70197054D01*
X117916070Y-70341139D01*
X118661066Y-70510097D01*
X119409690Y-70696651D01*
X120128950Y-70893524D01*
X120785860Y-71093437D01*
X121052857Y-71182631D01*
X122324489Y-71680069D01*
X123559531Y-72275933D01*
X124740063Y-72956218D01*
X125848165Y-73706918D01*
X126865917Y-74514027D01*
X127775400Y-75363540D01*
X128558694Y-76241451D01*
X129197880Y-77133755D01*
X129600389Y-77863160D01*
X129731279Y-78117827D01*
X129833593Y-78278210D01*
X129886228Y-78311519D01*
X129887285Y-78308945D01*
X129889583Y-78194673D01*
X129877045Y-77933994D01*
X129851663Y-77556702D01*
X129815426Y-77092593D01*
X129773756Y-76609468D01*
X129433810Y-73788948D01*
X128927190Y-71024354D01*
X128255176Y-68319085D01*
X127419047Y-65676537D01*
X126420084Y-63100108D01*
X125259565Y-60593195D01*
X123938771Y-58159195D01*
X122458981Y-55801507D01*
X121335783Y-54207258D01*
X121050156Y-53827077D01*
X120800112Y-53507662D01*
X120604312Y-53271793D01*
X120481417Y-53142251D01*
X120449695Y-53125612D01*
X120418788Y-53225787D01*
X120365634Y-53470600D01*
X120296132Y-53829940D01*
X120216180Y-54273693D01*
X120156383Y-54623027D01*
X119724357Y-56889357D01*
X119184312Y-59199206D01*
X118548237Y-61513296D01*
X117828122Y-63792347D01*
X117035957Y-65997082D01*
X116183732Y-68088222D01*
X115753288Y-69047777D01*
X115597561Y-69391212D01*
X115475013Y-69675445D01*
X115401989Y-69861785D01*
X115388745Y-69910669D01*
X111977863Y-69910669D01*
X112171564Y-69905349D01*
X112676099Y-69898848D01*
X112866895Y-69898292D01*
X114214418Y-69898292D01*
X114836742Y-68548641D01*
X115839399Y-66284878D01*
X116722626Y-64095365D01*
X117501129Y-61938866D01*
X118189620Y-59774147D01*
X118802806Y-57559973D01*
X118917146Y-57109791D01*
X119050609Y-56555496D01*
X119191693Y-55932774D01*
X119333746Y-55274760D01*
X119470117Y-54614589D01*
X119594157Y-53985398D01*
X119699212Y-53420322D01*
X119778634Y-52952497D01*
X119825770Y-52615058D01*
X119831986Y-52551951D01*
X119858083Y-52242195D01*
X119238571Y-52213322D01*
X118812455Y-52207223D01*
X118247906Y-52219411D01*
X117582280Y-52247454D01*
X116852931Y-52288918D01*
X116097214Y-52341372D01*
X115352483Y-52402384D01*
X114656093Y-52469519D01*
X114045398Y-52540347D01*
X113884216Y-52561990D01*
X113220306Y-52659010D01*
X112629967Y-52753763D01*
X112134771Y-52842212D01*
X111756287Y-52920319D01*
X111516089Y-52984048D01*
X111440260Y-53019368D01*
X111438113Y-53118799D01*
X111465768Y-53355409D01*
X111518207Y-53692832D01*
X111583724Y-54059414D01*
X111885123Y-56024643D01*
X112052828Y-58029622D01*
X112087178Y-60093908D01*
X111988511Y-62237055D01*
X111763733Y-64427716D01*
X111651262Y-65226600D01*
X111512428Y-66090248D01*
X111355151Y-66977333D01*
X111187350Y-67846527D01*
X111016945Y-68656503D01*
X110851856Y-69365933D01*
X110725523Y-69845347D01*
X110713146Y-69944091D01*
X106279870Y-69944091D01*
X106319441Y-69793071D01*
X106431667Y-69332412D01*
X106550412Y-68817467D01*
X106668634Y-68278058D01*
X106779293Y-67744006D01*
X106875346Y-67245133D01*
X106883758Y-67198989D01*
X107236761Y-64931378D01*
X107463141Y-62729584D01*
X107562515Y-60605959D01*
X107534501Y-58572853D01*
X107378716Y-56642618D01*
X107241664Y-55649512D01*
X107158141Y-55120803D01*
X107094786Y-54744155D01*
X107039464Y-54497598D01*
X106980038Y-54359163D01*
X106904373Y-54306880D01*
X106800332Y-54318780D01*
X106655781Y-54372892D01*
X106557783Y-54411483D01*
X104453618Y-55304419D01*
X102445737Y-56344611D01*
X100537456Y-57528693D01*
X98732093Y-58853300D01*
X97032962Y-60315065D01*
X95443381Y-61910622D01*
X93966666Y-63636604D01*
X92606133Y-65489645D01*
X91365099Y-67466380D01*
X90246880Y-69563442D01*
X89254792Y-71777464D01*
X89120483Y-72110836D01*
X88686429Y-73270583D01*
X88281069Y-74484546D01*
X87913744Y-75717370D01*
X87593793Y-76933698D01*
X87330554Y-78098173D01*
X87133368Y-79175439D01*
X87016777Y-80074963D01*
X86952658Y-80737696D01*
X82113495Y-80737696D01*
X81705659Y-80522004D01*
X81427791Y-80379576D01*
X79044850Y-79275085D01*
X76589396Y-78331085D01*
X74067911Y-77549672D01*
X71486876Y-76932940D01*
X69810348Y-76626203D01*
X69364620Y-76557313D01*
X68961728Y-76500741D01*
X68645090Y-76462213D01*
X68458126Y-76447454D01*
X68454733Y-76447439D01*
X68347122Y-76450018D01*
X68279154Y-76473347D01*
X68255545Y-76540789D01*
X66234560Y-76540789D01*
X66160558Y-76399044D01*
X66055783Y-76295111D01*
X65912931Y-76244031D01*
X65744740Y-76215748D01*
X65482890Y-76195751D01*
X65076102Y-76188622D01*
X64555879Y-76193146D01*
X63953727Y-76208112D01*
X63301148Y-76232306D01*
X62629647Y-76264516D01*
X61970730Y-76303527D01*
X61355898Y-76348128D01*
X60816658Y-76397106D01*
X60694669Y-76410190D01*
X58619668Y-76703874D01*
X56681930Y-77107673D01*
X54879485Y-77622410D01*
X53210364Y-78248908D01*
X51672598Y-78987990D01*
X50264217Y-79840479D01*
X48983252Y-80807198D01*
X47994669Y-81717797D01*
X47023527Y-82811892D01*
X46205582Y-83972280D01*
X45541251Y-85186830D01*
X45030951Y-86443410D01*
X44675098Y-87729891D01*
X44474109Y-89034140D01*
X44428399Y-90344028D01*
X40799153Y-90344028D01*
X40463971Y-88760725D01*
X40056705Y-86041116D01*
X39811134Y-83299068D01*
X39731188Y-80669475D01*
X41329770Y-80669475D01*
X41339822Y-81397185D01*
X41360894Y-82309646D01*
X41385770Y-83084974D01*
X41417497Y-83763041D01*
X41459124Y-84383714D01*
X41513699Y-84986865D01*
X41584270Y-85612364D01*
X41673886Y-86300079D01*
X41763214Y-86934878D01*
X41851210Y-87539203D01*
X41919728Y-87978535D01*
X41973422Y-88263229D01*
X42016949Y-88403640D01*
X42054963Y-88410127D01*
X42092120Y-88293044D01*
X42133076Y-88062748D01*
X42167344Y-87833915D01*
X42246525Y-87371727D01*
X42355881Y-86836962D01*
X42475171Y-86326719D01*
X42507690Y-86201118D01*
X43002958Y-84677474D01*
X43654311Y-83234286D01*
X44457124Y-81877833D01*
X45406772Y-80614391D01*
X46498628Y-79450240D01*
X47728068Y-78391657D01*
X48843293Y-77601834D01*
X50339620Y-76733684D01*
X51965137Y-75980756D01*
X53713284Y-75344685D01*
X55577500Y-74827108D01*
X57551225Y-74429659D01*
X59627898Y-74153975D01*
X61800958Y-74001691D01*
X63414150Y-73969372D01*
X64039696Y-73968494D01*
X64509522Y-73964668D01*
X64844909Y-73956111D01*
X65067136Y-73941041D01*
X65197484Y-73917673D01*
X65257233Y-73884224D01*
X65267662Y-73838910D01*
X65262033Y-73814494D01*
X64802459Y-72194847D01*
X64428564Y-70657859D01*
X64127225Y-69139332D01*
X63885315Y-67575065D01*
X63737708Y-66358223D01*
X63674073Y-65634445D01*
X63626775Y-64804591D01*
X63621168Y-64641650D01*
X65834667Y-64641650D01*
X65837732Y-65329014D01*
X65850515Y-65975749D01*
X65873635Y-66557680D01*
X65907709Y-67050632D01*
X65917763Y-67154738D01*
X66015124Y-67946610D01*
X66150484Y-68832198D01*
X66315709Y-69771558D01*
X66502663Y-70724748D01*
X66703214Y-71651825D01*
X66909226Y-72512846D01*
X67112566Y-73267868D01*
X67259790Y-73744649D01*
X67376550Y-74095187D01*
X68836829Y-74333087D01*
X69785015Y-74494102D01*
X70613894Y-74651084D01*
X71380368Y-74816778D01*
X72141335Y-75003930D01*
X72953696Y-75225286D01*
X73423546Y-75360541D01*
X73954886Y-75513281D01*
X74485740Y-75661631D01*
X74966982Y-75792147D01*
X75349487Y-75891386D01*
X75474460Y-75921821D01*
X75997896Y-76017722D01*
X76542588Y-76071014D01*
X77060244Y-76080744D01*
X77502568Y-76045958D01*
X77815714Y-75968054D01*
X78149829Y-75745698D01*
X78348694Y-75422484D01*
X78413740Y-75010023D01*
X78346394Y-74519925D01*
X78148086Y-73963800D01*
X77820245Y-73353261D01*
X77422870Y-72776412D01*
X77283379Y-72606490D01*
X77040909Y-72327602D01*
X76705584Y-71950637D01*
X76287523Y-71486480D01*
X75796848Y-70946021D01*
X75243679Y-70340144D01*
X74638139Y-69679739D01*
X73990349Y-68975693D01*
X73310428Y-68238891D01*
X72608499Y-67480223D01*
X71894683Y-66710574D01*
X71179101Y-65940833D01*
X70471873Y-65181886D01*
X69783121Y-64444621D01*
X69122967Y-63739924D01*
X68501531Y-63078684D01*
X67928934Y-62471788D01*
X67415298Y-61930122D01*
X66970743Y-61464574D01*
X66605391Y-61086031D01*
X66329363Y-60805380D01*
X66152781Y-60633509D01*
X66085833Y-60581225D01*
X66033404Y-60723284D01*
X65985748Y-61018121D01*
X65943484Y-61441561D01*
X65907229Y-61969429D01*
X65877601Y-62577547D01*
X65855220Y-63241740D01*
X65840703Y-63937833D01*
X65834667Y-64641650D01*
X63621168Y-64641650D01*
X63595823Y-63905056D01*
X63581225Y-62972232D01*
X63582991Y-62042515D01*
X63601128Y-61152298D01*
X63635645Y-60337974D01*
X63686552Y-59635939D01*
X63736011Y-59201282D01*
X63798501Y-58744470D01*
X63814350Y-58607402D01*
X66426762Y-58607402D01*
X66457078Y-58702063D01*
X66516113Y-58782537D01*
X66516387Y-58782854D01*
X66589295Y-58862684D01*
X66774765Y-59064021D01*
X67065073Y-59378519D01*
X67452493Y-59797834D01*
X67929302Y-60313622D01*
X68487773Y-60917537D01*
X69120182Y-61601235D01*
X69818805Y-62356371D01*
X70575917Y-63174600D01*
X71383792Y-64047579D01*
X72234707Y-64966961D01*
X73120936Y-65924403D01*
X74034754Y-66911560D01*
X74968437Y-67920087D01*
X75914260Y-68941640D01*
X76864498Y-69967873D01*
X77811426Y-70990442D01*
X78747319Y-72001003D01*
X79664454Y-72991211D01*
X80555104Y-73952720D01*
X81411546Y-74877187D01*
X82226054Y-75756267D01*
X82990903Y-76581615D01*
X83698369Y-77344886D01*
X84340727Y-78037736D01*
X84452990Y-78158800D01*
X85342404Y-79117913D01*
X85364726Y-59492504D01*
X85366671Y-57641410D01*
X85368250Y-55837316D01*
X85369470Y-54088199D01*
X85369769Y-53506585D01*
X86543589Y-53506585D01*
X86543715Y-55444813D01*
X86544206Y-57548619D01*
X86544801Y-59265427D01*
X86552424Y-78969721D01*
X86800623Y-77642195D01*
X86909601Y-77083208D01*
X87031602Y-76496046D01*
X87152958Y-75944345D01*
X87259998Y-75491743D01*
X87276931Y-75424768D01*
X87940630Y-73165675D01*
X88755522Y-70967979D01*
X89714316Y-68846605D01*
X90809720Y-66816473D01*
X92034443Y-64892508D01*
X93182696Y-63337828D01*
X93601829Y-62837190D01*
X94127639Y-62254894D01*
X94729851Y-61620862D01*
X95378189Y-60965013D01*
X96042381Y-60317268D01*
X96692150Y-59707546D01*
X97297223Y-59165767D01*
X97827325Y-58721852D01*
X97953902Y-58622478D01*
X98543348Y-58182778D01*
X99233175Y-57692563D01*
X99980986Y-57180119D01*
X100744380Y-56673728D01*
X101480960Y-56201676D01*
X102148327Y-55792246D01*
X102525425Y-55572808D01*
X103337294Y-55138045D01*
X104232862Y-54699377D01*
X105134760Y-54293258D01*
X105919059Y-53973806D01*
X106260736Y-53838987D01*
X106539702Y-53720444D01*
X106713882Y-53636433D01*
X106747139Y-53614500D01*
X106753335Y-53502553D01*
X106706588Y-53255152D01*
X106615842Y-52902675D01*
X106490043Y-52475499D01*
X106338135Y-52004002D01*
X106169064Y-51518561D01*
X105992094Y-51050359D01*
X105249096Y-49403602D01*
X104364464Y-47849125D01*
X103347685Y-46395081D01*
X102208252Y-45049627D01*
X100955653Y-43820918D01*
X99599380Y-42717107D01*
X98148923Y-41746351D01*
X96613771Y-40916805D01*
X95003415Y-40236623D01*
X93327345Y-39713961D01*
X92681969Y-39561453D01*
X102772739Y-39561453D01*
X102825564Y-39623806D01*
X102990454Y-39768989D01*
X103238745Y-39972474D01*
X103424350Y-40118990D01*
X104266256Y-40830806D01*
X105139206Y-41671451D01*
X106010572Y-42604601D01*
X106847724Y-43593931D01*
X107618033Y-44603116D01*
X108153177Y-45383310D01*
X108768234Y-46405133D01*
X109368192Y-47541672D01*
X109927406Y-48737103D01*
X110420229Y-49935602D01*
X110821014Y-51081346D01*
X110918012Y-51401428D01*
X111041814Y-51824039D01*
X111129523Y-52103813D01*
X111194836Y-52267771D01*
X111251446Y-52342933D01*
X111313052Y-52356320D01*
X111391489Y-52335539D01*
X111531312Y-52305292D01*
X111808170Y-52255918D01*
X112183959Y-52193884D01*
X112620571Y-52125659D01*
X112689442Y-52115217D01*
X114474843Y-51899352D01*
X116337981Y-51781407D01*
X117802010Y-51755435D01*
X119383377Y-51755435D01*
X119181776Y-51467805D01*
X119031892Y-51284418D01*
X118771354Y-50998546D01*
X118418838Y-50628547D01*
X117993020Y-50192780D01*
X117512577Y-49709604D01*
X116996186Y-49197379D01*
X116462523Y-48674463D01*
X115930266Y-48159216D01*
X115418090Y-47669997D01*
X114944673Y-47225165D01*
X114528691Y-46843079D01*
X114188821Y-46542097D01*
X114061219Y-46434315D01*
X112028280Y-44842243D01*
X109946285Y-43380273D01*
X107837595Y-42063147D01*
X105724575Y-40905607D01*
X105509315Y-40796903D01*
X105054834Y-40573030D01*
X104578098Y-40344729D01*
X104106376Y-40124312D01*
X103666936Y-39924091D01*
X103287050Y-39756375D01*
X102993985Y-39633475D01*
X102815010Y-39567703D01*
X102772739Y-39561453D01*
X92681969Y-39561453D01*
X92599547Y-39541976D01*
X92014279Y-39444050D01*
X91301990Y-39367999D01*
X90511524Y-39315637D01*
X89691724Y-39288779D01*
X88891430Y-39289241D01*
X88159488Y-39318839D01*
X87697323Y-39359777D01*
X87303945Y-39408586D01*
X86969709Y-39455738D01*
X86738168Y-39494774D01*
X86661450Y-39513444D01*
X86647367Y-39538071D01*
X86634376Y-39605037D01*
X86622440Y-39720828D01*
X86611519Y-39891932D01*
X86601577Y-40124834D01*
X86592574Y-40426020D01*
X86584472Y-40801977D01*
X86577232Y-41259191D01*
X86570817Y-41804149D01*
X86565189Y-42443336D01*
X86560308Y-43183239D01*
X86556137Y-44030344D01*
X86552637Y-44991138D01*
X86549770Y-46072106D01*
X86547498Y-47279735D01*
X86545782Y-48620511D01*
X86544584Y-50100921D01*
X86543865Y-51727450D01*
X86543589Y-53506585D01*
X85369769Y-53506585D01*
X85370336Y-52402035D01*
X85370854Y-50786800D01*
X85371029Y-49250471D01*
X85370866Y-47801024D01*
X85370372Y-46446435D01*
X85369553Y-45194681D01*
X85368413Y-44053738D01*
X85366958Y-43031582D01*
X85365194Y-42136189D01*
X85363126Y-41375536D01*
X85360761Y-40757599D01*
X85358103Y-40290355D01*
X85355158Y-39981779D01*
X85351932Y-39839848D01*
X85350915Y-39830962D01*
X85248747Y-39837132D01*
X85014614Y-39899283D01*
X84680241Y-40006048D01*
X84277351Y-40146056D01*
X83837669Y-40307940D01*
X83392919Y-40480330D01*
X82974825Y-40651858D01*
X82615112Y-40811154D01*
X82613009Y-40812137D01*
X81054059Y-41637110D01*
X79579655Y-42610658D01*
X78198834Y-43721263D01*
X76920635Y-44957412D01*
X75754096Y-46307587D01*
X74708255Y-47760272D01*
X73792150Y-49303952D01*
X73014819Y-50927111D01*
X72385300Y-52618233D01*
X71912632Y-54365801D01*
X71888455Y-54476864D01*
X71810481Y-54808493D01*
X71738042Y-55061416D01*
X71683151Y-55195526D01*
X71669731Y-55207003D01*
X71642827Y-55123981D01*
X71612713Y-54896593D01*
X71582690Y-54557356D01*
X71556057Y-54138790D01*
X71550740Y-54034355D01*
X71488688Y-53178726D01*
X71393092Y-52450373D01*
X71266632Y-51864844D01*
X71111990Y-51437689D01*
X71098233Y-51410342D01*
X70891876Y-51163925D01*
X70615395Y-51073166D01*
X70278436Y-51135712D01*
X69890645Y-51349213D01*
X69461669Y-51711316D01*
X69334154Y-51840413D01*
X68715806Y-52596518D01*
X68142859Y-53518826D01*
X67617959Y-54601781D01*
X67143746Y-55839825D01*
X66722866Y-57227401D01*
X66661448Y-57459844D01*
X66542509Y-57924774D01*
X66466040Y-58250109D01*
X66428604Y-58467201D01*
X66426762Y-58607402D01*
X63814350Y-58607402D01*
X63834977Y-58429010D01*
X63845286Y-58221150D01*
X63829271Y-58087136D01*
X63786778Y-57993217D01*
X63730135Y-57920178D01*
X63409972Y-57554912D01*
X63016225Y-57121380D01*
X62569421Y-56640729D01*
X62090086Y-56134102D01*
X61598744Y-55622645D01*
X61115923Y-55127503D01*
X60662148Y-54669821D01*
X60257944Y-54270744D01*
X59923839Y-53951416D01*
X59680357Y-53732983D01*
X59612187Y-53678028D01*
X58817896Y-53142298D01*
X58018800Y-52748933D01*
X57167819Y-52479862D01*
X56217875Y-52317012D01*
X56010374Y-52295458D01*
X55151927Y-52273365D01*
X54321095Y-52376554D01*
X53503834Y-52611693D01*
X52686104Y-52985447D01*
X51853861Y-53504485D01*
X50993066Y-54175471D01*
X50089674Y-55005073D01*
X49894019Y-55199280D01*
X48882050Y-56286865D01*
X47947616Y-57443031D01*
X47081844Y-58683492D01*
X46275865Y-60023961D01*
X45520810Y-61480154D01*
X44807808Y-63067784D01*
X44127989Y-64802566D01*
X43570301Y-66402474D01*
X42850720Y-68767701D01*
X42275890Y-71095700D01*
X41841096Y-73418174D01*
X41541622Y-75766826D01*
X41372752Y-78173359D01*
X41329770Y-80669475D01*
X39731188Y-80669475D01*
X39727398Y-80544804D01*
X39805636Y-77788547D01*
X40045988Y-75040520D01*
X40448592Y-72310947D01*
X41013590Y-69610049D01*
X41741119Y-66948049D01*
X42631320Y-64335172D01*
X43211237Y-62872541D01*
X44390146Y-60276926D01*
X45722219Y-57767673D01*
X47203130Y-55350354D01*
X48828554Y-53030538D01*
X50594165Y-50813796D01*
X52495637Y-48705697D01*
X52530561Y-48671445D01*
X59742301Y-48671445D01*
X59762694Y-49056132D01*
X59933852Y-50180510D01*
X60255889Y-51225247D01*
X60737775Y-52213759D01*
X61288347Y-53038710D01*
X61530444Y-53346205D01*
X61834030Y-53709987D01*
X62180258Y-54109752D01*
X62550278Y-54525194D01*
X62925241Y-54936008D01*
X63286299Y-55321889D01*
X63614602Y-55662532D01*
X63891302Y-55937632D01*
X64097550Y-56126885D01*
X64214496Y-56209984D01*
X64231673Y-56209422D01*
X64283931Y-56092508D01*
X64361753Y-55853499D01*
X64448995Y-55542318D01*
X64455650Y-55516759D01*
X65008430Y-53684422D01*
X65714814Y-51842695D01*
X66559141Y-50019621D01*
X67525749Y-48243245D01*
X68598978Y-46541613D01*
X69763165Y-44942768D01*
X71002650Y-43474755D01*
X71441429Y-43007327D01*
X72842849Y-41649211D01*
X74335460Y-40377112D01*
X75892874Y-39209965D01*
X77488705Y-38166702D01*
X79096568Y-37266259D01*
X80143482Y-36763006D01*
X80516878Y-36599533D01*
X80835225Y-36467414D01*
X81061469Y-36381571D01*
X81153876Y-36356132D01*
X81223755Y-36330510D01*
X81216109Y-36315668D01*
X81107528Y-36305111D01*
X80850295Y-36322465D01*
X80469912Y-36363997D01*
X79991880Y-36425978D01*
X79441699Y-36504675D01*
X78844872Y-36596359D01*
X78226898Y-36697297D01*
X77613279Y-36803759D01*
X77029517Y-36912015D01*
X76712643Y-36974563D01*
X75218926Y-37306169D01*
X73712141Y-37695433D01*
X72225280Y-38131632D01*
X70791338Y-38604045D01*
X69443307Y-39101950D01*
X68214180Y-39614625D01*
X67380365Y-40007290D01*
X66311986Y-40594774D01*
X65257121Y-41277032D01*
X64236976Y-42034551D01*
X63272757Y-42847818D01*
X62385668Y-43697321D01*
X61596916Y-44563546D01*
X60927705Y-45426981D01*
X60399242Y-46268112D01*
X60239622Y-46578083D01*
X59945999Y-47293298D01*
X59784323Y-47969795D01*
X59742301Y-48671445D01*
X52530561Y-48671445D01*
X54528646Y-46711814D01*
X56688866Y-44837715D01*
X58039616Y-43776581D01*
X60309832Y-42169284D01*
X62674962Y-40708001D01*
X65125657Y-39395708D01*
X67652573Y-38235381D01*
X70246360Y-37229994D01*
X72897674Y-36382525D01*
X75597166Y-35695947D01*
X78335490Y-35173238D01*
X81103299Y-34817372D01*
X83891246Y-34631326D01*
X86689984Y-34618074D01*
X86798485Y-34621078D01*
G37*
%TD*%
%LPC*%
D12*
%TO.C,H4*%
X52499569Y-116296129D03*
%TD*%
%TO.C,H1*%
X43949569Y-54546129D03*
%TD*%
%TO.C,H2*%
X105280000Y-43120000D03*
%TD*%
%TO.C,H3*%
X137750000Y-135750000D03*
%TD*%
%LPD*%
M02*
