%TF.GenerationSoftware,KiCad,Pcbnew,8.0.4*%
%TF.CreationDate,2024-11-04T14:23:45+01:00*%
%TF.ProjectId,Whiplaesh,57686970-6c61-4657-9368-2e6b69636164,0.1*%
%TF.SameCoordinates,Original*%
%TF.FileFunction,Paste,Bot*%
%TF.FilePolarity,Positive*%
%FSLAX46Y46*%
G04 Gerber Fmt 4.6, Leading zero omitted, Abs format (unit mm)*
G04 Created by KiCad (PCBNEW 8.0.4) date 2024-11-04 14:23:45*
%MOMM*%
%LPD*%
G01*
G04 APERTURE LIST*
G04 Aperture macros list*
%AMRoundRect*
0 Rectangle with rounded corners*
0 $1 Rounding radius*
0 $2 $3 $4 $5 $6 $7 $8 $9 X,Y pos of 4 corners*
0 Add a 4 corners polygon primitive as box body*
4,1,4,$2,$3,$4,$5,$6,$7,$8,$9,$2,$3,0*
0 Add four circle primitives for the rounded corners*
1,1,$1+$1,$2,$3*
1,1,$1+$1,$4,$5*
1,1,$1+$1,$6,$7*
1,1,$1+$1,$8,$9*
0 Add four rect primitives between the rounded corners*
20,1,$1+$1,$2,$3,$4,$5,0*
20,1,$1+$1,$4,$5,$6,$7,0*
20,1,$1+$1,$6,$7,$8,$9,0*
20,1,$1+$1,$8,$9,$2,$3,0*%
%AMRotRect*
0 Rectangle, with rotation*
0 The origin of the aperture is its center*
0 $1 length*
0 $2 width*
0 $3 Rotation angle, in degrees counterclockwise*
0 Add horizontal line*
21,1,$1,$2,0,0,$3*%
G04 Aperture macros list end*
%ADD10R,2.600000X2.600000*%
%ADD11R,2.550000X2.500000*%
%ADD12RotRect,2.600000X2.600000X345.000000*%
%ADD13RotRect,2.550000X2.500000X165.000000*%
%ADD14RotRect,2.600000X2.600000X350.000000*%
%ADD15RotRect,2.550000X2.500000X170.000000*%
%ADD16RotRect,2.600000X2.600000X15.000000*%
%ADD17RotRect,2.550000X2.500000X195.000000*%
%ADD18RotRect,2.600000X2.600000X10.000000*%
%ADD19RotRect,2.550000X2.500000X190.000000*%
%ADD20RoundRect,0.225000X-0.225000X-0.375000X0.225000X-0.375000X0.225000X0.375000X-0.225000X0.375000X0*%
%ADD21RoundRect,0.225000X-0.314390X-0.303988X0.120276X-0.420456X0.314390X0.303988X-0.120276X0.420456X0*%
%ADD22RoundRect,0.225000X-0.286700X-0.330232X0.156464X-0.408374X0.286700X0.330232X-0.156464X0.408374X0*%
%ADD23RoundRect,0.225000X-0.156464X-0.408374X0.286700X-0.330232X0.156464X0.408374X-0.286700X0.330232X0*%
%ADD24RoundRect,0.225000X-0.120276X-0.420456X0.314390X-0.303988X0.120276X0.420456X-0.314390X0.303988X0*%
G04 APERTURE END LIST*
D10*
%TO.C,SW1*%
X48997918Y-58264871D03*
X49597918Y-59164871D03*
D11*
X50982918Y-59544871D03*
D10*
X60547918Y-60364871D03*
X63147918Y-60214871D03*
D11*
X64832918Y-57004871D03*
%TD*%
D10*
%TO.C,SW14*%
X177691651Y-77370702D03*
X178291651Y-78270702D03*
D11*
X179676651Y-78650702D03*
D10*
X189241651Y-79470702D03*
X191841651Y-79320702D03*
D11*
X193526651Y-76110702D03*
%TD*%
D12*
%TO.C,SW30*%
X118540487Y-126197664D03*
X118887106Y-127222287D03*
D13*
X120126562Y-127947803D03*
D12*
X129153411Y-131215467D03*
X131703641Y-131743507D03*
D13*
X134162035Y-129078996D03*
%TD*%
D10*
%TO.C,SW8*%
X234691651Y-58370702D03*
X235291651Y-59270702D03*
D11*
X236676651Y-59650702D03*
D10*
X246241651Y-60470702D03*
X248841651Y-60320702D03*
D11*
X250526651Y-57110702D03*
%TD*%
D14*
%TO.C,SW28*%
X253420260Y-105989819D03*
X253854861Y-106980335D03*
D15*
X255152833Y-107595064D03*
D14*
X264430128Y-110063552D03*
X267016677Y-110367316D03*
D15*
X269233487Y-107498680D03*
%TD*%
D10*
%TO.C,SW10*%
X48974569Y-77346129D03*
X49574569Y-78246129D03*
D11*
X50959569Y-78626129D03*
D10*
X60524569Y-79446129D03*
X63124569Y-79296129D03*
D11*
X64809569Y-76086129D03*
%TD*%
D16*
%TO.C,SW32*%
X184042251Y-125588130D03*
X184854744Y-126302172D03*
D17*
X186290902Y-126310759D03*
D16*
X195742214Y-124627214D03*
X198214799Y-123809396D03*
D17*
X199011575Y-120272664D03*
%TD*%
D10*
%TO.C,SW17*%
X234691651Y-77370702D03*
X235291651Y-78270702D03*
D11*
X236676651Y-78650702D03*
D10*
X246241651Y-79470702D03*
X248841651Y-79320702D03*
D11*
X250526651Y-76110702D03*
%TD*%
D18*
%TO.C,SW9*%
X27198077Y-90127776D03*
X27945245Y-90909914D03*
D19*
X29375190Y-91043638D03*
D18*
X38937268Y-90190236D03*
X41471721Y-89591032D03*
D19*
X42573711Y-86137199D03*
%TD*%
D10*
%TO.C,SW5*%
X177691651Y-58370702D03*
X178291651Y-59270702D03*
D11*
X179676651Y-59650702D03*
D10*
X189241651Y-60470702D03*
X191841651Y-60320702D03*
D11*
X193526651Y-57110702D03*
%TD*%
D10*
%TO.C,SW4*%
X105974569Y-58346129D03*
X106574569Y-59246129D03*
D11*
X107959569Y-59626129D03*
D10*
X117524569Y-60446129D03*
X120124569Y-60296129D03*
D11*
X121809569Y-57086129D03*
%TD*%
D10*
%TO.C,SW24*%
X177691651Y-96370702D03*
X178291651Y-97270702D03*
D11*
X179676651Y-97650702D03*
D10*
X189241651Y-98470702D03*
X191841651Y-98320702D03*
D11*
X193526651Y-95110702D03*
%TD*%
D10*
%TO.C,SW16*%
X215691651Y-67870702D03*
X216291651Y-68770702D03*
D11*
X217676651Y-69150702D03*
D10*
X227241651Y-69970702D03*
X229841651Y-69820702D03*
D11*
X231526651Y-66610702D03*
%TD*%
D10*
%TO.C,SW25*%
X196691651Y-91620702D03*
X197291651Y-92520702D03*
D11*
X198676651Y-92900702D03*
D10*
X208241651Y-93720702D03*
X210841651Y-93570702D03*
D11*
X212526651Y-90360702D03*
%TD*%
D10*
%TO.C,SW2*%
X67974569Y-48846129D03*
X68574569Y-49746129D03*
D11*
X69959569Y-50126129D03*
D10*
X79524569Y-50946129D03*
X82124569Y-50796129D03*
D11*
X83809569Y-47586129D03*
%TD*%
D10*
%TO.C,SW7*%
X215691651Y-48870702D03*
X216291651Y-49770702D03*
D11*
X217676651Y-50150702D03*
D10*
X227241651Y-50970702D03*
X229841651Y-50820702D03*
D11*
X231526651Y-47610702D03*
%TD*%
D18*
%TO.C,SW19*%
X30497393Y-108839123D03*
X31244561Y-109621261D03*
D19*
X32674506Y-109754985D03*
D18*
X42236584Y-108901583D03*
X44771037Y-108302379D03*
D19*
X45873027Y-104848546D03*
%TD*%
D10*
%TO.C,SW3*%
X86974570Y-53596129D03*
X87574570Y-54496129D03*
D11*
X88959570Y-54876129D03*
D10*
X98524570Y-55696129D03*
X101124570Y-55546129D03*
D11*
X102809570Y-52336129D03*
%TD*%
D10*
%TO.C,SW21*%
X67974569Y-86846129D03*
X68574569Y-87746129D03*
D11*
X69959569Y-88126129D03*
D10*
X79524569Y-88946129D03*
X82124569Y-88796129D03*
D11*
X83809569Y-85586129D03*
%TD*%
D12*
%TO.C,SW29*%
X100187897Y-121280103D03*
X100534516Y-122304726D03*
D13*
X101773972Y-123030242D03*
D12*
X110800821Y-126297906D03*
X113351051Y-126825946D03*
D13*
X115809445Y-124161435D03*
%TD*%
D10*
%TO.C,SW26*%
X215691651Y-86870702D03*
X216291651Y-87770702D03*
D11*
X217676651Y-88150702D03*
D10*
X227241651Y-88970702D03*
X229841651Y-88820702D03*
D11*
X231526651Y-85610702D03*
%TD*%
D10*
%TO.C,SW23*%
X105974569Y-96346129D03*
X106574569Y-97246129D03*
D11*
X107959569Y-97626129D03*
D10*
X117524569Y-98446129D03*
X120124569Y-98296129D03*
D11*
X121809569Y-95086129D03*
%TD*%
D10*
%TO.C,SW20*%
X48974569Y-96346129D03*
X49574569Y-97246129D03*
D11*
X50959569Y-97626129D03*
D10*
X60524569Y-98446129D03*
X63124569Y-98296129D03*
D11*
X64809569Y-95086129D03*
%TD*%
D10*
%TO.C,SW27*%
X234691651Y-96370702D03*
X235291651Y-97270702D03*
D11*
X236676651Y-97650702D03*
D10*
X246241651Y-98470702D03*
X248841651Y-98320702D03*
D11*
X250526651Y-95110702D03*
%TD*%
D10*
%TO.C,SW13*%
X105974569Y-77346129D03*
X106574569Y-78246129D03*
D11*
X107959569Y-78626129D03*
D10*
X117524569Y-79446129D03*
X120124569Y-79296129D03*
D11*
X121809569Y-76086129D03*
%TD*%
D10*
%TO.C,SW22*%
X86974569Y-91596129D03*
X87574569Y-92496129D03*
D11*
X88959569Y-92876129D03*
D10*
X98524569Y-93696129D03*
X101124569Y-93546129D03*
D11*
X102809569Y-90336129D03*
%TD*%
D10*
%TO.C,SW11*%
X67974569Y-67846129D03*
X68574569Y-68746129D03*
D11*
X69959569Y-69126129D03*
D10*
X79524569Y-69946129D03*
X82124569Y-69796129D03*
D11*
X83809569Y-66586129D03*
%TD*%
D10*
%TO.C,SW12*%
X86974570Y-72596129D03*
X87574570Y-73496129D03*
D11*
X88959570Y-73876129D03*
D10*
X98524570Y-74696129D03*
X101124570Y-74546129D03*
D11*
X102809570Y-71336129D03*
%TD*%
D14*
%TO.C,SW18*%
X256719576Y-87278472D03*
X257154177Y-88268988D03*
D15*
X258452149Y-88883717D03*
D14*
X267729444Y-91352205D03*
X270315993Y-91655969D03*
D15*
X272532803Y-88787333D03*
%TD*%
D16*
%TO.C,SW31*%
X165689660Y-130505691D03*
X166502153Y-131219733D03*
D17*
X167938311Y-131228320D03*
D16*
X177389623Y-129544775D03*
X179862208Y-128726957D03*
D17*
X180658984Y-125190225D03*
%TD*%
D10*
%TO.C,SW6*%
X196691651Y-53620702D03*
X197291651Y-54520702D03*
D11*
X198676651Y-54900702D03*
D10*
X208241651Y-55720702D03*
X210841651Y-55570702D03*
D11*
X212526651Y-52360702D03*
%TD*%
D10*
%TO.C,SW15*%
X196691651Y-72620702D03*
X197291651Y-73520702D03*
D11*
X198676651Y-73900702D03*
D10*
X208241651Y-74720702D03*
X210841651Y-74570702D03*
D11*
X212526651Y-71360702D03*
%TD*%
D20*
%TO.C,D20*%
X48800000Y-86750000D03*
X52100000Y-86750000D03*
%TD*%
%TO.C,D15*%
X196540000Y-63010000D03*
X199840000Y-63010000D03*
%TD*%
%TO.C,D5*%
X177540000Y-48760000D03*
X180840000Y-48760000D03*
%TD*%
D21*
%TO.C,D30*%
X120912444Y-116845899D03*
X124100000Y-117699999D03*
%TD*%
D22*
%TO.C,D18*%
X258265067Y-77793481D03*
X261514933Y-78366519D03*
%TD*%
D23*
%TO.C,D19*%
X28400000Y-99300000D03*
X31649866Y-98726962D03*
%TD*%
D21*
%TO.C,D29*%
X102559853Y-111928337D03*
X105747409Y-112782437D03*
%TD*%
D20*
%TO.C,D12*%
X86800001Y-63000000D03*
X90100001Y-63000000D03*
%TD*%
%TO.C,D26*%
X215540000Y-77260000D03*
X218840000Y-77260000D03*
%TD*%
%TO.C,D21*%
X67800000Y-77250000D03*
X71100000Y-77250000D03*
%TD*%
%TO.C,D14*%
X177540000Y-67760000D03*
X180840000Y-67760000D03*
%TD*%
D23*
%TO.C,D9*%
X25100685Y-80588652D03*
X28350551Y-80015614D03*
%TD*%
D20*
%TO.C,D23*%
X105800000Y-86750000D03*
X109100000Y-86750000D03*
%TD*%
%TO.C,D27*%
X234540000Y-86760000D03*
X237840000Y-86760000D03*
%TD*%
%TO.C,D10*%
X48800000Y-67750000D03*
X52100000Y-67750000D03*
%TD*%
%TO.C,D25*%
X196540000Y-82010000D03*
X199840000Y-82010000D03*
%TD*%
%TO.C,D17*%
X234540000Y-67760000D03*
X237840000Y-67760000D03*
%TD*%
%TO.C,D7*%
X215540000Y-39260000D03*
X218840000Y-39260000D03*
%TD*%
D24*
%TO.C,D31*%
X163046222Y-121227050D03*
X166233778Y-120372950D03*
%TD*%
D20*
%TO.C,D4*%
X105800000Y-48750000D03*
X109100000Y-48750000D03*
%TD*%
%TO.C,D11*%
X67800000Y-58250000D03*
X71100000Y-58250000D03*
%TD*%
%TO.C,D1*%
X48800000Y-48750000D03*
X52100000Y-48750000D03*
%TD*%
%TO.C,D3*%
X86800001Y-44000000D03*
X90100001Y-44000000D03*
%TD*%
%TO.C,D22*%
X86800000Y-82000000D03*
X90100000Y-82000000D03*
%TD*%
%TO.C,D8*%
X234540000Y-48760000D03*
X237840000Y-48760000D03*
%TD*%
%TO.C,D2*%
X67800000Y-39250000D03*
X71100000Y-39250000D03*
%TD*%
D22*
%TO.C,D28*%
X254965752Y-96504829D03*
X258215618Y-97077867D03*
%TD*%
D24*
%TO.C,D32*%
X181398813Y-116309488D03*
X184586369Y-115455388D03*
%TD*%
D20*
%TO.C,D16*%
X215540000Y-58260000D03*
X218840000Y-58260000D03*
%TD*%
%TO.C,D13*%
X105800000Y-67750000D03*
X109100000Y-67750000D03*
%TD*%
%TO.C,D24*%
X177540000Y-86760000D03*
X180840000Y-86760000D03*
%TD*%
%TO.C,D6*%
X195132500Y-47050000D03*
X198432500Y-47050000D03*
%TD*%
M02*
