%TF.GenerationSoftware,KiCad,Pcbnew,8.0.4*%
%TF.CreationDate,2024-11-04T03:11:28+01:00*%
%TF.ProjectId,Whiplaesh,57686970-6c61-4657-9368-2e6b69636164,0.1*%
%TF.SameCoordinates,Original*%
%TF.FileFunction,Other,Comment*%
%FSLAX46Y46*%
G04 Gerber Fmt 4.6, Leading zero omitted, Abs format (unit mm)*
G04 Created by KiCad (PCBNEW 8.0.4) date 2024-11-04 03:11:28*
%MOMM*%
%LPD*%
G01*
G04 APERTURE LIST*
%ADD10C,0.120000*%
%ADD11C,0.150000*%
G04 APERTURE END LIST*
D10*
%TO.C,VIK_OUT2*%
X161566651Y-99979444D02*
X161566651Y-97479444D01*
X168566651Y-99979444D02*
X168566651Y-97479444D01*
D11*
%TO.C,H5*%
X258466651Y-54570702D02*
G75*
G02*
X254066651Y-54570702I-2200000J0D01*
G01*
X254066651Y-54570702D02*
G75*
G02*
X258466651Y-54570702I2200000J0D01*
G01*
%TO.C,H4*%
X54699569Y-116296129D02*
G75*
G02*
X50299569Y-116296129I-2200000J0D01*
G01*
X50299569Y-116296129D02*
G75*
G02*
X54699569Y-116296129I2200000J0D01*
G01*
%TO.C,H6*%
X197140000Y-43130000D02*
G75*
G02*
X192740000Y-43130000I-2200000J0D01*
G01*
X192740000Y-43130000D02*
G75*
G02*
X197140000Y-43130000I2200000J0D01*
G01*
%TO.C,H1*%
X46149569Y-54546129D02*
G75*
G02*
X41749569Y-54546129I-2200000J0D01*
G01*
X41749569Y-54546129D02*
G75*
G02*
X46149569Y-54546129I2200000J0D01*
G01*
%TO.C,H8*%
X249916651Y-116320702D02*
G75*
G02*
X245516651Y-116320702I-2200000J0D01*
G01*
X245516651Y-116320702D02*
G75*
G02*
X249916651Y-116320702I2200000J0D01*
G01*
D10*
%TO.C,VIK_OUT1*%
X131649569Y-99954871D02*
X131649569Y-97454871D01*
X138649569Y-99954871D02*
X138649569Y-97454871D01*
D11*
%TO.C,H7*%
X164650000Y-135750000D02*
G75*
G02*
X160250000Y-135750000I-2200000J0D01*
G01*
X160250000Y-135750000D02*
G75*
G02*
X164650000Y-135750000I2200000J0D01*
G01*
%TO.C,H2*%
X107480000Y-43120000D02*
G75*
G02*
X103080000Y-43120000I-2200000J0D01*
G01*
X103080000Y-43120000D02*
G75*
G02*
X107480000Y-43120000I2200000J0D01*
G01*
%TO.C,H3*%
X139950000Y-135750000D02*
G75*
G02*
X135550000Y-135750000I-2200000J0D01*
G01*
X135550000Y-135750000D02*
G75*
G02*
X139950000Y-135750000I2200000J0D01*
G01*
%TD*%
M02*
