0
SECTION
2
HEADER
9
$INSUNITS
70
4
0
ENDSEC
0
SECTION
2
TABLES
0
TABLE
2
LTYPE
0
LTYPE
72
65
70
64
2
CONTINUOUS
3
______
73
0
40
0
0
ENDTAB
0
TABLE
2
LAYER
0
ENDTAB
0
ENDSEC
0
SECTION
2
ENTITIES
0
LINE
8
0
10
162.1812718
20
-170.8388638
11
180.5738268
21
-100.8804925
0
LINE
8
0
10
178.4488812
20
-97.2199155
11
160.5842952
21
-92.4331141
0
LINE
8
0
10
159.9046639
20
-92.1582751
11
126.3040604
21
-73.5053615
0
LINE
8
0
10
125.6244291
20
-73.2305225
11
104.4489403
21
-67.5565675
0
LINE
8
0
10
103.0710421
20
-67.5152518
11
83.6487333
21
-71.4897345
0
LINE
8
0
10
82.395681
20
-72.0706814
11
51.9901543
21
-95.9821944
0
LINE
8
0
10
50.8560636
20
-98.0788737
11
47.4917176
21
-136.533525
0
LINE
8
0
10
49.2113119
20
-139.5133859
11
103.939242
21
-165.0612592
0
LINE
8
0
10
104.1702522
20
-165.1815768
11
138.824729
21
-185.1893483
0
LINE
8
0
10
141.9776987
20
-185.0948078
11
160.9328389
21
-172.5796001
0
ARC
8
0
10
177.6724242
20
-100.117693
40
3
50
345.2698739
51
75.0000021
0
ARC
8
0
10
161.3607522
20
-89.5353365
40
3
50
240.9637567
51
255.0000021
0
ARC
8
0
10
124.8479721
20
-76.1283001
40
3
50
60.9637567
51
75.0000021
0
ARC
8
0
10
103.6724833
20
-70.454345
40
3
50
75.0000021
51
101.5650531
0
ARC
8
0
10
84.2501745
20
-74.4288277
40
3
50
101.5650531
51
128.1822186
0
ARC
8
0
10
53.8446477
20
-98.3403408
40
3
50
128.1822186
51
175.0000024
0
ARC
8
0
10
50.4803017
20
-136.7949921
40
3
50
175.0000024
51
244.9760803
0
ARC
8
0
10
102.6702522
20
-167.779653
40
3
50
59.9999999
51
64.9760803
0
ARC
8
0
10
140.324729
20
-182.5912721
40
3
50
239.9999999
51
303.4349511
0
ARC
8
0
10
159.2798692
20
-170.0760644
40
3
50
303.4349511
51
345.2698739
0
LINE
8
0
10
50.558769
20
-135.8981075
11
67.4940788
21
-137.3797551
0
LINE
8
0
10
67.4940788
20
-137.3797551
11
68.9757264
21
-120.4444453
0
LINE
8
0
10
68.9757264
20
-120.4444453
11
52.0404166
21
-118.9627977
0
LINE
8
0
10
52.0404166
20
-118.9627977
11
50.558769
21
-135.8981075
0
LINE
8
0
10
52.2147281
20
-116.9704082
11
69.1500379
21
-118.4520558
0
LINE
8
0
10
69.1500379
20
-118.4520558
11
70.6316855
21
-101.516746
0
LINE
8
0
10
70.6316855
20
-101.516746
11
53.6963757
21
-100.0350984
0
LINE
8
0
10
53.6963757
20
-100.0350984
11
52.2147281
21
-116.9704082
0
LINE
8
0
10
70.8397691
20
-128.4321593
11
87.2605081
21
-132.8320831
0
LINE
8
0
10
87.2605081
20
-132.8320831
11
91.6604319
21
-116.4113441
0
LINE
8
0
10
91.6604319
20
-116.4113441
11
75.2396929
21
-112.0114203
0
LINE
8
0
10
75.2396929
20
-112.0114203
11
70.8397691
21
-128.4321593
0
LINE
8
0
10
75.757331
20
-110.0795686
11
92.17807
21
-114.4794924
0
LINE
8
0
10
92.17807
20
-114.4794924
11
96.5779938
21
-98.0587534
0
LINE
8
0
10
96.5779938
20
-98.0587534
11
80.1572548
21
-93.6588296
0
LINE
8
0
10
80.1572548
20
-93.6588296
11
75.757331
21
-110.0795686
0
LINE
8
0
10
80.6748929
20
-91.7269779
11
97.0956319
21
-96.1269017
0
LINE
8
0
10
97.0956319
20
-96.1269017
11
101.4955557
21
-79.7061627
0
LINE
8
0
10
101.4955557
20
-79.7061627
11
85.0748167
21
-75.3062389
0
LINE
8
0
10
85.0748167
20
-75.3062389
11
80.6748929
21
-91.7269779
0
LINE
8
0
10
91.6511408
20
-124.1734259
11
108.0718798
21
-128.5733497
0
LINE
8
0
10
108.0718798
20
-128.5733497
11
112.4718036
21
-112.1526107
0
LINE
8
0
10
112.4718036
20
-112.1526107
11
96.0510646
21
-107.7526869
0
LINE
8
0
10
96.0510646
20
-107.7526869
11
91.6511408
21
-124.1734259
0
LINE
8
0
10
96.5687026
20
-105.8208352
11
112.9894416
21
-110.220759
0
LINE
8
0
10
112.9894416
20
-110.220759
11
117.3893654
21
-93.80002
0
LINE
8
0
10
117.3893654
20
-93.80002
11
100.9686264
21
-89.4000962
0
LINE
8
0
10
100.9686264
20
-89.4000962
11
96.5687026
21
-105.8208352
0
LINE
8
0
10
101.4862645
20
-87.4682444
11
117.9070035
21
-91.8681682
0
LINE
8
0
10
117.9070035
20
-91.8681682
11
122.3069273
21
-75.4474292
0
LINE
8
0
10
122.3069273
20
-75.4474292
11
105.8861883
21
-71.0475054
0
LINE
8
0
10
105.8861883
20
-71.0475054
11
101.4862645
21
-87.4682444
0
LINE
8
0
10
108.774341
20
-133.6791354
11
125.19508
21
-138.0790592
0
LINE
8
0
10
125.19508
20
-138.0790592
11
129.5950038
21
-121.6583202
0
LINE
8
0
10
129.5950038
20
-121.6583202
11
113.1742648
21
-117.2583964
0
LINE
8
0
10
113.1742648
20
-117.2583964
11
108.774341
21
-133.6791354
0
LINE
8
0
10
113.6919029
20
-115.3265447
11
130.1126419
21
-119.7264685
0
LINE
8
0
10
130.1126419
20
-119.7264685
11
134.5125657
21
-103.3057295
0
LINE
8
0
10
134.5125657
20
-103.3057295
11
118.0918267
21
-98.9058057
0
LINE
8
0
10
118.0918267
20
-98.9058057
11
113.6919029
21
-115.3265447
0
LINE
8
0
10
118.6094648
20
-96.973954
11
135.0302038
21
-101.3738778
0
LINE
8
0
10
135.0302038
20
-101.3738778
11
139.4301276
21
-84.9531388
0
LINE
8
0
10
139.4301276
20
-84.9531388
11
123.0093886
21
-80.553215
0
LINE
8
0
10
123.0093886
20
-80.553215
11
118.6094648
21
-96.973954
0
LINE
8
0
10
125.8975413
20
-143.1848449
11
142.3182803
21
-147.5847687
0
LINE
8
0
10
142.3182803
20
-147.5847687
11
146.7182041
21
-131.1640297
0
LINE
8
0
10
146.7182041
20
-131.1640297
11
130.2974651
21
-126.7641059
0
LINE
8
0
10
130.2974651
20
-126.7641059
11
125.8975413
21
-143.1848449
0
LINE
8
0
10
130.8151032
20
-124.8322541
11
147.2358422
21
-129.2321779
0
LINE
8
0
10
147.2358422
20
-129.2321779
11
151.635766
21
-112.8114389
0
LINE
8
0
10
151.635766
20
-112.8114389
11
135.215027
21
-108.4115151
0
LINE
8
0
10
135.215027
20
-108.4115151
11
130.8151032
21
-124.8322541
0
LINE
8
0
10
135.732665
20
-106.4796634
11
152.153404
21
-110.8795872
0
LINE
8
0
10
152.153404
20
-110.8795872
11
156.5533278
21
-94.4588482
0
LINE
8
0
10
156.5533278
20
-94.4588482
11
140.1325888
21
-90.0589244
0
LINE
8
0
10
140.1325888
20
-90.0589244
11
135.732665
21
-106.4796634
0
LINE
8
0
10
108.1554377
20
-164.0183231
11
122.8778695
21
-172.5183231
0
LINE
8
0
10
122.8778695
20
-172.5183231
11
131.3778695
21
-157.7958913
0
LINE
8
0
10
131.3778695
20
-157.7958913
11
116.6554377
21
-149.2958913
0
LINE
8
0
10
116.6554377
20
-149.2958913
11
108.1554377
21
-164.0183231
0
LINE
8
0
10
124.6099204
20
-173.5183231
11
139.3323522
21
-182.0183231
0
LINE
8
0
10
139.3323522
20
-182.0183231
11
147.8323522
21
-167.2958913
0
LINE
8
0
10
147.8323522
20
-167.2958913
11
133.1099204
21
-158.7958913
0
LINE
8
0
10
133.1099204
20
-158.7958913
11
124.6099204
21
-173.5183231
0
ENDSEC
0
EOF