0
SECTION
2
HEADER
9
$INSUNITS
70
4
0
ENDSEC
0
SECTION
2
TABLES
0
TABLE
2
LTYPE
0
LTYPE
72
65
70
64
2
CONTINUOUS
3
______
73
0
40
0
0
ENDTAB
0
TABLE
2
LAYER
0
ENDTAB
0
ENDSEC
0
SECTION
2
ENTITIES
0
LINE
8
0
10
225.104721
20
-170.8388638
11
206.712166
21
-100.8804925
0
LINE
8
0
10
208.8371116
20
-97.2199155
11
226.7016976
21
-92.4331141
0
LINE
8
0
10
227.3813289
20
-92.1582751
11
260.9819324
21
-73.5053615
0
LINE
8
0
10
261.6615637
20
-73.2305225
11
282.8370525
21
-67.5565675
0
LINE
8
0
10
284.2149507
20
-67.5152518
11
303.6372595
21
-71.4897345
0
LINE
8
0
10
304.8903118
20
-72.0706814
11
335.2958385
21
-95.9821944
0
LINE
8
0
10
336.4299292
20
-98.0788737
11
339.7942752
21
-136.533525
0
LINE
8
0
10
338.0746809
20
-139.5133859
11
283.3467508
21
-165.0612592
0
LINE
8
0
10
283.1157406
20
-165.1815768
11
248.4612638
21
-185.1893483
0
LINE
8
0
10
245.3082941
20
-185.0948078
11
226.3531539
21
-172.5796001
0
ARC
8
0
10
209.6135686
20
-100.117693
40
3
50
104.9999979
51
194.7301261
0
ARC
8
0
10
225.9252406
20
-89.5353365
40
3
50
284.9999979
51
299.0362433
0
ARC
8
0
10
262.4380207
20
-76.1283001
40
3
50
104.9999979
51
119.0362433
0
ARC
8
0
10
283.6135095
20
-70.454345
40
3
50
78.4349469
51
104.9999979
0
ARC
8
0
10
303.0358183
20
-74.4288277
40
3
50
51.8177814
51
78.4349469
0
ARC
8
0
10
333.4413451
20
-98.3403408
40
3
50
4.9999976
51
51.8177814
0
ARC
8
0
10
336.8056911
20
-136.7949921
40
3
50
295.0239197
51
4.9999976
0
ARC
8
0
10
284.6157406
20
-167.779653
40
3
50
115.0239197
51
120.0000001
0
ARC
8
0
10
246.9612638
20
-182.5912721
40
3
50
236.5650489
51
300.0000001
0
ARC
8
0
10
228.0061236
20
-170.0760644
40
3
50
194.7301261
51
236.5650489
0
LINE
8
0
10
319.791914
20
-137.3797551
11
336.7272238
21
-135.8981075
0
LINE
8
0
10
336.7272238
20
-135.8981075
11
335.2455762
21
-118.9627977
0
LINE
8
0
10
335.2455762
20
-118.9627977
11
318.3102664
21
-120.4444453
0
LINE
8
0
10
318.3102664
20
-120.4444453
11
319.791914
21
-137.3797551
0
LINE
8
0
10
318.1359549
20
-118.4520558
11
335.0712647
21
-116.9704082
0
LINE
8
0
10
335.0712647
20
-116.9704082
11
333.5896171
21
-100.0350984
0
LINE
8
0
10
333.5896171
20
-100.0350984
11
316.6543073
21
-101.516746
0
LINE
8
0
10
316.6543073
20
-101.516746
11
318.1359549
21
-118.4520558
0
LINE
8
0
10
300.0254847
20
-132.8320831
11
316.4462237
21
-128.4321593
0
LINE
8
0
10
316.4462237
20
-128.4321593
11
312.0462999
21
-112.0114203
0
LINE
8
0
10
312.0462999
20
-112.0114203
11
295.6255609
21
-116.4113441
0
LINE
8
0
10
295.6255609
20
-116.4113441
11
300.0254847
21
-132.8320831
0
LINE
8
0
10
295.1079228
20
-114.4794924
11
311.5286618
21
-110.0795686
0
LINE
8
0
10
311.5286618
20
-110.0795686
11
307.128738
21
-93.6588296
0
LINE
8
0
10
307.128738
20
-93.6588296
11
290.707999
21
-98.0587534
0
LINE
8
0
10
290.707999
20
-98.0587534
11
295.1079228
21
-114.4794924
0
LINE
8
0
10
290.1903609
20
-96.1269017
11
306.6110999
21
-91.7269779
0
LINE
8
0
10
306.6110999
20
-91.7269779
11
302.2111761
21
-75.3062389
0
LINE
8
0
10
302.2111761
20
-75.3062389
11
285.7904371
21
-79.7061627
0
LINE
8
0
10
285.7904371
20
-79.7061627
11
290.1903609
21
-96.1269017
0
LINE
8
0
10
279.214113
20
-128.5733497
11
295.634852
21
-124.1734259
0
LINE
8
0
10
295.634852
20
-124.1734259
11
291.2349282
21
-107.7526869
0
LINE
8
0
10
291.2349282
20
-107.7526869
11
274.8141892
21
-112.1526107
0
LINE
8
0
10
274.8141892
20
-112.1526107
11
279.214113
21
-128.5733497
0
LINE
8
0
10
274.2965512
20
-110.220759
11
290.7172902
21
-105.8208352
0
LINE
8
0
10
290.7172902
20
-105.8208352
11
286.3173664
21
-89.4000962
0
LINE
8
0
10
286.3173664
20
-89.4000962
11
269.8966274
21
-93.80002
0
LINE
8
0
10
269.8966274
20
-93.80002
11
274.2965512
21
-110.220759
0
LINE
8
0
10
269.3789893
20
-91.8681682
11
285.7997283
21
-87.4682444
0
LINE
8
0
10
285.7997283
20
-87.4682444
11
281.3998045
21
-71.0475054
0
LINE
8
0
10
281.3998045
20
-71.0475054
11
264.9790655
21
-75.4474292
0
LINE
8
0
10
264.9790655
20
-75.4474292
11
269.3789893
21
-91.8681682
0
LINE
8
0
10
262.0909128
20
-138.0790592
11
278.5116518
21
-133.6791354
0
LINE
8
0
10
278.5116518
20
-133.6791354
11
274.111728
21
-117.2583964
0
LINE
8
0
10
274.111728
20
-117.2583964
11
257.690989
21
-121.6583202
0
LINE
8
0
10
257.690989
20
-121.6583202
11
262.0909128
21
-138.0790592
0
LINE
8
0
10
257.1733509
20
-119.7264685
11
273.5940899
21
-115.3265447
0
LINE
8
0
10
273.5940899
20
-115.3265447
11
269.1941661
21
-98.9058057
0
LINE
8
0
10
269.1941661
20
-98.9058057
11
252.7734271
21
-103.3057295
0
LINE
8
0
10
252.7734271
20
-103.3057295
11
257.1733509
21
-119.7264685
0
LINE
8
0
10
252.255789
20
-101.3738778
11
268.676528
21
-96.973954
0
LINE
8
0
10
268.676528
20
-96.973954
11
264.2766042
21
-80.553215
0
LINE
8
0
10
264.2766042
20
-80.553215
11
247.8558652
21
-84.9531388
0
LINE
8
0
10
247.8558652
20
-84.9531388
11
252.255789
21
-101.3738778
0
LINE
8
0
10
244.9677125
20
-147.5847687
11
261.3884515
21
-143.1848449
0
LINE
8
0
10
261.3884515
20
-143.1848449
11
256.9885277
21
-126.7641059
0
LINE
8
0
10
256.9885277
20
-126.7641059
11
240.5677887
21
-131.1640297
0
LINE
8
0
10
240.5677887
20
-131.1640297
11
244.9677125
21
-147.5847687
0
LINE
8
0
10
240.0501506
20
-129.2321779
11
256.4708896
21
-124.8322541
0
LINE
8
0
10
256.4708896
20
-124.8322541
11
252.0709658
21
-108.4115151
0
LINE
8
0
10
252.0709658
20
-108.4115151
11
235.6502268
21
-112.8114389
0
LINE
8
0
10
235.6502268
20
-112.8114389
11
240.0501506
21
-129.2321779
0
LINE
8
0
10
235.1325888
20
-110.8795872
11
251.5533278
21
-106.4796634
0
LINE
8
0
10
251.5533278
20
-106.4796634
11
247.153404
21
-90.0589244
0
LINE
8
0
10
247.153404
20
-90.0589244
11
230.732665
21
-94.4588482
0
LINE
8
0
10
230.732665
20
-94.4588482
11
235.1325888
21
-110.8795872
0
LINE
8
0
10
264.4081233
20
-172.5183231
11
279.1305551
21
-164.0183231
0
LINE
8
0
10
279.1305551
20
-164.0183231
11
270.6305551
21
-149.2958913
0
LINE
8
0
10
270.6305551
20
-149.2958913
11
255.9081233
21
-157.7958913
0
LINE
8
0
10
255.9081233
20
-157.7958913
11
264.4081233
21
-172.5183231
0
LINE
8
0
10
247.9536406
20
-182.0183231
11
262.6760724
21
-173.5183231
0
LINE
8
0
10
262.6760724
20
-173.5183231
11
254.1760724
21
-158.7958913
0
LINE
8
0
10
254.1760724
20
-158.7958913
11
239.4536406
21
-167.2958913
0
LINE
8
0
10
239.4536406
20
-167.2958913
11
247.9536406
21
-182.0183231
0
ENDSEC
0
EOF